<mxfile host="65bd71144e" pages="2">
    <diagram name="arquitectura" id="by4xlRIBgDyfnBkciu7c">
        <mxGraphModel dx="1333" dy="520" grid="0" gridSize="10" guides="1" tooltips="1" connect="1" arrows="1" fold="1" page="1" pageScale="1" pageWidth="827" pageHeight="1169" background="#ffffff" math="0" shadow="0">
            <root>
                <mxCell id="0"/>
                <mxCell id="1" parent="0"/>
                <mxCell id="mV81zlIoAhPw-ZKS14NC-6" style="edgeStyle=orthogonalEdgeStyle;rounded=0;orthogonalLoop=1;jettySize=auto;html=1;strokeColor=#121212;strokeWidth=7;" parent="1" source="cLuE3mZDjFCPggXaXha8-4" edge="1">
                    <mxGeometry relative="1" as="geometry">
                        <mxPoint x="414.50000000000045" y="790" as="targetPoint"/>
                    </mxGeometry>
                </mxCell>
                <mxCell id="cLuE3mZDjFCPggXaXha8-4" value="" style="rounded=1;whiteSpace=wrap;html=1;labelBackgroundColor=none;fillColor=#ffffff;strokeColor=#06a719;fontColor=#1A1A1A;strokeWidth=4;" parent="1" vertex="1">
                    <mxGeometry x="-234" y="1367" width="1297" height="344" as="geometry"/>
                </mxCell>
                <mxCell id="vcpIDm5QTTTsvcrO8wis-13" value="" style="rounded=1;whiteSpace=wrap;html=1;labelBackgroundColor=none;fillColor=#FFFFFF;strokeColor=#2a33b2;fontColor=#1A1A1A;strokeWidth=4;" parent="1" vertex="1">
                    <mxGeometry x="-234" y="502" width="1271" height="282" as="geometry"/>
                </mxCell>
                <mxCell id="cLuE3mZDjFCPggXaXha8-14" style="edgeStyle=orthogonalEdgeStyle;rounded=0;orthogonalLoop=1;jettySize=auto;html=1;exitX=0;exitY=0.75;exitDx=0;exitDy=0;entryX=0;entryY=0.25;entryDx=0;entryDy=0;" parent="1" edge="1">
                    <mxGeometry relative="1" as="geometry">
                        <mxPoint x="743" y="1481.0174999999995" as="sourcePoint"/>
                        <mxPoint x="743" y="1448.5924999999997" as="targetPoint"/>
                    </mxGeometry>
                </mxCell>
                <mxCell id="cLuE3mZDjFCPggXaXha8-1" value="" style="rounded=1;whiteSpace=wrap;html=1;labelBackgroundColor=none;fillColor=#ffffff;strokeColor=#000000;fontColor=#1A1A1A;strokeWidth=4;" parent="1" vertex="1">
                    <mxGeometry x="-238" y="908" width="1291" height="295" as="geometry"/>
                </mxCell>
                <mxCell id="cLuE3mZDjFCPggXaXha8-2" value="INTEGRATION LAYER" style="text;strokeColor=none;fillColor=none;html=1;fontSize=24;fontStyle=1;verticalAlign=middle;align=center;labelBackgroundColor=none;fontColor=#1A1A1A;" parent="1" vertex="1">
                    <mxGeometry x="386" y="932" width="100" height="40" as="geometry"/>
                </mxCell>
                <mxCell id="mV81zlIoAhPw-ZKS14NC-2" value="" style="shape=image;verticalLabelPosition=bottom;labelBackgroundColor=default;verticalAlign=top;aspect=fixed;imageAspect=0;image=data:image/png,iVBORw0KGgoAAAANSUhEUgAAAYkAAACUCAYAAABm4tVMAAAAAXNSR0IArs4c6QAAAARnQU1BAACxjwv8YQUAAAAJcEhZcwAADsMAAA7DAcdvqGQAAENaSURBVHhe7b0HfBzXud79oOwuFr0XEgTADvbeRVKkJFKFqpZkWbKkK7ncxI7vl8TfL7m6Jbm5Nzdx4s+5sRN3uXyOfeUiWVa3qV4okiIpipTYxA6CIIjet2AXyPucmVkMQIDYBXaBBXH+5MHOnDkzOztz5n3Oe9oktLW19UKj0Wg0mkFIND81Go1Go7kCLRIajUajGRItEhqNRqMZEi0SGo1GoxkSLRIajUajGRItEhqNRqMZEi0SGo1GoxkSLRIajUajGRItEhqNRqMZkkk34rpHfm2rBzhcDfQGzMhJRmIykJMBzC4AUmRZo9FohmLyiUQPcLYR+O7bwJk2wJFgbphEOJKAYhGJleXAlllASaa5QaPRaAYwKUXi0zrgP74E7LoMZEzCCrckEUa3AygQobhBROLxtUB2imSGSSiYGo3m6kw6keiVX0tP4huvAa+eFeOYLBfB3DaZCMp18Ilg5riB/3ATcP1sIEWEQ+uERqOxM+nK0Swt0xgWpJkRkxR6Ey65+x3dIpbHgOYuw8vSaDQaO5OydxMba8szxCia65MVVe0koboJqG8HAlokNBrNACalSDiTgJIcLRKE1W+dciG6AsayJj7pkZsTCATRHQiEQjAY1PdME3MmpUgkiydRJCJRnqrr4DXxTa+oAENHRxfOX7yET09XqXDyzAVUX6pHl1fEosdIo9HEgkn5ZrruoNl4vRN4rxpwi1Sy6mUywt9dmAH8zXZg2VSjvUYTP5w5V43DR07hyImzOHXuEpraO1R8QkICstxOzCgrRuWscixbOh9lU4uRkuJU2zWaaDEpRYI/uKUL+MG7wM8/EsMohlKLhBaJeOPFnbuw8829OH6mGi1tnQgEAv08hqTEBCQkJiHNnYJ5s0px1y0bsXblImRlppspNJrRMymrm6gHNIZLS8VApk5egdDEJ/R0f/SLP+DH//widh88hrr6Fni9fgSDPehl1ZIZAoEe+HzdaGltx4GPT+J7v3gez7z4FmovN5hH0mhGz6QUCcLG64VTgFk5AGfn4LgBjWa8oUC8+/5BvPTGXpw5f1nEwZg7hl5DYoJ4DgOC8ibk0+cL4PS5S/jTW3uxe//H6OzyqP00mtEyaUUiSX45q1k2zhDPIlmLhKYPj8eLjk5PxMHfPbrJwII9PbhUW48X/vQOamob5eHsRbK4uaIBw5JoisipczV4e8/HOHWm2tyi0YyOSdkmYcHq3XONwL98FrjcYlRDTTZ0m0R/Wto68Po7+9Ha3mnGhEdiYiJWLqnEwsrpZkzk+P3deOO9/fjHb/8KbfL9Ig9hCYQdfyCI3Jws3H/nFnztsbvNWI1m5ExqkbD4768DfzwmBmISeuhaJPpz6swFPPGPP8SFmjozZnjYmOx0OfHVxz6DB+7aasZGTkeXF//rx7/Br/7wtvIiWJU0Elo9fmxYtxTf//uvID0t1YzVaEbGpK1usnPPYmBeEeBI5qAlM1IzafFJib7Ly+APK3R4fOqTDcsjpUcyXkenH58cPYvEhN6IPYh+yL7t4olUVV82IzSakaNFQijLAW6ZCxRnGo3YWicmNwmJiaoUn6Q+wwlJqj1gNPT09KC9ow2Xm9uMaiZa+hGSJOfSEwjI8YwxFRrNaNAiITjFg1heAawrBbJcxuyoGs1YQ1nw+fyjHj2dLCLhTEpUvZ40mtGiRcKkJAO4b4XR2yldDyjTjDGJSUnIzMpGUV6aeCajM+4BEZmehESkpkiJR6MZJVokTFjoYrXT/UuB66brKifN2EJZSBahmD6tRLWL9Y4iBwYDPUhxOlFUVGDGaDQjR4uEDb7Wkw3Yty8AVk/TQqEZO1hIcbuSsGLxPHh7OGZiZLmPs8Wmp7pQWpyHnCxxjzWaUaJFYgBuJ7BcBOLBlcCNc+QCyRXqCpobNZoY4pBSysIFszG3rEBVOdHgR4qnO4CK8hJsWrMAyclS6tFoRokWiUHIcgOrRChY9XRzJVAg6x4RCu1ZaGIJe0pVTCvBzZtXIjMjTTVgR6ITgWAPivKyRSAWY+XS+WasRjM6tEgMgXjsam6nz4pQ3LUQmJ4nF0t3FtHEEPZGSk9zY/vWdVi/cgGSnE74g+G5sRSIDNl34+oFuGHDMhTk5ZhbNJrRoUXiKrgdQGWxeBTLgUdWAGsrgDR2kZXSnZ7rSRMrZk4vxf13XC/eQCWcKS54/XwTXVC1U7AKyh4oDp1ev3qPxNoV83GLCMzcWWXilZgH02hGic5Kw8DG7FIplN29GPjKeqOdYkYBkJVqjK+gVmjB0ESbFUvm4csPbMeNm1ZiWlkxsrPTRQgcqp2BwSHB7XIgOysNJcVF2LJ+GR646wasWjYPqe4U8ygazejRczeNgP0XgLdOAUcvAVVtQJtHLmQP4JcQkKtJ5Z0o76jQczf1h3M3ff0/fS+iKS1YwneJwf7XX7ofD33mRjM2OnR0eXD4k5PY99FxnK2qRWNLu2qrYNVUdroL08uKRBgWYMnCuaodQ6OJNlokRoinG7jQBByvBT6pAQ5JqOoAGvxieOWKprNjiXyyJyMHcId7kaktVhgLtEj0J95EwoLTQrW2d6G+vh5en1/NOltckIe83Ey1rNHECi0So0BdOPnT5gVqxKPgLLKnG4Aj9DBajFekNnQCzSIc/giucqo88ylj9NxrkehPvIqEhX3KDj3thmYs0CIRBegtsKTH5zcgn3y7WJd4GlYct4d7kbn/RxeA3x0GDovYuGPc1V2LRH/iXSQ0mrFG+6lRgF1j2cDNhuxUpzHOokgM75QsYGo2MC3HmPIjnMCutgVpxvFELzQajWZcGRdPgqVrlrTPNxql7LGmpyeIbq/XXBsfnI5ETM13IjftSlfhnZPAj/YC+6qBQTZHFe1J9Ed7EhpNf8ZFJFilcrEV+OluoMNniMZooNB08xhyoJ4Bg484T7+qx1XfYXwRX/ASGCASPb1G3RA/e2Wf/sh+vui+ti7FkYB5xS6sXZiJNXPSxHPoq1/WIjF+aJHQaPozLiLBOvtT9cATLwJ17fKQjeAMaMgpAGpZQkCOSQPfwwUzTn0GAn3pRAQsAbDExJj6gIHHCyoBYRqlKxQOppH4Xn+fqKj1UV615ESgIDURlVPc+NyWPGxbmok0swFCi8T4oUVCo+nPuLRJsMycmNADpyxYDb2RBn/osxd+WQgGRQwsgaCRFxFgUJOkUQQkjsLAEOQn1yUExeBzX8bx9ZOGQIhHQcFgOhGZYLccOyFZhSCSxGtJlJCgAsdG+AK9EYdOfy/ONQex88N2fO+PjThS7YWXB9NoNJo4YnwarkUcXEm9yHRJiV5WR1IoZ9/wpORk9epIdgVkSExKVIFTt1rdA5kuUdLxlZRGmiQVF9qeIMtq3Uwr2+1pE5jeijPjk5KSkZzM0a8OWTa+f0TIbj0pCThwzotdR9vR0jl6D0Wj0WiiybiIBHsDce78nHTAI0ZRCtYjhoabRttuqJMGCIVClrluBfs+hlD0N/b2tIm2tJZQWCTKfkmOUQiFEOjy40SVB00iEnqKD42mPyw4cY4qr9ePjo4utLZ1XBE8Hq+qKh4vugMBdHZ50NjUipraBlyovoxzF2pw5vxFnDpbjdMSzlXV4Hz1JVRfqkddfTPa2jvUwEirOjxeGb/eTX7gO+8ATx2W9SDgGLmNVbCKKBDoNg5uwuojuQNqmwWrk4KqWsqIC8rNtbYbjdZ9pXnGc7sFq56stFa1lAX3DXRLWltc2Ph6sKEyDX/zUBlWzHLjg7O6TWK8iJc2CRodZTwiyE4JUvri2+2iOQKb5xAIyjMRoQGmhz2S91nw8VFVwPKMclJDv78bXb4g2js60dDUhIaGZmWMLXPBs+JzWDmrDAsqZ47JvFX8Pl6TAM+xOwiP14daMfrVF2tECGpRW9eEpuY2dIlwUbw8Pq+6Hhnp6XA4kpGTnYX8vExUTC1C2bQSlBTnIysjDSlO1k4kS6FUCr4juIcjyTPMK7xPVyvkjttgOrZF/OEg8I13IRmBL283N4wCdfO65WA2LKFg7rN+KNMFu0VQTK4UCkkvqRml0oYpFGzo7pZMHTFaJOKGeBGJoyfOorm5VbWVhUuGGJqy0mLk5WabMaOnvrFFjF8t2ts7zZgwkDxVOqUIMypKzYjwCIob3eULoKGxHtUXanHo6BnsO3gEp85fwrlLLejwdSMxORFOCSliSKlbHgqJpxtff/x2/ItH70JRYa55tNjA572904OLNZdx9nw1Dhw+hdd2HcKh41VIdiXD7UiSZ0iEWowu7e5As2ZprU/O2yMC4/MGUFacgw0r5mHz2sWYXzkdhfm5KCrIiah2Iii26OTpKjQ2Nhs2L0yyszMwvbxUBCzVjLmScRMJXqwDVcA/7ARqWvsu3mjhTRwoFD1mgzQJGXj5tITCLhLE7lGodDaRIFEXCi0ScUO8iMR/+aef4+k/7kGTGKTEMF5kEvAHsWrBdPyrx+7ElutWmLGj58NDx/E/fvos3j94woy5OkF5FvLE4Hzxs9vwlT+724wdnst1jXh/38f45PhZHD95DnuPidGVYyUl9iJRTK26AqbRtNtOdkxp7fThS/J9X374zpiKRHVNnYj3GRz46Bj2HDyGU9UN6BXb4hDBsmxAnzDYTnIQrCIrd2NKVrnzPpeIOKxaPBub1i7C4kWVKC7IHVYsKAq1cv3+15O/w3Ov7YdXbFc4AhMQQb79+iX42hfvQ+XsCjP2SsalTYLwJxSkBTAlq1eNVI4WvDjJDueQF8mK52eSw7CIbJhmI3j/fcySANPJNjtszA4dZ2DbxzCZQ6MJFz4X7oReNZfXcIEdQRxiUPtlxSjAXn7M/e5BvnOwkCbfnwT2HOwrOF2Nmtp6PPvSm/jGd36J7/7sD3jhtT04fqYaKfK7OetAsjxffJUr2xnVpwSW0q2QJCHav3kgreJFPfPC6/jW95/Ct3/yrBjivbhQ04AkKRAmy/nw6+3nRnvAc7paCJ0/95HALvEJohh1Dc149b0D+NaPnsF/+/b/j9899zq6PMON0WLvzV45hmFL3XL8we7NwOCU69vbS4EzDzMEknR84IUqzkrCwkK5SHKyajBclFCGvV9js3wH693Mer5QPNMN6PnEZXUDZZkN1irOTKfEQpa5roTCOh73l+9Qy7ItmXWLErg8Ely8geN2ZzTxAPNUshhGh1gPllSHDZKehnSkee5qMJsP+p2DBJ4zw3DnQcP78mvv4+//5y/FU3keuz88goamNtU4HQwYpXMKhGV0xxp6Bi2tHXjjnX34+n/+Ib77i5ew+8BR1Fyqh6fLp2qw2W5AIx+N07MEgw6G1xtQDdt7Dh7HP/38eTzxX57EPvFe2L5xNXg+ycwvYeYZ3ifVfjXMDxhXU8RRx0unATkpLH1EFz5kllCEAm8oLwq3mxfGSGcIAYPqHsueTta/ULzxyRthxRniYB2v78FgbymGpGEahIaC7X2yu+7ppLkmYe+f3z7/Bn722z9h9/5P0FDXKAawW54Vo0Q+kmcmmnR3B3D63EU8/cIb+MGvXsIHB46o6rAuj1+Vug1bYCaOMvZr4PF2o6mxBe/s+Qg/+eUL+NMbu0U8msyUY8e4igSZVwLMzZeSihTSR9MVdjBowFX31ZAhp2E3jLtaV3+tdAOFwkpjpTdSq7TcbqbleiitGW+huseOQCjcTnEHHdY3ajTXDuwK+swLb+IPr7yL4yer1ADYFKd47PJcxgNerw/HPj2LXz3zKp556R0cPXEeCeI2OOU5jpbXEC70LlLl2rAX1b5DJ/DUH97EH9/ci4vizYwlhnUbR/JSgfUzgKx0UfDwG+XDxjDqYqgtQ64Mu2n4bXdcGfgrhMLYbg24s6y2SstgpjXWjY1WvIXx3X3r4ZDuAnLlurhZGazRXAOwa+b5CzXKg3juT7tQXVMvzxW95nE3QSG6ujz4+NhpOcc38fIbe1FV06DaHGisxxNWu3GcyFERVQoXhYJtOWNFXNwhisSiYkiJIgbehAQafGWszZutRICZkwbdFAaihKGfUNi2sQpJCYBaNZbVuiUUtuOb8RZWmnBxiheR4xbhlOuh0Ux0WBKuqq7FT3+7E8/tfB91ja30z8fd+Nrp6OzCh4c/xW/+8AZeeWufrHtUV9t4OUVeK3pbn56pVl7Yq2/vQ0Nji7k1tsSFSBRnANtmAbPzZSVGN0UJha0xm6geExQLW5yRziYUdhFJ4HKfAKi0dqGwpbULBdtGKErW+nC4RCTyKRLiUeh2Cc1Ehv336xub8fuX38EPf/0ntHcYXXrDfBTGBDYIH/z4Uzz17Kv409v70e0PqOqleINC4XQk48z5Wjwv3th7ew4O25gdDeLG11tVDmwoAwpj+C53GvSBU3hY2ONo4CkOzMmMt8/PZHkXhgiYaSUQxttFZaBQWO0TVtxQsD2iOBPIFKHwhD+WSqOJK9hDiIPwPjh4FL9+7k0UpruU8b167h9b6OUc+/Qcnnnpbby5+7B6NlUvoyjBMh4bu3ktrMCxHX3rRppwoVCwB9O5C7V48fU9OHLirDpGLIkbkcgXcdjIaqciXojILlwk0HAnJRvjIyxovCV39DPeKh2FQq0YXWCt3E2hUBMLSmCccUyzAUHSckJBfqpVm1BwP4fTiSS20l8Fl2wuEe9qSrqs9J2SRjOhYHdWGrGnn38LbeJBRDLVBJ9/FeRPKJhxRC2bcSOFRrr2cgNeeWOPGsjHKU2iIRA8L0Ix4HiRIAfYBiWIV6VCwFyXoF5vIGnUbNVCOL+HQuEXcTt89Ixq4+EodcvexIK4EQmypBS4bymweCrQGcMSNI22w+mCw9FX6a+EwmbQST/jL3DWV/t2ItKi7g/j7Wm5zMF6jLcLBWH7hoMND1chLwuYKYKZ6zIjNJoJRm2dGOA39+KND4+rHkzhQCOpJvPzdcMjodXjRUuXB50+v1r3+o3QJQLE+JZO2e7tFiNr7B8JTS3tePrFN/Hq2/vR6emOikD4ugNo9/rkM4i0VDemFuehcnoJVi2ahY0r56uwafV8rF06FysWzsRc2TalOBfuFJfah7+NU3YM93PYmN3p8eOdDz7Bz375DDKyMs0t0SfpiSee+DtzedzhPcoVj4KDyc41Ape6YjyoTAy3/U12LOj0KrNP42+gjLwEa1oPZexN1eey6rrHOHVbDUGw0pJ++9lQ+7LkIkHKEijLdWDToixMkU/xJuEWDWnxAgcuAnUxvA48/TQRok2zxHuRfBaHVbFjCidm2/n2PrS2hT9XEbMDJ0lbu2IBFs8XdzgKvLf3EE6erYZPjEY4DbycmqGkMAcrllSiYlqJGTt62IuG3S8vXW4KPRNXg9fCKYIwc/pUNQneb557S01/Q6M2FAGx8F4xrjSSbtm3ojQfy+ZPx7zZFVixaLYyqNetmo8Ny8W4LqvEGgmrlszBErnWK8X4Lp83HQvnlGPOrDKkiLENl/f2HMILr+4xezEZ1ccjgU++zx9Q4ja7ohhb1i/FzZtX4CYJ27esxY5t1+GOm6/D1o0r1ZQpDDduWoXrr1uN69YuxUr+lgUzMW/mNBRK6TAQCKCm3miUvlrvL9oQ2q8OEYvZ5UX49HQVTp6/pDyTgfZmMHi+M8pKsHr5PBTkDT3f17jN3TQUzGS1bT3447Fe/PJgEi60AukxNFw04nzpEF1PtS6fHOJuGHejzlDFM505hxPT8OZY+5CeXr6kyBAExtvTqhcgmWl5HPt+xO/3Y8P0FPzNg8bcTSlmoev4ZeDJvcDvjohnEV5BLGL03E39iZe5m/7rt3+Bl17fg7b2rrCqaWikli2Yji8/cic2r19uxo6e/QeP4Hu/eB4fHj4ZlkjwWuRkpmLpwlkinE7VEKymrhiwMw0ZjVSHnHdOVhpWyrkvrpyJcjFa2VnpyJBSeHpGJtwu8cjNDiZ2sVTPmFkA43e6XU5kZaYrsQ4H9rb6zpPP4N29h+ERr2QkXgSriJTn4O/Bjk3LsEaM7YyyKSgrLURGeppqZOasryrYahks5LTF9gQREBH1UySlQMBR3pxenA3pb+76EMeq6pApecuh2jrNHW3QlKSnpeDG65aiubUd7+47qgoM4RQsPHLtb9ywDF/9wj0iyOVm7JXEqHw6cvjbCtITcMOcBDy0LIg5eUbVU3+zGj1UlZJqVHaEqoX6BtwZXoQRZ1Y9mev2Bmqiusiaqk/vwmrPUPva0lrfEQ5lOcD6CiBnkhtuzcSBxolTfB87eQEfiqGj7R2Y3Vmf7nAkYs7Mqfj8XVvw1197EH/xhftw7x1bsFVK2auXzsP8uTMws6IEpVMLMaU4H0UFuSjIzwmFQlkvKcpXobSkAHm5WWELBPn9y+9h/+FP1TTf4RhUOxQoCpxDvm+JeDF/+7UH8NXH7sbt2zYooSgXT44lc4oWpy4fTCAIrw2P4ZY0TFsov2tmxRRsWL0YD37mJvz7rz2KL92/Xf1G2j+r3cIOT93j9WKXiMPRTy+ocwvXvoRL3IkESZbi7ZSsBNwyLwGPrwYWmI3ZsYKGW3VltdblIvcJRR9KKEyDz9BfKGQ9JBTGvva0SigY+D0Mof2GJtUpv70Y2CBCwV5OsRJKjSZaMFuzRNzY3Cql4vZ+JXR6DxSIUjH6O25ahy88eBse/+zN2HHDWixeMEvEoEBNWU2jmZLiVPsO/5REzpFjp/H6+wdR39RmPp/mhjBQRljOa2pJPu7avl7E4R48cPv1WDx/phIGnnskDfQDoc3gNSgrLcGmdUvx6H3b8KWHdmDDqgXIzEhV389ghw5VQ3Mb6iXQSET7msWlSBAKRXFmIm6aCzy2Elgn3hDrzv1yEWI1diBBjYMwLrHKPMzgA264MvA243+lUJhCIFF2QVBprXVb/HCoMSRyDYoy1YziWijGCKObormiiQjVW4d1KTasUvCiuRW4/86t+Nzd23DDxpWYOb1UGdaxgMaVLwLa+dZe1FxukIjwqmUsDAMtHv7UIiUQn7tnmzLk2VnykEYZnpUjOUF5JbdvW4eH7r0Z18t35eZkjnm+jFuRILx/6ZJ/ts0DHlkFbBdjWZYtN0vO2isGM9qjs+kFXDEy2xQKy9CTkLE34warejJGYPdPS6x91LItfij4+5eVAjewPfTqSTWauIQCEZCSXeWsafj8vTfhnh1bMGdmmerRM5ZQuM5fqMXeD4+hh43pZvVwOFAg2MBOD+LWLatx580blcCNBayyWrNiAe67YyuuW70I6eJRsJF/ILEyD3EtEoQ/nOMGVlcAX94AfH4ZsFzuTW46YPWqi6ZY0OAnJvYNuONnaFS2BCteCcMgQhHaHhIKmwdhbpOFUFrGU4iM/Y3NdlTDsvzWm+cDS4vFw4r7O3ZtwBLmYPdDExmqakQuZNm0Qjx83024YdMq1bA91teW5+H1+XDg0DFUX25SpfFwvQim5QkXF+Zix41rVU+lkuICY+MYweeeVVr33LoJyxbPRaIj+QpvLVZMKJNDY/mgeBR/ewPwpRXAGhGLgkxjGguxtUosolEVpTyKgVN4JBszukrOCsUrwy6BGYhxamwE102UUFhplRjwchtpOeDO+g6Ov0hOSZFjDX472ONoUQnwqPz2vDQpEUnc2GSPyYu+vqOH15B2LDcnC//y8ztw643Xjbn3YMGG5kuXG/HW+x+pqUEieWc3e1GxYfn+HZtwz22bx1wg7CxdNAcP3rEZG5bNlgJmwqCN2dFmQomExUy5Rw+Jwfx3IhZ/sR64R0rZHKHcK/a5W2yyVfCnMWVeGElgCZ+9ngaiREAObjf+dmEYDKZVQaW1XXI5hH109tWgUNw412ifSJBlts3If02MYClNlYI1I4ZdMTPS3bh583IpfW9SHvN4wbEHFy5exsEjp+Xe9oSe3+FgDmBYu3weNq5dhuIiTjA3vixdNBe3b9uIGWXFavR2rJmQIkFYqC/LA25dCHxtM/CNHcD/vFk8jOXA3EJjuu3WAFDbPbLQxpHuYtRZyh8KZfj5SeNvdXOTuGSHeAbmaGs1hQc9BkmjNochKkNBffnCWuABEUW+eZXtMprYoHrWhGlINFfCEi6v37Qphbjtpg1m7PjBKUL2HTyOZk4wyOc2zFtLocvNzsR28YJmzywzY8cXtlEsmjcd61ctVGMkeI6xZMKKBFEGWv6w19OcImDDHOCLkh+/eSfwq4eBlx8HXngE+Of7gB/dAXxPhCSc8C0Rm88vAYrSDKPOd2YzWFhzPSnMDNdPKAbB6B7L/cy0NqFQ1VBh5tqMFPGiVgOfE3HkuzjY40kTfThAS3sSI4ee2JTiPNyydS1mVIyvceWb5i5cqsdbew4hNcLXCjd0ebHjprWYU1GselzGC1OnFKmR3QtnlyJgDiqMFRNaJCx4z/nSdFbJ0IgWZQBTsoDZBcDiEmBdBbB1NlR32nDCtkqjcZzH40A+5TEMyFiq3ULEwvAQjO0DhYKiwHVrXyUUZmP2QKEIF3rsnCH2gRXAI+I1ledoj0ITX9CL4MA2isSCOdPUqOnxxN/djWoRiY9OXTQ9RHPDMHA09byyQmzdsAxF+fKgxRGcjHDa1GKsW7VYDciLJYnNYgVbPL1o8yLi0NzVi8bOniviGzqCqG8fv9Ao38/A39bmCaLDF4SHk2fZAgf1WKIyMKSL08BtYtP7NYSz6kmNzKaRtwIznRIKU0xsQmGlsXo+EeXqSppQWtmm2iUigD0dSrOB2xaIxyNCsWIK0CuH917ZK06jGXPoRaSnujCjtBhTSookr5sbxgnOw3Xw8Ak45Tys53A46EVSJLZvXoUy+R2cWiPeyMnOVIMQC3MzlD2LFQn/38stvZ3+BCSP4E6yxEAbmih/g91+I1Jgn+irtaryBgR9PnMtPHp9XVc7ZMSwRJ6ZkojcHCduXpWN7NS+Lqhd8lPeOQX8aDdwuE7SDcgfgUC3ObeTARvCeq16QfOaME5NHijrRjQHGEk6tZ8xNbA1jxPnblld4cJf3p2HZfJpzd00HGxgb+gADl4Adp4Adp0DmuSycq4rfms4d1TP3dQfa+6ms1W1Ko+EY1T03E394bQcpVMK8IAaNHeTujbjybGTVfjbb/xYfTpZ5RAGfD4dLie++ddfVhM3jtWAv0ipvngZ//unT+PpV95HutsV9j0i4c7dlLD9O229dW2AI5KjC729lsGTZfkM+PpEwkKlMY0k4XLIMHrF5bDRrzeJfHKedWPRiOv1e9WyMWtr3zFHjByCrQwZGQ5sWZ6Fe9bnY26JE26JHE4krMn95Gzk9xjnbXWps34fYToKg0SodXX+PbKvmVbNJW9O8DUSkbDokEt5ql5E4izw7nngYpPEyW9gewVnj72aidEi0R8tEv0ZiUjwXBbNn4E/f2gHtm5aacaOD3yp0J4Pj+Jrf/1t9ayFMzZCPafimq9bOQ9//f88jKklheLxD38PxoP2ji68/u5+fOU/fE+e48jGn4Q9wR8NYrMYmaYIQ6PHCA2eXtR39aCpOykUGn0JaJA0Ddze1atCfWcP6jqCoVDvTwyFOklb5+1FnRyrztOD2q4gajsCRmjvxqVWH2o9CbjsTcQlbwJqutA/dPaiur0n4nCmOYhDVV784OU6/O69Zpyv70Y4PcqstgZr0B0D2ygGTuPBdGognXnnjLS27aqNwmzQHgUclb10mtEt+EsSts3twZISTpRoiIBfflOspjLRaAYixSQ1rmBKyfh3F+30eHGxph4dXd6wBMLAePvbysVzkJeTFbcCQVLFe5g7uwLF+dmq0BmLxzwxU0rOI3lXgRofIIaSb2hTxpANuWaw6tyNxl0xpgymwVQGlrOucj8aSQlW3Tx7DantPK65D1/cw091TAnJsq8afGYLkdbpK5hf6D5J8Pp78ce99Th4ugOdEbQCG7+nr2Gan8xQPE+L0Lnb0qh2DHPd6CLb12YxGrLdwObZvfji2l782WrgvgXAqjKgPNfYxq/gz6OHQeFQQYvHFag8PPrbMWmho5yekY78vPFv7OXrUy/U1Kr3RYSb1Xnv09PcKJtaqPJCPEPbkZ+TiXWLZqoxE1YtRjRJzE4FXKMoyBoGvs9QEksoZGvoYeO6MpiMkP8UgZChVCVqQ0TUZvkTSsvttrR2gxs1RChO1vrxkYhEfcuV1WZXY6BQEIqd/TwtoZAIFcfrZf990YTd9Eqyk3D9HODhNcC/vR74ylrgtrnAPPEuCuW5zc0AMtOkcOBiYzzglqCeheifzoTEYXZO0EQOTVRQDJUrJQXZWVlG5Dji9frQ2NSqlsO5o8rISsKcbE7dnaeMcLzjcjowf+50+IIUCTMyiiRmO2jojJs7UpThkweLRtCiv1AY8UooaJXM9ZBQWNtNr8JYNoTCIiQUEuwGOMTA9RFQ0+BHS0fkvQSUVyWG334O1lgK6zz5W5jOSsP4WGfALPEe5hSKQCwC/s0NwPc/Azx5N/D3svxV09O4dTawslQ8jRQ5x9FfQs0kh1nIKfnc7aDXb8SNJ6xuqm9ssj+aw8JqqZz0FBQXUSQMexTP8OVG82eXo1uWY6ARSCylRyg3c7SDsmj07O+MJn1CYWy3PikOFlxOpgCY6TjVtiUOTMttFhQKJSyS1goqXsQlGl3UqMIjvcg8F1Z92RlMKDgSO/T7+fs4dNrcHkvYqYPde2cVAFvEq+CAvCduAv5hB/CX2w0xccbBQ62Z2LARn0YrZZh3uI8FbF/0+oPweGg+w4NVZT0idfn5ucjPzQqr08B4w8JnTk4mijLccr7RtyWJbNyM5lgXCoVlFMlQQqGM4xDQ6Fv19Ibx7X+CqqpG4q3thF6Iw+lUYaTw9EZziY3f1f/7lVCY52rBc+4nlInaOmuuHdjoGw/jCnxeD1paWuHz8/Wk4Rt7nntFaUm/Zzbe4bny7Xwk2lVOieX5xvQTUXvRvpysNeDMYjChUOlspWjeRCsNodGnQhp1hKb3YT+mmZ7Hsx+bgUJh//7xxv5OihBxdH4aTTQx3uk8/gUfTsfR0dml2iXCfdose1NRViR2ZWI8ozxPd6obWamumFQZJ7KaYZoIEBsvowWNYVKSCIVpvAkN5UChUOlYfcR1CapuX9ZV3b3abnkU1jFtjb3yqUSCwVy24HqyZNRQ2gjhoZQDMILd1XeLSDJY389P6/dzmbH85G8dKH4azURH5fE4yNMc1Nfl8aHTGzBjhoeN7gF5QvlObeNJjX94rdl4nZWVrqrLOYIrmiSycXN+EUSFjC6R0YLqxmqUkPFmxpE45VUwmJmIn6r6iNutIPvYhcKY76h/WmObkTZkfK3vEpTAUChGYOm5B6e+GGkdvXVOA7vH8lzUOVpxZrp+4qfRaKJCMBCAx+OF1x9Zj8VeeRbT08b+xUgjhafJKnq3y2msRBlVE7J0ag9KsnqjPuBKGUA1DsDwDkJG3TKSXJdFxl1h/M1l0k8olNBcXSgYSKhtI0KhYPJUh9HQOxr4mwe+5U6di3muFmo5JV3ix78eV6O5Vgh0B9DZ5YXf3x2+DRAbyBonTsc90aC9Ue0RUbbjyprOzAcWiDfBMRPdMRAKw6jbS/l2Y24a0FA682aaaSxCQsF/ss0SHWObuW7GhY4hhAarRSAU4uggTUSCAw1HCz0nQ+Ds5yrLtvMnjhS38ZY7jUYTFQK9PfCJQAQCPVLwC+/5t2ysk6XyCQR/nTEvVXi/MxKUFU5LScS6igTME6GIFYZxtITBNJ6sdrIZS7tQ2NNb+1AorPT2tOZGYz2Utk8sLKEwvm/4i8gknMMoTfJJpHNaDQbPa0ihMLelsA1EbdVoNNGCDdERvZRH0ovlQJpbCm3m8zpRcLscYYthJITs0sJiYEMZMCXdjIgyNN7s9TTU6GzGqWAaTrWN+8iyvc6eVUj29HaPgoREhvG2bTTERoNyeA3a7EmblQZkDN1TNyIGEwoO1GHgeykkRsVrNJroQZFQk2xGQJK4EpkZqeaaJiQSbMBeLyKxplQuktirWE0Ip4yjGGs7FAqxoOaaYS5p/O1zMoV6QQl9QmGIDw2wWjG52jQe9EbY82k4MlzAtBzjupiTto4aJRQDRmZrNJrYYlUhaUZGvxqO8gJgZYUxe2jXOL3AhgZdGX6bQFgMFAqjZG7sQ2/Djl0oRkKqeBIlmfIpYtEWxWtB8eMkhRqNZmwQi2IuaUZCP5HguxQ2zjJejZkeQztG4+1wulSwDLmqelFdVo2SvxXUgDsbSigkDenX60n+cBS3fSS3EgoezzymBfdzuvj9QzdOsftrSQYwLwazHfN87FN42M9No9FED7ZBJidrmRgN/USCF1JVO00H7lk8Ni7aoKOzWf0kMJ6BQnG10dk886HsrL3xW7VX2Pbjsa82OjtfPCp6ViTa10IJhcOpgs/pRq8Il0ajiS58tmkDNCPniqvHTjfTsg2RuH1e7IVCGegBRlqNTh4gFOqNdKoTsIpUN14JAL2JUKOwcah+o5itTxN1vAFCYcHD238vezfNEU9idqakM+OiSei3USBi8QUazSRnJI9VUHZqae0ImZuJAE+10+OXT1mKsi0ZVGI54R9nC71/OXBrJUvu5oYYoQbc0aMIGW8RARpQm1BQEOxtEsrAWkLBf2bVk9pXRMbeI0qls3kR1r4WqppL9jeTh+DXl2QB20UsWwKxE0x3bwAJEylHajQTgGR55lNdLrgcSer1yOGgbENCL1ra2mRtAj2TYj+8vm71GW36LOUAKBRzioDPrQC2iVBkugGffH8sej1Zxn7gNB5KAMx1y8gbPYQMAbALBTGEgsuGUFA0DC/DOI4VjLR9QsFGcNlFMVCEM1OALXOAmTnGdOpRnLkkRFDO5cpv1mg0o8EhhcqU1BQ4nA6xnWEaLnkM+Z761pb2CeNJ8DSDvT3oDgRiImuGlRwCNt7OLwEeFKG4dT5QwXdPyB6BGF08Gu1+QiFY4ygIbSmXDZGw4gxj35fG2pfxptAoIzxYWlk3tw0Fr8H0PPn9IhRuNouY8dHEjyT0xuLAGs0khjUPqSniSUTwbgs+hvTqGxqbZWliqESveEkerw+t7Z6YnLJlUYeEbRQLikUolgH3LwWWTwVSnMa7kmMhFkoEQobeQI2jUIhRt5bYbmEz/navQwmBEgC1aiyH4sxlW1oFf6h1cBs8Btsm6E3NK2D62HgTmokNs84g2UczjnC68rRUF9I4fUKYsJo7WW7k5YaW8L2PcYbn6ff6UdfEKjLarOjmRMv6DgvfYHfvYuCLq4Ets4CibMDFay/nE22x6DPkth9LY84fz22yyu1WFZRl/JUXIp+hMRRq3UhrTMthbFdpzLRExbHLr7k+EE6JUilCqardUsW1k7hoDbDTxB+RjtAlfCMYs6gmfnCKB5GZkQ6XKyXsgp2yCfJwX6prnkDVTb3wdfvR2NKuPInBrdjIiShbp7mADTOBv7wB+PoGYGO5MeCMc2GxsM/2imi0WdCocxyBeieFabjVOArzLW805oxVxl9cSsv4M9LeuG2MzO4vBva01oA7HkcWVJqh4O/7zBLgBvn9HE8yTmMNNWOA35xa2so34WC8lpYdJzTxgjvFhdysTPl0RiT8gUAANZfqVB3/RKAn2IP6hmY0dnpU20S0iUgkLHLcwI6FwF9tB/7fzcD9sjwlS05WnhEfE8izRa1gaTsUuB5hoOFWU3jYHlaKhWXUQ8Zf1u0jtK8UCnobalXFUygsIhmZzWqnzy0DFhZATcinufZgqczrDyAYkTfRKwWHJHMWTk084ZASLL2JcL0CwxT0ol0MbkNjS2STA44T/u4gTp27CLfYRrF0Zmz0GJFIWOSniTcxG/iyeBXf2AF851bgvgXGm+7a5drWdhuhQQSZXUgjDe0SaMD53mw7/RuzjYvCT/vo7KE8CkaptDZRiUQoZopAPLwKmC2fmmsPj9ePFo9fjEOYVkWgoLBqw2nLf5r4wJ2SjNzs8GctVVZAbv2lhhZcutwg+SD+6wz83d049ul5OGkXwzNjETEqkSB8gxtfzsNxFetniWexFfj+/cALjwG//izwzW3Av10rhnURcHdl+GGHiM/qKcaU3ep7RCjshnwkQmF1lSUqrU0oWL3V10A+NDzauunA42uAFWVGe4Xm2sHn9YrnG1npkXLCbpYOm4eqiQ9SnC7k5kqpVQhH9mkXmI7VN+ekdB4MSkk1juF7vGsuNeDtD45K/qNIRF8lRi0ShO3LNJZsyOa0HmynmJ0PrBEjevtCEYjVwFc2Al/fEn74i03AnYuNbqfEMOoDpvBgD6ehhMJctxq3iRpHkZRsDrSzjilCYawgyeXqV201FFI4wboK4FHxKDbIJ7uvjteEiJrocuJ0NSulVZYIG9GUvJwsZGSKa62JK/je5+llU9VyuLeUvYW6vN04df4SOn09cd2A3dHZhYOfnEBTl1fWIsm04RMVkRgIHzB6GGzgzRbR4KyyHLlcmh1+oNBwum5OW26hjDrfR2F5BLKuusIOJhRmAzVDv+6xvJAqHbcNSKvS2b7wKrARn92BOSr9NvF8CuR3UijiOD9pwuDs+Rox+j2qt1K48A1oWRlpSJ+Ar7y81mHjdXFhLtJTnQiG2SVR2QhRhg+PnEZDQxMCcVzl1NrWgQ8+PIp0jn4OP8tGRExEIhpQvQdrM6Ihtw+4M4y7YeCtdfUp6/27vPYXCqPqyUxrHsNaDxdOI754CnDf0l7cu7gHM3KNdhTNxOXoqSrVu8XKR+HgC4hIZGciU4RCE1/wOc8WD29WebHc1/CMPW89w4mz1Thz7kKot1u84fF4cfpcDY6drEKa0xErjYhfkbgagwlF/6on9aHWhxSKAb2eZEWCuRwBfO/EvGLg7sXA46uBm8WryJUCJQ/FAYexenmTJrqwtHjydBVOXqhV70SORCSCUqLJFpFI1yIRl2RnZWD18gXo6A5/2goWJP2+brz2zgE0NsXfZH90ii43NOODg0dQ39wu9jB2pjx2R44xSgBsQkFr39eY3feAq3RDCIXV64nbVbxtv0hwJiegLC9Rtb98dR1w1yKjUZvdgnmFtVjEP93+brz61gdo7/SpgkO4OYH115nuFGRz0FYE0z9oxo7M9FQsXjBH9T4LdxQ180CKIxlv7DmMo1JS93hZ5x8/eDwenDh1AfsPnQh78sKRMmFFgtCwW6OsLVQPJRp8W9ygQmFuV72eGHicEYqEBasFK4uAx9YDX1gL3C9isZJikWO0z7D2jJME+iV0a9GIG9gXvqGxFW/tOgiXZIEkW94ZjoCof3lJHvJyMiRPTejH6ZqFAx2LC/NRWVGiujaH6xWwdqKprRNv7zmAS3VNceNN0OutEo93z/6Pcba6TvVqiiUTPldTAFRjtu3B5oC74YTC2seeJhrwcBx0t6bceMPfX20B/sUaYyqTmYVAvngXGW6jJxgH5LEphP2peBZRPhVNGLBk2dbeib0Hj+LEuRrGRHQjAj1BTC8twJTCPDiv8qZDzfjBjin5eTm4btUCs9QdvrXPdrvw9vsf4fDxc+jyxIc3Ud/Qgvf2fYxd+46oKjGKWSy5Joo+Siis7rHmAx4SCptYWEIhS+o/u7+GxlIwiZEsanCacQ6+u3cJ8A+3AD++D/gn+fyKiMfts4FFxcA08TJmSWAPMM44G+VT0AyD1+vHidNVeP6P76E7EJQsI/nF3BYO7DEzrbRYPIl08WrNSE1cQRuamebCmmWVSFEDr8K/w+zl1tLSgZ2vvY+jJ86E3fgdK7w+P97Z/RGeffkdVNc2qkkMY801k61p6Dngzj4625rvyRIKFWSZLxkaSLISi9hdDt7L3FRguXgYD28A/uMO4IcPAs9+AfjtY7J+K7CgxKiy0owN7D13QR60F3buwgeHT8LJl0+Z28IhIAfIzUpH2dQSpKfpRut4xuFMxszp07B2yRylET0R1B0lJydi94EjePnV93H2/EUzduyh1/ve7kN46sW3cfTcJfUypbFgUpZ9KBZDjcweD9JF1zgmhGNLNGMHuzf+4tcv4sXX9qhGykhzAEViVnkJykqLVH98TfzCt9QV5OdgyaJZUphMFoMbiTeRqHoTvfbeh3j2lbdx/sLYC4U/ALwp3//Uc6+huuoisvm+hjHimjRLV0zhIS4jPQgS8igGCMV4wlO1ne6kp6q6Fkc/PYvG5lYzJrpw8ra3d32I7/7kabz85j4W0UZ0/TkZ4EwRidIp+XCN4UOrGRn0FFcvm4/ivEzWREfUEE0b0trehZde34d//v3rOFdVbW6JPRSI515+Cz/555dw+NgZdEfYRXu0xK1IsH43VWy4ewQelRKApGQ1H5MSB1nnYLlEVj3ZKo7tF1qNmxjDC68ZmppLl/G/f/B7/Pm/+Rb+7ps/Ezd/F06eqUJDUyta2zrVQxPB861o7+hS+7/x7gH8p3/6Bf7xu09hz8HjqusrXzQTKWyLyMvOxJKFs5GbnTWiY2jGFrY3zZ1djhs2rlCiHohgpl/eXdqHltYOvPzGB/jWD5/Bm5KX2kQ4YgEFzOvvUe0gf/Wfv4cf/PIFHD9dJfk1soGe0SDpiSee+DtzOa5g+1CNFCT3nQda1PzjkcELycD31bIuz1rn1e9bN9NJ5mG6GQVJWDndgZLssanr0wzOqbPV+KOU8D8+cQ619Y04euoC9h46gU+OnkJNTR0aW1rR2NCExqYWtLS1o7mlTU1PwF5K/OQ6Xz/ZKKJQLelPnKrCW+8fxHM738fOd/bj8NHTsn+r6vqaPILWZj7AbOReXFmOu2/bjOLCPGWAosl7ew/hpFwHX5gixt9SUpiDFUsqUTGtxIwdPTW19dgn1/7S5aawquN4bZzOZCyeP1NK7fPM2PiAz7rD4UBaqht7DxxVecWyAeFgpeOrQmvrm1BVUw+fz4uMNDfSM+idiC1RKUYOJ+yjB01xePXtffjtC2/KuR5R4sSS0cDvYGGJjevTSvKRk52ONikMsWosnPNgdemMshKsXj4PBXnZZuyVxK9IyC+91NaLvedFvUfV88y8XMy9ISROrRsCwZvPKYFn5CdqkYgDzlXV4IOPP0Vzazt6xBjTA6i+1IDqi7U4X30ZJ05fwEdHTmP/JyfxybGz+Pj4GXx87LQsnxF3/CwOHTmFDz46jt37j+L9/UewWwzCgUPHlat+ub5ZtVg7kjk+ZmSPNMufjV1ePHbfTVizfAFSYzBnkxaJ2JGZnoY6KWScqqpFlxj85AgEnreChpqFhLrGFlyUQki1iEV7Ryd8Xo9qEHe5nKoNJFzk1qFdPJKL4kEfO3kO7+4+hFde34N3P/hYDZjjO6xZmBkoZrzWLPCmp6Vg2/Ur1WtXz9c0qBcshSN8E14kqIZtHuDDiwmoaoO6ACPBuFhUX/m0Lpz6kBiuy0Xmao+IxEwtEnEBRYJVQY1NbepFPnxAOGCIfdxZL3y5vgUXLtXj/MU6VIlonJOHnXPY8MUrp+Tz5NmLOHnmoprR9Wx1LS7VNaKj06sGyQ32sEUCjUBAHuqy0mJ85ZG7UFyQE3UvgmiRiB0ORzLS3C5Uy2+r54uFxOBHmid4T2igm6SEf7bqkur1xLxYJfnysuS3OvGAm8QjYDWn1+ODV+5jpxQsOjo9kq+b1VTk1ZL21NkLqlCz58An2LX3MHZ9cFiWj+KYiAO9AnZxHercOKU9O90snj8D999xowjMWZw6X6tEJZzfE65IRD93RwlHUgKy3YnIcol7Jw8ly/0jhQ+xGhNhTuPBC8iR2aFpPNS6bAvrMdCMF7xvfGgoHG6nA6kS6GpzBKrPH0CXx68eQg56ouiziyDTMDiv8rCFCw0g82FuViq+KF5EeWmh6jqtmXjMnDENO7aswpyKqaq9kvc2UigUKl/J8umqy3hj92E89ewb+N7PnsV3f/oMfvR/nsdPfv0Kfv70Tvzy2dfxf37/uny+gZ/+9k/4+W9fwZO/ehHf//kf8J0f/w5P/vJ5/P6VXdi1/xguXm5U+ZrHHgrVhVe+f2pxHm69YR3Kpk2F3x9UwhVt4lYk5BqJMQDEk1IjkqMBBYHTb9ixpvEgnMeJF14zseDDyofKCuGUvEcCezOlup3YsLwSt960Hi49wnrCkp7qxpoVi7Bh9UIU5ueoUvloYIGEeU+1KbS0iydQg7f2fILfvvQOvv+rl/HNHz+D//6jp/E/nnwGT/5mJ5564R288tY+HPjkFC43tMIv7in3ZyFouJdXUQaoBfnZGbh+3SJsXr8Mnq5OlT9jQdyKBHGLOszMlRsaxcIazcfAEqV6b7bEJctDn5gUH91iNfEFq7o4vcOs8mm485ZNyJMHlHXTmokLx03cftM6rFsxX9U0sB10NDA3GAWVROXtprocyElNQWGGG8USpogHymWGLLcLGRLoEdvbx8LJUcyL6akurFw6R87/OmRlpJpbYkN8i4TYa853xOsXrceR3gSn8LiSKH6J5pqDBoTTgd9+01qsX73EjNVMdMqmTcGtN6zF4gWz0OqNz/dG2GHXa2pZ5exy3HPrJsydXWFuMVCTRkTZjsW1SHB8EmdVLUiT3x3FH67qtp2uflN4eNzpCCTp6gPNlXDw0tTifDx091bcc/v1ZqzmWmHl0nn4V4/eids3LVeNucEIxk+MJRQIzh21fmUlvvz527Bq2UJzS2yJa5GgLqRLof+22UBLQEpz0a5yYxWTOTo7NrV5mokM3Xr2GppeVoTP3rkVd9+2FQ7dUH3NwermhZUz8egDt2H79StUfX+8CQUFgo3S61fNx+fuuhFLF1Wq8x4L4lokCKfU3jBLFEIUIxaGfLQ9XjTXHsxn3cGg6gs/f245Hr73Ztx20wbkZMa27lczfqSkOLGgcjoeuvdW3LtjEy63eeDrDqiqnfHG123MPLt1/RI8ct928SDmI8U1drUecS8SjiRgVlEiNrPqTc42Fm94G/g+Cs3khcLAkJqagjtu2YA/f+RObN24HIX5WXQ8NdcovLepKS7Mm12GB+6+Ef/68buQl5Opej3Rq4hBz9JhofdAgSibko9H79+GRz97C1YsrkR6mttMMTbEvUjw5qW7EnHHPKNtIhYdStiYnSxfpI1A/MCGYk8goB6SWPT9tsPj83u6/N0oKczFmuWVePyBHXhEPIh1KxYgP5dzM5mJNdcsfP5TXA7MrJiKR+65EV9++A7ccN0y1UU2IHnEL4WH2OdFo6qLAlGUl4nrVi+Qgsod+OwdW7Fw/kykjbFAkLgXCcIHdFW5hClG9VNMvAkJ2g7EB4UFedi4ehE2rlqI6dMK4XIlwyMGvMPXrRqROZBotFmAx2B1QidHNCcloKK0AJvXLFZVDX923824/86tqgdJyjhOAU6DweoOnutwIdbwK6zvsgyl/fvtIdaGNNZwSo0pxfm459aNeFTywp3bN2D1skopLGQr2xMLseB180p+9ItA8Hs2ijjcdfN1Uli5BbfcsA6lU4vAd3QPB0+LbWkD78lgQXlIYTxJcTsthx0qPLvDJsjvOXIZaPdG36DzvdOz8oAVpUBxphmpGRdYWppVVoK5M0rVw5qTlYms7Exxs1PhdjkREA+jzetXo6z9waB4HSIc8vSy9DVU8Ad74JOHmx4DqxDcKQ7VT76ifApWLqnEjRtXYseNa7F6xULMmVWmpm0YT8+S03JwmpFuOV/1tjw5masFTi4ztSgXK5bMRXm0p+X46ISaO4vvh+4zQFJYs9YHBKfTgaULZsXttBzhwGtKo1xSlI+yqYUoLy1GdmY6kpIT4Zd819ZhtFnIpVBYxpZ/hwu8fhQZ9qTiIDrmS16zkqI8zJtTji3rlopArMealYswd1b5sJ0leKx2OZ/d+z7GBblPJJw8Q2+dzxin5aC3PBQJbW1tPO8JQV0H8JPdwM5PgebO6FY9tQeA7bOBL60FlohQaMYfeYbg8/nh9fnQ0dGJ8xdqcVIM5/HT1Thd04CAT4x+wC8PWwCJYvgTRCwCynD19UyxJlqT26veSOhyuJAm7mhZSa6axXXB3OmYXjENGRkZqv0rXvjNs69h3+FP5ffT0xne4Q+IwZpRXoKbt6xRDbDR4tNTVXh+5y655heUcQuHNHcKbtq8Ends22DGTHzEjqPT48HZsxfw/v5PsOfgCdQ1tsl198k98olgSuHDyn+yzEvFq0UTJfZYQcOtZh2WCPZM4sDdRM5Km5GKWaVFWLt4NpYumqPmBYuk3YHf29jchmeefx3HTl9U382pRoaD0+SvWjoX2yXPsDA2FBNKJMjxWuCb7wD7q+Tk5cyjVV+mRWLiIYVs1Nc3orm5GR2dXejq8qkH2eujJPBZTEB6qtELJCUlRVVjlZQUqamdx6j3oOYahe+avnipDkePncKZ8zVoaetCU0srWjt88Hp9qvMDiyqJIhVJYq85N5zTxVHWDqSnp0seTEFJcQGmTSnAovmzlMcSr0w4kSDPHAJ+cQA4JZ6VU27A8Jo5PFokNBrNaLhcz3ectIpABBAIdCMon4TTuXA8VmJCItxuFzIz0lXPqbEa5zBaJqRIdPqBlz42haIJSI1CNYEWCY1GM1rCadCmhzuRmJBON19ruqUSuH8pMD1XRCNo1P9pNBrNeGI1Cl8tTDQmpEjwOuemAjeKUDy8HJiXD3QZgxI1Go1GE0UmbPMdG4OK0sWjmAN8fiWwuFh7ExqNRhNtJnQfD7b7FGUAm2YBj60SwZBPCgW9iviankuj0WgmJhNaJAi7A3O6js0iEA+JUDwkXsXcfKPdwi+KEdTuhUaj0YyYCS8ShG0UaS5g2VSjd9IXRCyun2m81Y4jtbtFKKI+zbhGo9FMAq4JkbCgV5HlBu5YAjy2RryKZcDG6UC5iAVFhDrh6zFEQ6PRaDTDMyHHSYSLpxto7AQ+qgb2VgHH6oHLXZzCQDYGRCzMhoseuQJ6nIRGo9FcyTUtEnb8nMKhAzhVB3wsovHxJREMD+c9AbpENNokbBGv4+EVwMKp5k4ajUYzyZk0IjEQDoz0ivdQ2wa0iHfBUdxuJ1CRC+SlmYk0Go1mkjNpRYLwh9OTsGZsJOxWG83ZZTUajWYic001XEcKtYCikJxkvCaVQQuERqPR9DGpRUKj0Wg0V0eLhEaj0WiGRIuERqPRaIZEi4RGo9FohgD4v2Q99EMkynqTAAAAAElFTkSuQmCC;" parent="1" vertex="1">
                    <mxGeometry x="190.996666666667" y="569.0033333333334" width="393" height="148" as="geometry"/>
                </mxCell>
                <mxCell id="mV81zlIoAhPw-ZKS14NC-9" style="edgeStyle=orthogonalEdgeStyle;rounded=0;orthogonalLoop=1;jettySize=auto;html=1;strokeColor=#000000;strokeWidth=5;exitX=1;exitY=0.5;exitDx=0;exitDy=0;entryX=0;entryY=0.5;entryDx=0;entryDy=0;" parent="1" source="mV81zlIoAhPw-ZKS14NC-3" target="mV81zlIoAhPw-ZKS14NC-5" edge="1">
                    <mxGeometry relative="1" as="geometry">
                        <Array as="points">
                            <mxPoint x="345" y="1072"/>
                            <mxPoint x="345" y="1072"/>
                        </Array>
                    </mxGeometry>
                </mxCell>
                <mxCell id="mV81zlIoAhPw-ZKS14NC-3" value="" style="shape=image;verticalLabelPosition=bottom;labelBackgroundColor=default;verticalAlign=top;aspect=fixed;imageAspect=0;image=data:image/png,iVBORw0KGgoAAAANSUhEUgAAAY8AAACeCAYAAADKZ4ZtAAAAAXNSR0IArs4c6QAAAARnQU1BAACxjwv8YQUAAAAJcEhZcwAADsMAAA7DAcdvqGQAAJRfSURBVHhe7b0JgGVVeS28znjHmqt6ngegGRqkUQYhCKKEyBP59TeP+GJMeOapcUjUvKiJs1ETxURMNImaGJPI+/M0BENEECEIMgjNTDf0QM9zdXcNdz7Tv9Y+93YX0N1USdOCnFW16+x7hn323lW11v728G1rwcIlCTJkyJAhQ4YpwG4fM2TIkCFDhkkjE48MGTJkyDBlZOKRIUOGDBmmjEw8MmTIkCHDlJGJR4YMGTJkmDIy8ciQIUOGDFNGJh4ZMmTIkGHKyMQjQ4YMGTJMGZl4ZMiQIUOGKSMTjwwZMmTIMGVk4pEhQ4YMGaaMTDwyZMiQIcOUkYlHhgwZMmSYMjLxyJAhQ4YMU0YmHhkyZMiQYcrIxCNDhgwZMkwZ2WZQGTK8hPHk+jWwLKv9KcNLGQsXLW3HJofM8siQIUOGDFNGJh4ZMmTIkGHKyMQjQ4YMGTJMGZl4ZMiQIUOGKSMTjwwZMmTIMGVk4pEhQ4YMGaaMTDwyZMiQIcOUkYlHhgwZfmmgRWsRQ2w+ETqhDzEjE1e0KZ7wh87HvEFBnzs3mfMMnY+MRAw6mq9EibYvPu/QezrvM4WZEHROOZoY61xTTTAorya/RxeZeGTIkOGXBqLOBkOgWIdHQ/4IGKI2gUokdC7UkeQahEjCkPpBeeC1WA/xHJq8xqgIWek1EPJL8sEQBWk6zzOUHwlVnDCPfDszzNBiaPJzkzkJKA+dXCm7OjJvphbqPMFjzPsjicjRzW8mHhkyZPilgUXy9CgCcbNJfaAY2CRM30bDjVGxQtRIrTUrQcWLUfcsNH0XrZyH0PcQOy4iS3oSo5lz0Cy4aDiiaKULFOHATyzYIUPikYyf/5X5ZvW/5fBVPnPOfEYegshl4DH00ApsNKkNIfMk4yKKbN6TXg/jPGK7xHLlWQ/MrynF0UMmHhkyZPilgUVC9xMHBY+Eya8aW+wSjMjxyMG+aaMHSQSXX6LSMGyhNj6O+sgYwvEq3GZsnrdokdRaNbQaddhBwHM2rFh0aZO0AzQCtvqPUldQal2k4XDQFXPVpnBR5BRc14XvuSyrhxyz5vKyp6PjwFF5bYoIs1inuIxTARU/msh8W2XI8BLGL51vK7GZuvpJohGtjnocstVtk1htttvZOg9DWEHIzw7v4U1PLzvJ2bTQLTEtEzOEK9HgOVoyAdm5xXvUMVTidfcQ7DnV+ozj+BnPPPVzTGGJmAObb2TQNQmNLKuIgUfHorhRNAx0WeWQxcIPKoKC8mqKdxhM1bdVJh4ZMryE8UspHiRjDW6z+Z0eGeJGC7nYMq1xIxhkUvU61YIWxpo1jAcNVGlNSGwCkrHPp3rzBQx296HHL8KJSNuyPtjiD/lcU/foFRPqrlOPU63PI1kcBnGTojcO28uR/XMUAtkYeofyxGeZF/Ox81pZMayDxKJ0UEAP5ifHS6nAHCqPmXhkyJBh0vhlEw8RcSsK4biyNSyEFAeXhK+ZUxr+aDWb2DI+jMebu7B3fBTbhndj897d2FMbQzUOENKysHwXeVbJUL6EuQPTMa9nGuYW+7Gwexrmdw3B03hHtYm44CLxnkrGTz9OFk8XkImfrSRgSRpInBxC5NFQOcJ0DFxlUg50u8TC9yzkWFydtymdthXQOqkhDpsUvh6ezB82j5l4ZMiQYdL4pRMPfrWSGJ7lmFZ5rVozYpD4HnY3xrBqwzrcvfFRPFTZjGqrgbF6FaONGqpRC4HN5ykGluvASUKKRIyCm8NArox55Wk4qX8ezpi+CKcMzseMXDfgeaZLbCIZH46YJwuJxsRgYKUD+SM1YE+FYTzGaC1Es0ULS7PCaHlolpXDvPeUChjoctFfAvoKQJnGimdFsOI6hYP2FNMySU7IaweZeGTIkGHS+OUTD3Ipf4aNJnK2ixaJdRwBVu3djp9uXIX7Nq3B+pFt2BePsFVOAnVs2DYFw4wRKAXN1yIR2zHCuIlqECCiQBT8EnpRwLxcH85ZeDJWLFqGFd3z0OMUnkLEnfjPW6cd0dA4SCc+VrexYbeNbXur2LCnhp1jFMXYZy4pBup7owkSafiGZckz3100jKYVbczp9zB/yMfsAQu9XbRQNHRjRj8O5nMiMvHIkCHDpPFiEw+NYZD2Up4nsZoj8y8SE+nzg1m+4Y02jMWxx2vgts2P4eaHf4b7NjyOPXEDcYEsSmHwHRcehSPlVD7E7zQ9Eq1vI3JiNJIIIS2RxHHQrNURVVuY2zeEJXMW4Ffnn4ELZ52MOV63GZDXIHVIayVwEzMqkasFQIHN/2epX+Ua6ppSOWhixJamB0e0LoBde1ys3RzjsW1NjFTr2FdpohZS7Pw8XL8AxwySU2z4QnVbJa0W7KCJAtPrzSUUEB+LZvdg9nQPC4aA3iINEBWYWUqH0tP61KeFi47jcfJ4/sSj71Sc9cZLcPEJCzDYU0RR04zbCJoj2LFuNW6/6zrcfsd2M3PhpYpLP/VtXD5PsU249rc/iuufn99GhgyHxItNPEj9EN2bkYYoTmcPkQ1jtdYN+ysO+BWgZdXx3Z0r8Y8rb8K6bRvNgkC3XETsuUhqLTPY7bHlLuLPez5yuRxsNs8jtvprcYA6g1k4aMWwXAs2RUHE3gqbCIIW5sw8Hm878dW4dPrJmOn3suXvoIIWKm6ALpJxaV+VbD3QZuvDw8yGatXhOhYi5r0ShdhdB9Zsd7FylYVVG2OMsVw+C51zJExa8KdBct7MtG2X5eE7EztkfXhwrRychPXQasKK6uiiWPZ2F/ArSyycMDuPnm6mQz42c8aYjmZqaaLvwkXHm/xMFkdfPPrOxuXvuwIXL+jFBL04PCqbcP0/XYVr7xlpn3hpIROPDL9IvNjEQy1y0iXFQwv19M9imtBGOCJjiVAMmhZG7RZu3vwg/vbH/xfbx/fQSImQKxVRJwG3WiH67CJ83tvt5DCj3Id5QzMwrbfPCEmr0cTeygh21UZJ4mPYXtuPfXENcc5CvpiDFYZo1WvIO11Y1DsHbzzhHPzawhXoL3SjQqFJoqYRDzNqbeXTPB4WvCdpoVZhiTzKSD7AYxtH8Oj6EtZsy2Hz/n3YH1cQeT3I0wLKy1IKYhpOEbXDoQiUkM8XEFlNNKMxltOB6+Xg5wpmplUQ0lpiYJMdi0s1nDi3G8sWT8PcQRpFFCI7aVJwaLFYDhYtOinN0iRxVMWjeMF78eHfOAOznqYaQWUPdgzXQB2m5PVg/mDvUywRFWzHPd/GJ79220vOCsnEI8MvEi828aAtgISmhcQjnSarkPqdCrRegtaIXwvxcG8D7/yHz2HL7q0UCBexrJS8j0DrIsZJpD0zccZJy3H2yadhycBM5Fok0jqtkTCBpzUTvHfcCvDk2G48NLwR929fj9W7NmJfZT8830VXqYRGpYE6TZ8V05bgypMuZMv+NMQ2r4VsyVdbGO3xKSKSuiOB//C0cBqtGE1aNyOBjxvv2I17H3Wxp5ZDwx+FUw5QLk5n4RtwowYKFKgiRdBX0TUtOYjg5/MUDZ/phMarSkiR0cLIiIJjeQ4c5jnetxND+Rgns2F/6sIuLBiyUPZYoxS7kHV6/PGnp1maJI6aeAxe/jF8/LIlKLY/o7kHK3/8ffzL9beZvruno7j8Mrz51y/BebM7T9Sw8jvvwFdvan98iSATjwy/SLz4xjw0PhzCJcHb6m5JYuNOJFTrmUQe0cIYr+zDR267BjdsehAlFi0f00ohue7euRvz2IJ/81kX46xlK9CVy6PIlrpDolc3Vsly0V0socSgVei1qIWQ1oZcmWyqDeOn6x7Bj1fdgw20ZOKCB8+z0fRpBdUivHbGyfhf51yGUwcWwm4wX3zv9lyM6cZKehawUJEzip1BCTfcFuLe1RY27a8AJQpZsYBWlaJYqaFciDGz38aSOSUsmVvE9AEbeT+gtdFA2MijWfcwznt3j9SwdXgc20fqGA3YSi/0wCt1m/6xpF7BgDeG5XNcnHlCPxZO13LJFgWnjhOWntHO0OTg9Pb1f6Id//lxznvxmbecTJVNseex7+Fzn74atz64Cc3DmBLBrifw4C234F73eJy5pBtbbvpzfOm6fe2rLx0cd8HlWNaj2Cgev+5WrDFnM2Q4Nnjf+97zohIPk1O2tk0/PfMdhCG5l1aFWthsbY/Fdfxgw7345g+/ixytB7sRGItjfxJgZs8Q/t+TzsPrl74CgxSRQsuC24iRgyyJLrbeC6i0WiTePRgeG0Oz2YJdDdDdBKbbRcztHULfwADGnQRbxvYhKTlw2WKX0Aw3xilELs6ddTwsClGj7CEJydsUtCPXbkxrpYLxpIh7V7n4wR3j2FF1kRQDePkWfOQxPVfGivk5nL60h6JXxklzfAzmq8iHu5CP9qBsj6Lbb6C/EGF6D0OvjaEuD90sd04+rZj/1ngIq5BD4tD6ajQQtxrw7IQWTQHFAgXUtnH1l7/aztPkcBTE41S85X1vwrK2ATH64DfxkS/dSMVLPx8ZASqrfoLbfvIT3HLv9va5lxYy8Xhx4fVvuBz/+0MfwSvPPQ/z5s7Dli2bUasdwrR+keDFKB6JuqA0CM18yzWH3HXYjme6tNbu2oI/v+UaFLqKqO7Zj95yN2IKjUer4teWn4fLlpyFfrbQo2aMvE1qdnJmgL3eCtDUGEopj/xAH3LdXSiVyuj2CrQsAoQjVRR9H9NmzDCjzdVKHfsoGCEtAr+QR9WmdUChOql/Nrr6+jDK7A3FErQ034cDbSZUsB9rt/Tgh3fE2FwJEeSbKFJ8/CBBd9zAcdNrOGXePszubWKo0AIlDk5rnKJAcQtpgYUFxIHGNvbCTigqToDeoouhni70sQwuy5U06hijWKqeijkfcUTLiiLi+Q4GB334zOhXvvyVdq4mh+fcbeVd/jF85bIlZnA82HYz/uSPv43h9NLzAzOL6zJcetp8DLKCO0MnGldZt+4+3PT/XYeHd0zin7k4C8svvQKXvvJEzKNKy6GYkM4Eewg33vg93P3wZAbxe7HszVfi8sOkc/3112Dl6svwkW9dgsU8P/rg1/D+v7wrvYmYVLdV39m4+LcuwwXLhjCkaRJCHKBG83n1Izfj2u/cjMkUOcNzw/EnLKNwfLj9KcV1/34tvs/wYsWLrdtK0MI4h1aGplpFsjykI46L/fVx3PTgnfj9m/8Gi4ZmIahWYZHwLVoAv3L8Crx28RlY6A0gn/D/NJ8zk5VCptVsqc8/RuJqeq66vmJEFJMSW+kDJF+P5Bs26zQjXMTdOazfvwOPPPkEvrPxTmytDcMp5UwehkIfr1/0Cvzmr7wBbi3BDK879VZ4hOoNmfYWisBNt0e48b5xBD09zEOAckJSRwsLeqpYvghYNJMCQMK3wsCM9bgUPpsh4n2RuuX8kEJAMaG5Y1NQHbOwsITxZg6bdzWxdVcFj+520PIpjIUi+akGh0Jz/JwCzj2lB4sH+Pc9xXUez9HymIXLfuvNWGb6q0Zw599/HnfuNBeeBxQx800fwqfefSnOmd+PLirmxL5Exy9haMZSnHXRxXjF7BruvvfJww6+a2D/4x98Ky5aNgP9eaYz4ZfruHn0TFuAFWdfgledZOPhlatROVxCi9+I9336D3D5SYdP5+XnXoyTC6yUJQvQz/PNnffhxru3pjcRR7Y8ilj8lo/hU++6CKfNYEuIpvkBWA7/Abowa96puPC152J69CTuX/vS6/Y7lrjssssxb/789qcUg4NDuPmmG9ufXnx4sVkeGl9Wt5VlmvRa3xEbEVHX0fbdO3HXI/fjZ2ObULI944NqT3UcJ89YiNfPXYFTi7P5nI8xPtoiEWuAPQwjhK3QDKhrnmwcxoj52Y8sMyjftGLUff7fUjiaNkWkVkcfW/AnFAfxxMhObE9qiPjlBxFaFLJxWiAnzF2IE9x+2I0IZn7tEeo3IPE/udvFjffcj93ROKzSNOahBJdWwZKBAGcs9DGn26MgeLBkySSWsZRC5qtFVQwc5t+L0UQOTT6nqQSaPhBF2s+jSR6KKBZAuctGlfrXaumdtLSodhEFxtfgf85BX9HC1786Ncuj3U7+eXE+ls1sR3c/hGsfbMePOopY/p7P4TOXLkVPO8fB6HY8/OBtuP5HN+P6e1Zh82h6nrYQZr78rfizj76Ryv1MDF7xafzZb52Bmbn2idoebH7srjSdOx7C6uGDTfiepZfh4596J5YfmAUwAYuvwEc+dBmWl9uf4xp2bKTFonR+dBdW7hhpi5eHxRefb6yOqWLwig/jD18z/8AkhNEd63D3HUr/Ztz44LqDZfaGcNab34u3n3uojGY4GpDVcfyyZe1PB/HE6tXtWIZjAWmHZhAZBmUwHmYJh+S/szaCn+xegwHfQ4WkWmGrfigo4lemL8eswnS24z226l0SsU3DnULQihFQLKJE3mo9EyyStB1r7wwfLZJ1rUHxqPG+Fu8J9V422rwcSl1lnD9vGQacAkYqFYpPAt/1sD+oY/X2jbBzLuq2hvcbZq2I9p7SJybAQpBjoioJPsI4Of7OJ4C9zS5qzAzYVRfdzSYWdTVwPLl1sI/lo0g0GwHvZ1xjGAyxyqAFhSSZWG5Kai1aWnU0qhHv1V4eZb6paCYVlPIJpvWy/TrDRq8zRlEbM914rltCleXbtGOYHHJ4gTscnpvlcc7FuHzFDGgm8+j6H+P7d21Kzx9leK/9AD588Tzj6RLxCFZ+7y/xmauvwZ13P4DHH3kIj993B2774bW4eUc/Tj5tAXr4O/b6F+P40irc9siE1vjiK/GR3znVWACUH2y+4+/wJ5/+Jm6+8740nfvvwp03XY8bnogx85QTMYsFc4pzsWzuPtzCsvHX3sYsXPr7V+Kc/tQSqG27DV/+xKfxrz+8C48pnUfuw70/vgE3Tking0lbHpqE8OsnpsIxugrf+vJH8fX/czPuv1/pP4TH7r6NZb4R94aLsOLEIf4O8phzygmo/Pg2bJjUeFOGyWBwcBDvfu/7cNkbLjdjGw+sXHnA+hgeHsY/fPPr2ZjHMYQRD+ZXXm41FB11GvZBgAd2b8I1j9+BLpL2qK/V2jaWOdNw8dIz0VceQFOiY5P8+Y8sq0L/0LEEiG1oDbZbJFSlmlBMtF+f9u5TXGKjRXeUFbjql2YyLb6jt1DAyu3r8Pi+Hch5HgqOb/I26HfhlXNPUUrwbO1BSDJXO13cz5jFhqZ2BwySHHaO2vj3lVtQCwYoUIPwQwqeP4YTZkRYMN1BwafwRAGfi/hulttlqrQ6BDmalzWS0BKiCcWKkRNEWmWaQWbnWVS1kFlLlrqxQriOh9HRGkbHI8RWGY689CYUt2AUJy7uwz/89bG0POb0wvAeUdu/th07POa99q24/C2TCZfADAMYnIq3XHIiSiY+grv//sP46vWrDtklVbvnm/jk52/DDvPJw7xX/QYuTB8kirjwN85BaigFWH/j5/DJb9yFQ/3bB6uvw1c/fA1Wti/2LH893nxaGje44K147XwjZbS4bsMn//ibWL0//TgRJp2rb8D6KZM5xelXT03rNtiEa6/+PG5ffaic0tq5/vP47G170o/eEpz3pllpPMNzgkRDg+N/9sUvGatDYxt/9MH34+8pFjp2ggQkw7FDR+es9oB5JzRaLYxVxknUFARZEyRT3TowMIh8Lmc2SJKXXa0RMc/rMSahgXcTTDK81g7ydWWCpgDTgtEAc0QLQhaGVrMnCUWi2IPZpQGUSdJNvq8SNo2jxR37hlGlneMqj0qOwmTSV960LkOiZfEZKt+O4QYq45SGiNaEpmdZDXR3W+jqkgDwnTJZJGBMIM3jwaDEjf8rU2qlz5OMShBD5kdB8fSyhZ4uD9P68vDtFlr1MZYl4DttNAIbW36O4YbnJh5TxPJzL8Klr5lcOK+z2PGci7C8L43WVt+Af7zDLDU8PNZ/E39370haXyTTs17fVo/iZThrcXuwefed+Ltr1qXxw6F2A77+o3VtkRrCiledbWLCWa9Y0hazGlbe8M0jTxBYfw3+7p7d7Q+TxOyLsGJemtfauvvwcP5EzDvp8KH4wDpsNndToBed345lmCw6QqEwUTRkbTzx+GojEhMHxSUYmWj8YiBuN//bhrlMjLBQbzYwMkZC1Dl+awxDZDptcBqtgjxb3jQXzHkKA4/idTkKdBy25lOD5CAx87yui7BllYmc5bJEaUYMjJK0SSkJG6jlQfR4RTRI1DWKS7XVxNa9u7CB1ojERyJDU8G8O9Ul/XAR20WMNkgPWyuoVX3el+c9Gsupoa/XRm8P7Qqb5E/xsEjwypME04iIyZeK3U5UiQvpSZPHFi2xgEFilVaWjZKfUDxcFD1eq+0zg+ZmC/fYx4Yd2mx3alCqPz+2jqDT7V7sm9pI/ZFRAkXdYN6ps9rWTYDVD/yQev7s2Pxfq7GnXZ8z5/1KGnnN0gPWzA6K0GT+9YNrH8K6ttXQM+vEdj5OxOLBtghV1uKOW9PokTB813q0bYPJ4Yz5bQuJ9brsjfj4H37oyOH3zz5oqQ3OwjN75jMcDq8877wDQqHQiUsc/vzznzMhE4oXIAxnarjcDJmz5R+gUtfgtbZhlZMRdUzZ6O7qIQkfFA6RsWAEQsLhKrSFwk7YumfgUYIiYUm79CgfshiMcDDOl5DnEdZamJHvRa9fpnhEaPFe3bNrfAR3r32E1gXvk2gpBb2WeTDkT0ulxfjOMeCJrVWEcYHnmGe9H3VaCBa6yywBLY/ODoKpaKT5VpaeGiiIjOg+fkotjyCieKSWkhEwnld3WQ9bvd1FZiWoolmtoNXUbLUido2oo25qeG7icef2AyTcM2PJgS6sw+H6j70VV77t8OHrqzv9O3uw4840Vsp1+p1GMLyqHX02PDaC8Xa0WOptRzrTegNs3zbZNSW7MdoR5GIv0g6hHhS1U4wwugeTGi5lfvh3MnkcyGuG5xuvfOW57dhBdKwNHTO8OCB+lIsS7VHu2vz/cX3TYtdiQiMaDHLjoe4nw+KW1opQICgcLk0QCYUtX0/GEkmD4oaw2//uHVfpaswrVJsBuvJdKNHyaFE0NO2W/G+6r+7Z8DgafEdE8eApUjeDURBFPIzR6tiwE9iyN4KTy6X5oJBZVoBCDsi5mjclP17p+w9aHAwmngqK+WyC9hXRuI0tTUVouu4orUY4CJ1rVVEid/V3F+DbMZr1ChpaMJi4GNcOU1PEcxMP3IbV6QADMO1UXD5xXGDKOBUnzOi06EewPo295LH+xkML7WHDu6+anKBlyPAihSEtcaKYXS1t/nQ8Dz5ZN6Q4aDqrxjjE8I1601gbGkiOaR2kLXESpVr0bLE7FA4jEhIOJmeEw6WYKDxNQEjReqkhZ6XT9FyzANG204F2s/4kssymUprGuyeqmuvib95CpCaLJGEfW7frtlcx0srDzbEMvMfjO12m48lqMmMVSlWlawue3mKsDOUnPaZdbhIUHpUXCQi/UqFLBaEzrVl147oOyqUC8jnmOQooMi1aKCGamr87RSjV54DtuP5nnXGBXpz1/771kNNjJ4WJYxubHjpAgNVmZ4yjF4MntqPPhpN6D7hKqVXbC/1qQTufHmbNnuyg8jT0HJjSO8LSCqOodVS6Z2hyXUTMT3c7OikcyKv646fmbybD1HDdv/97O3YQGiBX95W6tDK8wNDhuPaRckBrg6SY81Hs7jJrLZrNJgnTMQRfGRs3JEopMKRvBsz5rDq7UgKWtUFqFfkqMC5LpCMaGhcxrXyytBmkJzQGohZ9UPCxY1R80DKuTRwqQIFBQjCcNLFy3WNmPYleKYuE6iXVQauVYNfeEFt3VWHl+vmSKvPdMHnR4j47JrEHlADm0+aPOBEbMAFeF0y+Tb6UR4od89URCEZ4lMBJQHRK0wTSuHHmrtWMvO65FFvXhccCRkGT1yVQU0NaG88BwbXX4fZ235U3+yJ85PfPn3qXS/F8vP3X27OLMIKVP7rZxITND21vj6t4WPayX02n6z4L5r1qGYZUh8SOzT9JIz9ae2BQeeaySyYlct7lp2JJuzCj21e187EK64fb1F5einMvSKNHwuDZizHUjk8K903oDlx0zoSZZ4dDET0z291zGaaETheVZlMpaIxDR+F3rny7WVGuQfQMLwyou0jQGIQYUWMeEhCXVkChUEBoyLllWu5qfdfrJGV+GXcmHRLlj/RJiQevtjlXBGwIWa1585nX2gRtdh1UEGWSmCVILc/B1r27UanVkMvloY2lfIkW063ZIR5YswqBRqRTzmdLPzLi1Qoi7B+tYt9YE24+z/zX2PKvmPI47em3LEYbzCU/KK8mobaACGme2/lvn0g/p4KRxnUltZaUuiwMvV/nc75nQkRRs9rTf6eC5ywewEP4l3++68CAcM9pV+LTf3gZZk52vVrfRXjbp96Ks9oDJsH6H+NfJi42vPNmPNyeBlsk6f/WuQfm3h4ai6/E7768N63MYB3u/n7bcqldh7s7c2annYPfvWJJGj8cipfg7a9J3a5oDGblfx10KXI3ra001SJWXHLlkYVo8RX43TOntT9MEttuwMpOd2DfGfjd3z5yXr1z34mPf+5qfOVzH8B5HSdjGSYNDYhrNpWCxETHL3z+s0ZEZIX84Yc+YmZgdSAxyQRlIvR/pf8ITSfX3hHptBZDWOL4Tq+Lua5rhskmBA3W8jndLA4LeFK3KVk9T3pt8sQ4n488bQZFi0PP8P4cm/laf+GQvOcU+7GC/421sosyGSBsjuPxYDs2sSkWjezHjBotg1wZo56POCggCl3jWJF0SsFowXFJ5naTVkID+ShEKUyQZ1aoS2ZtXuxoUSHtHObNCT1saY1ibbAX+6sjKNSbZr1bjVZCUWs+mJ8fVjfxGnNuU8zqAfPuIPATbBkN8OjObpL4dFSsXWjEBVoARVgk9mLOxWh9FGNhEw2b+WOqiaX/aZY6UbcWrQaKlEsRSfiu2GLaOYmndkaswvdDOGxhxx4tCmbasn04To5PUyR4f5P1Vg8dWms9LBObtHEePXkf89pr1qaCo+NVd+d9eNA6Ba88od+QbWnaibjwonP5y2xizYbDeNaVj6r/8W68/3+ej+NK7Yzvvw9/9ZlvY8dT7t+Fx5LjccEpQ8bD5JzTmG60CQ+u2WP+ziaieOaV+Mh7z8cck1yAzbd8Dd9a2VkkGGDDtiG84vwF6GJV9i85By8b3IN7799q/kYnwlt2Gd7xoTdjRbvva/Th/4MvXzthkeDGnXDOOBvLuvmi0gK88hQbD973TDcmJp3fez1OmsDnk1skyD/6+ly8asUs8wfZteDweR38tQ/hT95yCvqpll6Xg333/Sceed5cxLx0oIV/Tzz+OO6843YMDgziNRdffMAZ4u+8/XfxstNXmPgDD9zffuLFiaOzSJDPk9jIYjxqpTb/L3hK3TcR/2JFcOqDEc3L2ZNaxfruhHSVuJ26VecTWp5H6udRypLOmlK3k5bp6X6dUSvedCfpBC0DdUzVG3Vs2rQRT2AfPG2WxKcbbLVPL/dhUXEIZSuPUbayx8MAdjM0/f8aJ3F9h3lIp+MqL/KTRTZGwHiD96vrSf6uzHhJpAF5Wjn5Au7cuwZ3bXgUw9X9Jg2Nkeg+j6156d/uZgWvW/gyDHZ1o5C4RqQazPOj22LcuTpEo1lAYI8wnznk3QJs7SVC8eoqhejtslGmkLi0cixVCX/o9+SyrPJtpUWGMYNsEmYLMUUNqhPm3XIZeDQzyVjvjvxdsT6ZBYy3XGzcEWPnCK0bp6xiouw3sXR2F374f6fmVffYbwbFP4DBmRMc/LURDN+Fr37sa3j4UGvh2MJf/p7P4X0r2oMihNyTrN6wFpv3kE67Z2H5CSdi3oTpXrX11+GTn/7eM6bkyj3Jxy8+6PLDuCfZsA4Pb2fuCkNYfMJSLBs8yPaHzZdxT3IJOktHjHuSzWvx8No9/HcpYebJy7B8Zns3xeE92DPIMjM6FceIyutnmNcDNTUxryrzcUsxr69zNV34+NlnW7+S4eeCLA1ZIE+3OGSdvOQdI7b/Zs2BPzRALOZmO52hzlNy2MeWbkxhMa9iM8wwom5rzxJiXBMbJR+kYMZIljElIfLhxkYiTNpNX+TNT0F7+1RG5bUj5LntI8P43u034s9X/wf6+S5PK6ppEbxi/in478suwBJ/BupNvoHkWmLrXdvKqpWuwAY6CTfNi/zGycNuQKHQe6geSAKNV/BeCRYtC937Vw//B25edx8qSR1ukcxMoTKbUeXzFKgQI80G/uK1v4H/tvhXMMcrM51xbIw8fP+RFhuQVeZvGi2YOgIvRMHvRdgI4MX7sWRmguULc1jQTUuJFkgUtkBDBzkKVImCktMuUBI7mnQB86mNnCQ80ttQAqeyMY9mwJ/WhvbrcHh/QMHbsDvG/aua2LTbp9b3oFyM0O2N4KJXzMebX31MHSM+FcHGe3DrHWyVk4AX9ubV/jCQ08Ke3l4MmfA0B38k3dW3fgOf+cK12Pr0ZvUBBNj1s5+YvT9WLBmAZso6+S5Mn7EAxy1ehOPmDNH0at/Ke3fc+y/4+Bf/88AalImoPXorbhudi5ctm4UuzYDwmLdpc9N05s3A0IQtDkfXXofPfu7bWH8oQdv/KG5fZWPhihMwXQMxloeu3hlYonQWz8WsrrT8wfB9+Ns/XYe5v7p0yo4Ra4/eg5XuCSxzvynzU/KqMhfa9SiXLf/3Knzp2kw4ni/IEikWizjhhKdOkdi7Z/hFbX0cFcuDj0sU1HrXZFlYAU+lg9R2kmcowo0YJ/lq4NimTGg9g9kCleRnFsEpkASVFzPdlBZKrMV0TF7SYfrX+Y6IomPGL0w6PMH7zXVGtaK70qrjP564m//H3YhoXbQkXyT1XLGE7lI3evMllKkWFsmWDXeGxIwvyE+UfEcFkc1goUoil98rn003h2ZEwrQ8ErLXVcDuxjge3fokhWMltjdoOcjbLv8V4yg0guY4DgKmq21xu/IRXj79ZRjKs0HK9FbtTvBfT7awYx8JnekNBd0Uvhp8Wh4tEr9WsRfzLvrIQz1egpLFNCmkDVMvLLPKy8JqZpVFCyh1q+LAdXKsBxctWlUmH05s9il3ebRVZ3x2X1jAk7tCbNujrquc2RGx6LfQX2zi9BP68K2/nZp7kqMqHgaNrXj8v27A9bc9id1ligV/aabSJ+iFVjbu3rUW9/74+/jKX/01br3vmd0xz0S698eNP1G60zCrvwv5CZ51Zd2s4fXvfPkvcM0tTxwxPYncLbfcg40WrYFpA6mHXlauudYcwbYn7sG//vOX8M3vPnB4j7rC/tW45we3Yq0/C9Ofng4to3tv+Wd88S++h82NU3DeG6YuHmmZb2OZd6I5Yxr6y6VDlvkf//wLuGGiD68Mzwv2Dg/jNa+9uP0pxc0334QtmztTMV58OBriQcpj0D+KBl5JXCR2Q+kkYcvsN8FLze0M/OsOFB5D3FrF8ARJeQOs1kZYzS28bz9b4lU+L8LLMRERJPPmMF1n3ITIohhJXGLew/cYRtWBwad4qJvpprX3o+j6xl1JrqtEK6CJClvvclMyvasX3W4eCcVDuxG6sjQkHC2WoKnBdrbmWzHiegCXVorPYlkUDpN+dxGNoo2VO9bixgd+iifGtiHMU8hyNkJ1DVEscuo2YrpmDxG+b6y+CxcsPJfv7YEb+LjryRA/3UJh4nV15Q02iwjdFlWB9gEtCdu1Ucj7ULswT6uh7ESG5Bu8rkEkrVMxA++MpzOqJKusD5YhiVnrvE2zsZJEg0bMkywlimVCIV43nGDDrgijVYlOwVgwBaeChTN8nLywC1/7q2O8n0eGSWD2lfjMn55vVo0/vdsqw4sLmr6rhYUDg0P46R23v6i7rISj0W0l4TBdUyiQiElm6nUy3SjbSdJb2KLfjbhxH8ViLe2ACoPciMicV9PfIzFTEPhs0Z1HgZhDll5MQj6eYT4SvzfdY0PeafmMm/SxgcaWfiiyJm2mbGmIVTnZNr4XH73l21j5+MNm0LlvqB/D4xV4bg7H9c3FeTOW4ezZJ2I6G6ChBrEbJFkKhOOoK0r7foty2WpnGXxlT2MLcntOkajQiniiuhM/euwe3P7oSgQ5C35PES2qY0grqmC6wzyz3iPU2g+KQK26HV+65A9x0eLT4e7y8U931fCDLQ3YeWabVsKs/dMRlCpoqVuJYpLL52gJ+Bhw6piVGzf7bAz1Mx2NGcW06BjkZtFlnbh8n63xDQqEZgEz6/BzWpTYRCuoUzCYv0IXQhaqWm3hp0/WsXW/R8uKlqCTR94L0O3txbmnTseKxWUcd2z383hpw1t2EV42fyd2PHWE/xnwLr0cVyxJp9Juu/8ruP0xE83wIoSsjJ/ecYfZw0MD6i92HD2vuiQxMa/+FdTorbBVXrkDzep/oNm4DlZ9PbxmPbUsggY8kr8fsWUfs7XO4MVq8T9MgVkDO9gBK6AlHVVgqTUuInbkYryLbyHp6nX8IdI0lgmDaYnTGtFYRIPk+sOf3Q6rt0hLgHlqMkM8Pzw+guFRpuuyhZ530LTT1d2+nzfCYRKm9jmejRwtF703ZOu8WbCwK6ngZ1tX4/oHbsP9259ANRcwbZ8kzHvMVNcERZ9pMU8SDzPgTuGRRTCjp4yF05Zg00YfD60Lsa9B2eS7PVofYYN59lyKY5MWQoBiwUPBo6UQULCCFiwNeuc1fqGxIGVPNl1aAe3Zyiw3z9IKkWuVOJZwNFlXFI5SD9Puxc59ER7fuA/rdrbQTNQTpOAg77cw2BPj5CVD6KOYXT3FnQQz8fh5MO0yvP2Tf4B3vPYMvJxNgwdvuu+Q4ysGxfNx5e9ciDlmseF23Pmtm/F4x3dKhgy/YBwV8VDXiSEwNtdDWhm1+9AY+xFa47eSuO+nUGyiaNRIpC2GJlvPpDbeysY0A9lPm1JEDba8NWTegJPsY6t8C5/dyLCrPZZA4SAR6n513WjRHtndzOiSzZHO7CLB8lye16594HbUuzy4TRJyM6EgOBhPAuwLamx978L6HRvR8oDeoQEUu7pRazWxj+JSbdVoPEXm3t0Uuq3BCP9ft+GeHY/jtvX345EdazBuNZDvzcMPNcrg8N3qZqMAUqDkaVBC5heKqDabKNu9aNDyOmHmcjyxvsjGh7qUWCyqbN7KoeEGLC8tLx49r0HhoB1G4VJ9arMquTgJea+X1CkHFAQKjc+ymIF7dX1RSjS6ZFysMA8hhUNilrAOQquAveM21m6pYN3mCipBHo7fRetE+3xEKPgBFswuYjHJqcCkMvE4FqhGWPLqV2NJmX+xxbl4xcv7sebuB7D/6QZI39l480d+G68akEHJRtn6m/Dl65+QsZ4hwwsCR0c8GCgGUUxCDm5EtfqvqFVupA6sRynx4Fvz4Lg52J66W3wSnxwBlsj9bPF3up2UBX8pXO3AZ1eZ2CYy7FpEzW1mtpHL+y2XASWSoywMDRRbjGujJX4mmcoCkddauxXili2rsCUcRY7xbs1C4j12fxlhyUclaZmupnVbN+GhRx/D5s1bzRTbYqmAhLw91hjHxrG9WL1vO+7ZuAo3PnIXfrJmJfZEo+idPYhiT55lHKMlRaHyZLWQ6ymcFkUtptWhWV7Fnh5Umg30WIMYrq3FcQOnYMOWfoztklUD1GlJaDA+6CIbNGix5PRc3fic8m3Wle0bI64Sy31IBb4G5lnPeYpHjkHOHiUmmqkgMYpZR1ovUyjkUSrTSqOgb9kxhkfX7MTW3SGFpBduoYe/h4KxlsA6KNDyOH5xP6b3AGrbTlU8sjGPnxeHmKq7ef1arN7Ynqp74hIsmzmEohoHwuhD+PKHrzrMVOQMGX4xeLYxD5GDGjsOhtvTVWcgJMEGbLk2SaZ+1I+SbqiPoln7KEXjG/DGlrNVvpRkvxpePEKWaSBUa97Mie0h2fbzWi/jBZO6xktEfEV/FGF9P5JmlXFSY04tcBetpo/YGUCuNBtWz18ABSoVyVbet2OUTSZtrSUxCuaiMgZ86b/+D/559a0Iiy68eoJeteadJsasEbRI3C66TRdXK4xRrTcoULIcfBJzzrTqJQaa+ZTWAK0F1pEmw5i90/nZuDqX5qnuTNcZvxk6K9J1s55sYju63TmYHf8miuPn0gJr0sqgNcW8IxlA4lXgxA4FhZZAXlN249SCYYIRhSGiBcLMwKVlZrUaKJJdZpR9zB4qmb05clpaI5mxaXUkjtlqdngkxs69AXaNBKi0HL6jAI/WRoj9yHcXadTQSgn24/S5Pl738j6UbFp8fOfCRZP1/5QiE4/nAG/ZG/Gu35uwFe1hEAw/hH/52lW4PfP2mOEFhsmLh6wBxpIuhGy4aog8jqvw4xy8Wg2tvTciaH2DTeUtyJH0LAyaNQiJvRleMBNJ7kyE+YUkuW4kTi/Pd0EbIoEkrZlBEpBcvIXv0HTzNXCtnSR47WeRQ0RBUFeSk4vR6FqGgvM6uPnXUkAoQMyLer6oASxHg63qGqJWCdeuuxOf/s9voqI1EY2EFkCerW61+JtosnVPSYGtxXx8W63Ocy3GNOXVssnDqXjI35NmK0lMOt1EZoZXG5qaLAHhiykaPChQNCQerAJTry3sQI99MgaCN6BcP8OM7dj2Pl6UM8Ue0+Nn1pEzn8V8TMuCeXMoqEwgpHDEFATaTKarLqiOI6Iy5qI6Sm6CQo6Cx/vl/8qitZNYHpqhhXrLNqvIW4kLy/fhFvk7ysvLcIh8ocT7YnSxnl6xqIjzlxVoAWXi8QtCL5a9+Uq87hVLsaS/CO1SaRAE2DO8FvffegOuv+khM7ckQ4YXGiYnHjEc41CPIHtq3wqdd7UALdxH4bgD1Z3fQy7YgnwwTjIj0bGh3yA5h6C1EJ4EO38mEopHYpG87DKFg0dKktaFJHGTxwC5VhWetQO2s5qGyCOIWxthx7RuHFoZbB0nSQ1VrwbfX0GifRPg/yrDIEWETzsjCCMSZFRCnsT4SLgT7/nmZ7GZlowMkgIoHhSrlhkLYHm0LWue4uXSsonkVTYiQbNUFEiz9sNYHakAdIRDK7ulFx0cXjwYUZznY4yiOz4HveGvoBQshksxtClyltvgDTlqZzfvH0cp76FctIwrdq2u174g6d7qVDwnRwPMQdRooFWpIBgfQ9ioMo8tIxzGiaPFCqcM6GlLHoFZ936JElmgIGpml5IJ5X8rR4EMMafPxplLy1g2g09ZrFvmddHizg58k0MmHhkyvITx7OIh6YhgNdlSV4+N22I7lVZAXIAbkwCrbBgNX4Nw700oNfvgJCRrXqsVXTR6BhA7JHj7JIR2D60H+WnKQ7vo6WjYVmkzRRGmG1jwE49p1JG01lJA7mYr/F4U3C3wKFRmhNut8glN311MQToVbvlUoLQUiTsTrbgM6gDybJnvLlj44+99Gbeu+Rm51yJherRItPCwQBZVeWtsjecMyWrfcY2daJaU2fNDg94qO/OnHEo4VEeKy6bqQHWjj7qm7iqNfZijuq3a4uHGDsrhRehOTmK++lnGnjRNj/WkSDgDtjuCcsFHF+vMZxpJLFfpzItmAWhasmZ9KarBDQpcSBFp1hma/E1I7CQZtDIoGWZVuevbyOVt+Cyq51NcXFYKBd3j70B7sZf5OzxpfhdecVwO/dScnN0y7lSOWzo18VD2M2TIkOGQEFUqqIs/hcg+ptVBtmnuRTTyCKKxNcgnDXLyKC+XSHQ+xWIxSe+/IS6eibB0CuLcTCRsQSckwpikqhlKMQktsdnCJwup9RwWqqiTzGrWPFoSZ7Nhfj4s/1SKziC0YRGb6Hz/HDjGrFmNZuO7qDf+CWH9FgrLVgpMU+v1YIcFFGlpvGzB2bRm2LJPaGGQlAOKlPYJN25NmP10fw9Nak31xBgMtCY05KB9PrRSPHXFTkHQTYSpD/5IQ1tKzElF0qM53/6ci2fBjygQFFTZcCJ6dVTpBovl122ahsvXGIvFuFaXxREzqO9L0Gy0ZoX836SYJsgX8yh2lVEsd1MAS8wj02a9aoGhn/OQz/vI+74ZkHdDD15AuyvsosBQfJlW2Q8xrctCF6tF3YZa0Hjw9zt5MKcZMmTIcDhoZQFJRzxGtlD/uzy0IqrR6tiA1shDSMb3wKFoaF8KuDkaHnOR5M+leLwGgb0ALauLz6tLt0iSzsOKSZ5qSmvAgdYGNKjbdE3/f+DU0HLHEeZppeRPZuv/IrRa56DRGuK7xzUCbQjPp4i5Lba8xzagPvojcuv3YLfuokW0h/mIkGfaL5t7Ggbd6bBC3k2xk68tbe2ao1J0BMSsDWFEwiHR0G5+PlvucppoNorihY7loWDEof1lYFQiDamYtM+bzxrXnw8/7mWLX+M76qajgBjR0Gwppd+idcBPzJPuT1eNp8Gky5PMkplK62sMhuSvJZMmnzkHBZoqecVZZp8WRt5PUKSCFpj/HK2tPAoo2X3o1iy2xGe5YwyUbAzx10WDjKCAq3w/hxRM/YkMGTK8pEC+geO1SO4UB7aa2b5F0hpBUHkcSW0NLYEKoqCEJsmpWQpofJyJqHghWrk+BBSVmCQfU2zCSP6i0tXPjWYVtRotjUoNjQo/V5sIqz1mpXTo7ETg7abwdCGMX85zr+ZzJ6BKoQm1/oPWAzADObbo3UaAeHwVwtFbkIzdBNR/ymtrmcNRzO/txqKh2XApVtqW1aYYeCRjR+VRK1+Fo6iol0nrJBQ8EbGno9ZS0PIw1oDuNHfzZ/vIc+a0iach/TAhzg+5SI5NtYKeghlTEI14SAFd1ivP23UjAjQcmBVejWmbxHqL8pe+TdaIwxJJXcMgRjNosV6lvLHJb4HPy22RBEUWjGNLDLXmRc/yBNOSvRNTkPIUxum9BQyWmSP5FtMvl9e1IHKqyMQjQ4YMh4dYh8FyKjyMMpCMyDcBxaNVX89G/g7k2JqPJBwkoHq+gGZhOYVjKZq+XIrsZ4u5ijgIUGuGZt/vaqNlHA/WGiFq9ZhHC/W6TSumB1GVYhNFaERjqIZVtFCC7S0hiZ5CsVmKBlvXQZJng5kBDbaeKyiGtCZqDSSjjwKj11LQfkwGXcPW+j4cP38WilqxremuWjUek4Dlrl0te03TUtlEzrIwqCLOhKC1Iwc2gTKikKpC58hYO975fBCdW9xoJlv7tDJoddCUonCw8uwGr3g8V2C91uF5rnlfLPEwA/Z6kuLB9yvpmHluhB6DjwaFsBnxM+/TCnbN5LUpdjbLltgF2SS0r+TqJETEumq5LdSTGsYDLUsMUcz7GOwpoLvAvCcNIzL6FetVU0UmHhkyZDgiNLwhnyNqCxteI6LWblofmk6rBXw+SZAC4kUktLPQ9PrRdGiBkOhieyefI5GFXWi0etBsddOK6KY1QSsj7mXaA0xtkAQ2iFbDRdQs0FLpQtAkQQbjCK0RgK1luAsoWGfBCZfzmQaJ8Akeh5mjkhkI9tiat1s70Bpdj7ERikfrIVohD+GkWWUUiyRWsrlLgUsCB2GL1kpMkmbBNAitFe8qpOIqq6FTkjb53AiK4XCpgQRBoY30lGZlaVqvLkggVFnyu+Xxff1wkl7GaWWoT05HPST3wnxS9oSm5bpKXzXLfChf+uIDvIfgQR1rsZ2j3hRg50pwfB4ZLG3GYUwNipOn1eO8piPPOzkKkjyEF20aPBFDi/XURG/RRbmg/DDPWqnfec+Eck0WmXhkyJDhsNCEH3I6I2WS8UxDlRZbzk51JfI1Ckg0gJAi4YX7SPqLYUe/RQGRO/RdKGgwtrYIu6t5jDTVXdViy1r7SwQkTZKZy3R8WjTeGCJ/FFFpHwK/RrIkqcqNOwk3oPUx3mygas2A1XMu7J174e9N4LX6mY8eigrJ0U7FQAzo2zVaIvcBW29EsvdruKg4jFKXHB5aSCoaMCapl9tdVbIsSPYxraGwJtcp5Gqe0+wmiy1yj4Loak0I+VndQxoD0VRcPSyt0L4i6naKaVklGs+Ii0ygxXeMIBf2obdxKXxX03FpUcUOCb8B1yexWxr7aSKXq6Kc62ZZQri0nmxmQF6JE77TTCigcphNqBLaEk6N6Y9TFMdgB3X4EZ8h70urmrJCYu1vEqHkhJTTJvxY030tVGhl1cOQ77Ixy92JEwYCDPVK3iikKBoxc7VDY6wuyakhE48MGTI8OzprGox8kNBITgqKq1WvLU8VRLxam6CBdRGbcReix/m8CNmECXGl2zknQpd/Jg1g60u9SqRUhEqbJBw5OVofFq0SJqhgFpVbtBzMG/i+tPUuUm0leylqmqH0KI7z9yDPxEN5ofVaJE51GxHMm6yPDg7GOkjz14HymEKWAd+nTTxoYcizr0gfWi/B9KwkB4di61AA9YixUPSDeVTZTIw/ZNWYja3amJgXQZ87p55+rYM0LYmYZcZp1AWmbrhAXo1ZdwVaKjnWW0SB7Crl0d2VB6vBPGjWqcgiMhYTwxSRiUeGDBmeHWzVpmwRs5XaIjk12LJlaz1RS5kE7+RJ7nnEDJqqG2llNMlcIqCuHQ3ZqtFuAtM5EJ8QtMBWx1Q80qdooyDQ4j67QPIvIwgcNBsWGtWE1oKFuMGHQpKnDA+pDYNF66KRDDNvNVpCd+Gc/BZ0keAD24cl8bC0z/pBGJLmF2PpiaeA5zRO0RYOIyAka3M04xha9Kc1MCGPdd5GEYx7KB5DzHmvIXfN1jJWit5CC0Er1yUemgqsMBEmHxKK9HWHxcE8q774DiZjerFoiZn9RCiqTuKns6408B9EmNZfRm+vz7woT3zO9McxUAATTYWeIvhkhgyTRPEMXPrHV+FLf3s1PviWMzRhM8NLBiLQ9CiLI4o0pqGhWU31JNGTuWLHR0zhiGOX19prByggmtGjGUCajmq2RiVzGQE58DmNSzxckrKITeSoBd/y1xSSnEMKiARK04bjkOfI/0GVQsZj0uKD6l8zZMp4UDYCl2O+3HgNzijswzQSaKhn1S0l5m7fnbbuO6F90kARUwDzSXE9plZ+56jJA4kGvmV5aMcrrRynZLjRNHjxDHhJNx9n+Xi/ymxey5dIdzRArj05dDQvNi/XdfPN0P6s2ITrqQWTXjfnCa1DUdeaLbcmzKdsPUfjUDyyGuBEEUqeg6HeAspaEmKe4V1SHCOAPPOCEo/iG/HBr38b3/xWGj7+1lntCxmeiiJmXnQl3vW5q/E3f3+wvv7mb/8Gn/njK7Fi2cH91H/RmPdbV+DypUPoyfVi2WuuwJuntiA1w4sQKT11iIyk0z4KKeF2CEt3qesoDeQrEyQepkuKTKPWt9nEqC0anXhKoiLUNKiFbqwPJipjQn6rtDJC+/lpSqmtO2htaIF7XIsQN/l+cbfoTH44ojIv5FGm4LjWOBYUQsxz0860gMJm81qnHCqDGTxXaJNxCkPPB+KGtPV9IPCa1mtoJhVFJF3wR5FMihSOmSa4tEpUDg1KSyNUF0rLdFfR4jCecZmY3pK+qR3r5MPU74GzT4E53z5pXKew4pQHTYfWabNHCd/ZqMn6qmNaj4f+Lg85CowZnFeQ1WHqTKlMHXr6eUHPm87AsglN03kvexPmteMZ2iiej7f8+Vfwmf9xPlbM7DUtrw7kBXPm0vPxrj/i9Xee/4Jo5ZdkFx+AB++Fo2sZniekvKKfHYbRtFatfxDxaVyD5Cdnf7H26dBgcQj5iNJMHk071fRTNbXVyLW1kpp/4+0JQk+N6zo/i2QVjCsOzQjSKLa6eqKQAqFFfu3uL163qCqxtoyleMQt3i+lMfn0mJ8SfFo/CUiiRRfHlxvoccfR5DmX1yYiFcF2eDpNM+8iYdF3Khj87gQnMC145oZ1wMzHDpy4F34yhzkY5FnNTzOPpN1ZTENjOh4L4NNUUHlTQdFR+WgHfTR5OXhhorAduN4+p+4n1Z9EIZJ/FmbO0Q6DvBa1Kig4LcwezKOnqIkIaX2aRNKCGeh3MVX8HI9MBrNw4QltSyMIoOUs6DsRF59jzmQwOBtv+9yVuHDaQULWnuSbN27C6o3bscdUmuBh5plX4s9+/xcvIKt/cBserqTx0bW34fp70/jRx9l4+1faVthffQDL2mcz/AJhujZEUCI9D64r1+XqK+d5EpYT1UicFJCIAsLWb0xiN615fZGjRJTGqmgf03hbTNrBdAmZL72HZKsuL5Nek/8c8ndVY1p8h8336VndJy6kgIStkEGCxRNuE3aYA1p1tKwetEo+Th4Yx4ziMJpJAN+sEUnRIeEDZJzycRudDzqmQQJyUDxazIsETmMMlIbYp6j1wUtmUkA03hEawUitKIoE05eV4JHY00WIPKX8mtd23jEB7fx0ROIAzPl2fokD+WGQVaMKVHoaj/LcAD1dFmYOOSjnKDJ8hq/lLcpVavUIystU8XM8Mgmc9ia8YhZLQKy/5bvtPSyKWP7Ki8y5DMDgb78J5/W0P9TW4V+/9F68490fwCc/8VF88RMfwofe/g78yXdXHdihsOe0K/C2X7T4rv8evvzut+LKt70V7//T72G4fTrDSwGiakGUoUVtmmXE5ozEQ9NEozqJnqQt9xmyEmR5GPEgSJgSBi24Sy2LTvypIZWNFOrqUUvaJgFKQKywAQ10xOqrYnNU4mEGofkCCVXYDNFqBmiFTYSu3MczX80RNFDGfloeSwdGMa08bGZa+Zol9TQ8nZ/NwITJPUNbMNLPhOIMqeUh8WBOtQVvJPHohm/1w7U004r51jOG7FMhNV1WEg4GJWMG0NvpHshDO6KfnVMHLioj/E6FjsF8TGsuTTtdSxKG6WSGYsFBX49LAQFyxjpRXaeD6no8orUmcTcJTBHPi3gse9UyTFMkWIe7r7sB92xIHZIXjzsHF2ZdHQStsJOG2vE9uPGqT+HGh0fanzuoYcf1n8dnb9yUWm4U3/mnnmFiGTIcS8idhxEPw7kiMRKUPw+xN0QS0nqDGgWDNgl53Wpu4ec6HE8roDWw3oLLxrX8WWn2FBmO6TAN4xAxIHEpMC7uJfFppboGwBOtAlcXjC5ojUQwBq/1ON+XEjZVqh2UH+aK71evWdRIjJB4LTFsw3Rf2aGFacU6lhab6OH9VT4nX1cp95JMO0FJHQgTGZV5NuoxkWEVF+3zZgqoVpH7Tg4+ZsCNpzGPVd6RyoLGhFiIdpeV3KCIwNPXaJxfEw5Mp5Y5HgwH38dj5/3KF4M+KQ114clZoqw4pajxILlCCeQml+9ynAizBkvo91T7zAdFw5TnAPTcz4eJqRwlXIQLlqZ9isHmx3A7dWPlT9emLWhvPk6/OFMP2hEodiznynY8coRNooav+S7+9Y4b8MU/eCv+5Gv3tc8eS/Si2NeOZnjJQbNU5dGbzWwkzggJQwOyFI/y6YgLJ5BBtKRP+5OXKR4kvfpP4QS74PiJWYqhPninSWIMbDPwrcVv6nay1bXk1MmJRnEYArMOoxm5aNQj4248IEmGcqoYFuDXt6C7dgM8l4mQFLU5VOiE1JXUZ5Vj0RoKfVg1H/G+AvLMC2wfxbiAQZJPie89vZDHIt/BHuOCPF1HwiepZfwpf1JmzQizYoRDHU4KmlHVjqsOSL7yEaVnNb1VoqV1Jj7zUPS6UMBCplVmGXcxHT5jGJZPUzh8M9Yhwpdw0RLRyyimcgkfKV1Kgjzc6h3MRTvISlBXYXrOrGTn+zSeIsvLZ/k91oMcPsqKiUPllAKs1ewO76Iwzx8qoKw61ngH00qFiCnzIH9e6aep46jv5+Fd/lFcfdlSZj/A6muvxBev09mz8fa/eifO0o57O27G+z/87QPdMc/AOR/Al373VNIrsP7Gt+Kz1xx6s6WAJumOdQ/h+uuvwcrVh9pqSf3mfCf/9rD5Blz5sWtQPPMKvOWSM8z2sD1yRyzQzN6zay3u//H3ce3Nq9qt/EPh583HoTChPpqr8PX/9XncnV74+dF3Ks564yW4+JSlmNnjHRgfSfN3H6795+/i4R3PzN+ln/o2LtdMhspD+OK7v4aRi67Am3/15Vg2oYzp70GxK/CRb12CxYq26/QArvgUvnnxAkZquPvv3oGvP3giVvzG63Gp8tPF/HTqq7IH65if//zHa7B6f3qugwN5ORKe/t4MzwnPtp8HeU+NZjIem/WQryrtI+7AGt+OYMd/MPwr4upGslA/LQcHTXchqt6rMF44G83cDHOvG2mgWO7EaYWQ/D2PLXCPV8heZjquxiwoUM2wC0FU5f/gfjS1j4U1E17Qi+7KRvSP/3/oafyrecZwO2GO7byr1W5YkMRreTnkaOfEhRCBVyTBBrDZ8v7J7i789ZpB3L6vhC5f1oahZkOqsbqpRKS+/ESRYHlR61TaiTLwtvaLzWnCtpska58KqZXtNmtmGcrhJSgm81lOuW/phuVKOFg9DL7nICcvuPxn8Cgikgu9Q0ImlemMuaQHPtCOp1GJHctO/tdYkrzjagKCz390ai41gZLOOvBouVmxT9GVf6sKTl6Yx0XHFzArT5E2NzIcBgsXLW3HJof2v/TRQhHnnTxf/h/JEptwvxEO4S7cuLrdLTPzVFw62Sme9vl4219cjQ/+2qlYNniQzAQv14t5J6WzkT7+28+25sDD8vdcja+88xKctWCCcAi2h6GZJ+Li//EhfOlPr8TiQxlGfRfh7UclHx3chfW72jKVOxFv/qPLMPPnNsiKmHnph/D5qz6At597IuZNEA4hzd9FeN/nvoQPvunEI+Zv8Xs+b2Z+LX9aGaeMXorMX3wI7+rkZ2J9lYew7LRL8MGrrsa7fm1J+2yGFyzElwqGxfSLVOuXh1w3vK55SHKL0bD6EJBIbatGoVhPnfkJ3MYT8AOZ1wOokpRHSXx7WwXsrBWwbbyArWMMlTJ2VBlqJWyr+KjU62jFNTT4P9l0BigiBb5rK/zkDnQFD6BQkaXCHOgHGdkc23FlTZ8188iixZFgL8I6LZmmxkioTGEOAyUPs8stlOPGwWc7YKGMNWCOaXhW6H1Kxmnw9QVaXAtI3l1wPDaNaX0ksZwf8h5+aTyC1WCsjnSBYfsd7fc84326LvVIoyZm8tU+pxcf2P+DcdM1pjqhtaG4o0kF4RiOm1+gZaL709/d0YTT29f/iXb8uWP2FXjrG5eih3msrbkRX/2p9iNOMRosxTlnzaI6l1D2n8TN9+5qX3ka5p6Di1fMgP7suuadgoUllZyo7cHqx+7DPY+sw4bxGH6hHz2m68dBz4Izcd6Cfbjl7k2mkZRiLlb82ssxR0JRZHxOiXcS/OPcsWkV7rz3UTy+YxwNL4/+rry55nUvwHnnLsLGn9yFDrdr5tilH3kvXjOjnY94BJtXPYDbH3oCa/h8VOzGkByQmXycjmX+fbj9sfH03iNgw9hs1sdc1gaQHzoRF150ARbOoGG2YR1G9fc+SQxe8VF86vVL0dX5u5hQT2uGG8h3USxNPVEkjzsTywqrcPuj+8ytwnEXXI5lMvOSbsyf25WKi+po+3Zs3VdD6OZR3fJ93PmoLpyC896wFP2Kjq7D9281J1OccgEuW9JrotOPOx6DpgXBNsTodjz40D24f/WT2NrII1/uAg0R/h3nMeukc3DyhPw0aPZXdj6JNU/uQ37OLPSokdTcjttvvQePPKnzDI/z97b+MH87GaaM973vPeSeI5OKoas4JP/oPg+hxjfM3Fuea9bQbG0jLW2F2yzADxts6e9g652EFi9CmPQhdsaRd23k7SLvc2hl2AgCBYfJktQiWjJa5UyLJHYKbDlPN76riq3d6I5uQE/yPXQ3N8OuzUZSrLORLgJmVtqiYUiTx9QSUVdRjiS9lS3/6WjZ8lrL+8M8hc7DjnqMtXuACsthktCz5jERr4RHaYmQedLAXE2jnWOHv81tLkukGVyzUGidjYI9BNeneAQDiEhGGnPQ9rXyjSVrSxaHrBDmMk2Emabdo9TaAnLgxeY96V0Sh/SDbtHkgnR6s8Y0VAadk4VDq4nCa1EE7aSKblob553ehzKvayv3NMMT0n8avvzlr7Rjk8NR7bbq+e2rcNX5QyxqgJXf+Z/46k0Tkz6VVsQHcJ76z2ur8NV3fR4r0wtPxYRuqxQBNt/xDXzhG3fhqZ0ubHG/6YP4yKVLGBNquPsb78fX7+jcNaHbqo1gx2348p9/8xndJd6yN+J977kMnfV4ow9/E3/0pdv4ZmL2lfjMn56PmebCQ/jyR67Cw0/zIVa84AP4zG+leR5dex2+8Kffw4700hFRvOC9+MhvnIGZTzMHasOb8PDDd+LG/7gBm5+W16fgnPfiqt89Ayll17D6+qvx5e8+vetN9fQBfPjSpUaoZBFe+4mP4vpt5uIzuopq227DX/7pN7H+kD1wk+m26mAEK7/7N/j69U/PTy9W/N6f4O0vn5YKVbAd137+Q7j+KeM+E353pjvtKqxOL2Q4ypjcHuYkp6hpustJQ6g1tde2FsTtBfauxviO69AauR7+OG2FMIZbLKBemIvdOA0VewWS/BLknDJpVv51HVoXDppMVDN9RKIeCVs9ReO5WeTSGPlWFcXqMIrNB1BMrkPOvg2e9v5uvIwCs5GZSZuIqViQWHk0TKOjpS1bC/xbf5SCsQxjfs1sxeqGBTS7cvjJsIN/eKSA+2o9fKcD33XN2IEEKeHRTMTi0YiSqRbzEkVI3O1j+nrWB0k6dmkZORS601FuXIoSG0BufheixkJEyZixujXOkSN75+QYty0ejsm0RIHtI0vjFWnaHYHoWBud98f6iiiufLc2svKZiEsxkldeW/WhiQSsC5cCbdIPhrFsto2LXzmLdch3dpI6An6B3Van4vLlEg6ithb3/Cgt+kE8hFvWUPKF4gKceUEafTaMPvhtfPYZwiGwdfzdT+GTE2YjnfW6N00QnaeBxP/VTz9TOIRg9ffwxatuwPo2y/UsvwSXzk7jmFVqixPfuH0VHjmE88narVfhL7/zPXz5w+8wU1gnIxxC7dar8Sf/+2u4fu3IU8pXHJyPsy68Ah//i2/i83/8Viw75IA1LaKLl7eFI8D6G7+ILz5DOATV06fxqdt2mz/GoOZp3sKhMXwXvvDHhxOOqUD5uRpffYZwCBSVv/4YvvpguxvTm4WL/59sCvcLGSJLdQWlriw00Buipb8mh82R7oXI9Z0NO386Qt9mK7pFE3IQXqOOXPQfFJNr0FV5FM3KXuxpVcyOILUcibzYi2ahl3Fam14OFdeD34hRru9EV+tO9ATXoa92M3rGtiFXKVJ0XIz1bEeiAXOxlhrR7aNIxzSqTTxBxPzZ/K+VHyuXLfEwdHm6hXxQx1w/wPzuCd0/bcj+MGfUNWSCOX1EyOOt3u1iBvw43fRJ7t2TVtpitT11Z2lmlSwEDXDzXoqU3LWoa8lYGpoqe+BlT8sVP6R5eWoQZB2ZXQ6NlaR3iHktWnq8zlNyQ7JoTrc6/ig2Ec+boh1VqLqPDi64BCvaJFfbcB/uP0RGN/9kHVL5KGL5uW9Mx0aOBFoo//KXbQvgMBi+5mu4scPWhx1PqWHlv9NiOBIprr8Gf317uzlOYj7z9Sem0XtXYV37ueKyy/Dht56PnkOMT2y+6bpDDkg/K/bfhWv/9L14zx9cha/f8hBWD09Mw8PQ0osOPT4w+yKsmNeuwd134u+uOdhFeCgM/8M/4aqvvRfveN+HcO2d7ZNPQYDVP/1HbG5/ek6ghffXR8xPDQ//5fexslOvmsKdRjO8wKB/Y1IkQXIyreXYbJsqHWlqtpHXD7fvdPhDvwb0vQKN/BDq/ArjcVLpOMrJRrbKb4ff+hlbw4/DDtfAjTfCt7eh4O1i2Im8s51csAmD1ZswMP4DlJs3I4db4TkPsYVegxsMwk4oVN5ukma7y0pBFoK+jWgowqApq5rKK79S7jjtHB8xrRbXkdvzBgbtEPN61X3kQRtACVqPEkbacyRK16YYln12pk3dwCcszyxaHxQPR8PclFW5i2c9WZ5W1Eos0skB2qfd7PCncQ+eT/cPUUFSdMidZ/k1Aea+tnAwpEXtjHm0u910jgJl9ofn10BfGXOGSvDkWZjSm+b06OKoiceKMxa0W+g1rL7vx4fO6GPX4f7dadRbfBpem87oPSxG19116K6tp2D7QYsGQ5h/KPGorMUdt7bjR8Doj9cdsBqGpp/ajt2Mr3/nofbssCIWX3glvvTVb+Nvvvx5fPAP34mLX3sGBo/GVNb9D+Hub1+FL37wHbhSQnIHhVZzHQW7Fyve/F68/dwJqnXGfMxo/93tWH3DJBbsUZjuefpakonYjsev/TnE7xDY/Oh3Dz+b7gBuxv2b2s0CbxDzXp5GM7ywYP7E2n9nKQOlvpFEb00SWVNNwNJseEOvhNvzOrTyizCW24AGRcG3FlI8Bni8G0PVf8KCnf+AWVu+gWkb/xbTNnwDM7Z8C3O2fxtztn0Ls7d+EzPHvoKB2rUoNB8lGe5AUuD/dZGmvueSBPPwI/mPIrOIKA1zpfE0KJ4G22x0UWZcay1sZtmHRYvFCgPmJ8JgmeKhfTVcih9vDZluGISpgGgnP52cBMyWsTw6ySCtjyGSufIXmGnJtEv4zjo/SyhkGfDfmKcNyZunWJlPeU87rnOK8pimfuCKQRpnikpHwqGIOaVxECo6j3EcoZ/iod0CkXSm6PLQvvVo4eiIR/GNuOC4NrFpU5FZv4nL3/LWQ4SLqC0dgpqPFW/s9A0dGsNswU4Go9v2HOj2KZYO4YBx33Y83I4eEdu2Y3uHsIvFA11gwR1X4Y/+7Hu4e4Jl4fXMwrKTzsabf+O9+LO/+Da+9IkrscIMBhwFSEi+8Sl86A8+j291ZqmhF2fxXSvan1DszKoKsJ35fuGghu3tRaHPhtW7O2UrZWtJXsAw/eWCaek7bM1rJQGD1lbIx5UGqCka+cHXIT/3rYhnnI+xvIuxaAvi1l50hT767BilZDu8ysPw9/8U3aO3oo+hvPe/UNx3N7rHH4UTboYT76BIjMLTHF7aH7EGDXINWjotWi7taZIiQWWF+Um7q9JWvY7GWy0fjTW1KREnteC7IlCt0ZB78hCL7QrOyI2hwbZLU6u9oz0kelK6laNIMa2IoqJ3BRpU14sCRCThOJFrRr6DBC3XKcpNLqLlFfXAOFuUtWPxnTnSvq+9PfrgeiEcLzDTalMhcyhQtBAUTNpMxCwGaRfqQDAdXuk1sb7czvMr52q8Q4sNtb6GAsWy2ixblOQRJj7ycYBBp4YFA/zdWFoHw2f5e/KoVTLKjiaU6+cM77LTDjpBtIew4jUX4dLDhIsXHGw9z3vZGzFP9fQiQLD6Onz9w7IKPoovfucG3PLY9oOWAdGz4Hy864+vxtsmWgfPBgrU08bKn4raKtz+Z1fj2m3tFnpxAU7P/INlOIYwNKYfJkK6MF5tHf7davYUj+2uHw2mez29KM58DYrT/yecrl9F4HazaVNlw9dG6JURlsuwStpCVRTMf56oQpav8+EWYitCwy4hsNLZQm5IqgyLiPhZ+3BHDJSFNA8mP/yhbx7TkPb/K25TeFq0AppJF28IaLg00Yq1qRTzzvOzaJGcXhznuyMEfMZDg+TO99oFuBIPEq1mgSUMZqotGVqr4M10WMLMbGLJciggH003jhZVokQzxmyKSG6EWhVSKAZo3UQmpNUkq8A24hGZAfI070yxHdJzB+Pto8RDCwN5rxYaeiQNh5k08kMLRfujS8piClOB+ZpTTjBD3uAZb/J3xdo0IqNwNGGK9NwwC5cuP9wI7LOgbwkuPFWVdGgMzjy/HTsyemYPHRzUrh6iFd4/C8vb0SNi9izMajduZCEdsutl/yasvuka/MsXPoQP/a+34h0f/iau39huadu9OO+/v/NZHfkVl1+CN3/iavzNlz+I855Va9bhxlWdbrkihjpVXWs7nOSf/izm+4WDImYtnJyALpuWDveDBFM70qyyDC9saAc9Zx8JfpTEGaNcfgWmDbwXgwPvht11Ovbn9mIMT7IBPIZyl4dyiSKiljJb9vKRpRlIMSokP20nqxlFJGsSXadX54A4UKHEtelnXUivpx08B78OcPDEQJiFhPyQ820MdlsYytOSaLXIxH0kerlvJx3LK7B8UtkUNwpPCtlZcq+ubiF12aVuVZxkgMIxnWeLvJ/vNWwqn1K0CKQzFAkzfVb51aUOeZtCHMz3ZGAeUTqdtCb+pCpo/YhLgStSmKcNdpvFg8qQZM5AN6aPHDU8d/E46TKcaeaxEjtuxgfeljrOO1J4x3Xr2sTXSyvl1YctU8+Ssw920xwWs3DhcQf9RG16rB2diPJSnDuJ2V09r16STskl9ux6qB0TejFvxaEX2Gn677WfeD/+pTNVqzwfZz5L//2yiy+jBdbLFsQSvPa3OmMrh0cx/Ut4Ku7bhJ3tv7uZyy7BYBo9ApawDLOObOkcJcw7+Qiz3g7gIpw+v52bYBibnzcPvRmef6hjS76rxikgFTjFAXi9y1GY9t+RG7oY0cAyhLkuXjcNaFoeLnLFHPyctqzVzoQhW+ZslVMtojgmgSuQVvn3rQFlEWa6hoGWgLqnxOFiLhKHptiKPDXFNyViBl7TPYbdUtZlSB+Q6w9Nm53ZE2NesQa3VSfH9yMOfCMRfDHvo3jIbYqtVfV6ilcsWhRa22JKIX8tEbyY/0/JHIpHF+/nc1adFpS6qzRgz/zSEtCeHQfEYwKMHyueTG2ZI0PPTvTmq/JOjKvMWnFOGw1dbLfNml4Eq5alUdeX/sd0Mw9HGarR54R5r1qGDnVvXn0zjjQk20Fw7UNY1+mJOe4cXHC4ghVPxFuexRX54BXvxMUHxOshXH8o8WDLYMUbPoDlR2oQL74Cv3deZwxmO+75/ioTm3fFx/D5v70aH3/PO/CWw3YZ1bBj/GArRWblkbDyR6vas86AoTOvfOpA+DOgGWSdGh7B9s4kpm03Y+Xm9I8b087B715x5NXag1e8FR9+z+fxN1+9Cm+/tJPe8wRajL93xPwUsfz3X48V7WLX1tyJW9JohhcjNPUq6ib5F0irDcQOWUAWfE838kMXomvm76A4cAkSdwEqQY53BHC7QuS6Q0Qk2yDUOEI/0/E0Hq/eJMPhSVtATL+/acGrW4rBdF2RNCg4EpYDTMpv3dq53GmpmwuCniXlaY3E9GKAJfkK8kENTZK/vOL6fJ8Gs1OfU/rfooVh3u8yHXkRVhoSDxFnnuIxl8/MZt5LTJrPOeQAY62wvU9l4FMUD3U36b3KHL+VXhsSDknes8KU5anBmDZGOPRZ7wvIPE30lGh5DKSLAiUeNuuUd5jvow1Vx3PARSS2dtdDsA63f3eyA7fX4dY17a4eOUt8w+GnXfWc9lZ85H+eTbp5OrT47WP4+MWaXy3UcPd/HmGWT8+peNdHrzzkmgktEvzgBy7B4jbpjz58w4FFdBoj7zVdWb0477c+jUsPtbNf30W4YEnn/AiGN7Wjh8OD38B3OuscNBD+O5/Huy59pmXjkYTf/KfvxYUds2J4NW450ELfjuuvXYl08pqHxRd/8DDuR1L3JR+5eAH/uMxH1LZ2pOv5gvLz3kOWyVibv/cpvOu0zt/Ndtz4bzen8QMIEKT/o7TkZuGUozURIcPzA0OwmnXUx1b4INvk2paW/zg5Elz3AhQH34DytF9Hrv8CxMUlqNgeKtYYmt6YRpxhuXLlwX9MedQl6RqLQ91XjEhMUgLXt5SBEZJlusqccdNddDAYYpWBYCyP9D4t/ktoARinhgxy4DFgN7CY4tFNkagmeZO+GzeNdZMybUrtqZDps9KmxUHxsCgcNvopHtotcIDp8Xk+ZsZFDE+n1oYna8BxUvFgISRMgu7phMmJByWP+TKiyPKYVfHKkslT+ryThCj7Efq7LBSM1aHlmCqrrEJCote+92jhua0wf+2H8JXfONEQe7D+Orzn099rd0dNAhd8CFf/1onpqueJzhInrDDfsXkTBue1xaG2B5s3rMPD26vwhhZg2cIlmDehb2T0wW/ij56yJmTCKuXdm7C+b34qDnK9sWMjVq/ajlphCPMWz8cy7eJnniG0ivzDE9eELMGln/owLp93kAZHd6zCykf5PHM/88QlxtFisS3DtdXX4P1/dsMk6uGZ6SIYweZto9A6xFLfLOMX6gBIstf/9Ydw7YPtz20MXvEpfIbCcOBOuSdZswrrtZtU9ywsP0H+pdrXmKv1N34On52wBuPgCvNNuPZtH8X15uzhMDnHiJtpEc2b116+OLodqzesxWbmpzjrRP7eZk3w4/XM/HSw4g+/hned1G5U1Lbj7vtXYdhjeXJr8cm//F56PsNzxrM6RpwE4qRJGgtImNr+VZSmyUEhjw2eK5DDSaDNJlBdi/rI/Rgd/gmaow9SN0bQ7ZThtPrRqrFpI4vFZlokOTn6S2dR8ZQCrQXjH8qnGLRJMCVfQkTc/mxa+KZ7SbApPLyiC6LuNtNp4LlF0+be3QG+tHYIt4cvwyB5YQD70XId1PjuxJOvLslMmXnJwfb4/+SMQ1503XCG6bIaqL0eBcxh3pgLR60diksSka5t5BwPOddFT0EE384CwZRTUTRHfpaomD62NM7TPHbymh71qAbpHeZLLk5cl3HpqLnClPj6vBtiPhuZK5YUcOJMDZBrNk9RyZlgqxvOsESnbp6JY7jCvIgLz1xqhEMk8PA9UxAO4dYbcH/HxdLMU3HxIWbtuju+iy/cJpImiiT6k85OZ2ydNlE4Amy+7eqnCcfTYG/HP//Nbdis+rTZEp99Ii7U7K9zT8XyCcIh1xyffYpwCOtw/cc+h3+ZsOy6Z2b7+decjRUarO8Ix8ab8dmvTEY4hDTdbz02oaPP68W8BRQzhqcIR4XE/jefeoZwCMPXfAx/8q+rsMf8FxGsp2WnnZ/ObjtzonDIfclV+MKzLCZ87vBQXXn1gXJpSvPydn4uPGmCcMQjWPmvhxYOYeW//eTAin+qDs46t12e/mddWprhGEMrpjUtVJxuenx49EShaumjlXp4zeWQ9J6A3IxXomf2JegafC2cwqn8X+lD5MhK2UGS1kC1Wu38hxLbimQZNP6h9RcK+jLndJnvTrum0q4s061lWuUi5E7QZ5Fs+z6Sp8WHS8znfP4tTu/1jHsQ1+O7wwpJWaP3zGuUujU3A/hJi9nRrLDU6ZydiDPm0+oomvIqPyYobVklFksvondbZupwOrU3FQGDdt4lgvp6VvB+UwaTQPqPnpat808PMwtrqJfcNqiBfREdxcy8hN/mNonbJN41Bfz84lG8DGd1+nnkjuSmNDp5PIRb1qYuM7S47/Q3PHPg2M8Vsf4fPsSW/Ldx49o9GJ3AynI1vvmx2/DVP3sPPvkP9x2ZsPNFlFZ+E5/8g8/jq3esw47KhLvlkp2WxI3//Hm8/7CuOdbhlk+/H+//xs1YuWNEE50OIkifv/4bzOcnvm26uSaPdbj9C+/Fe750TVo+/c47aKd7y7Vfw3veTYugsxz7EBj+wefxoXerbKuwmZX0lOyxntY/eAOtqfcfxn3J0YYHv9gu19duwN3bRhAc/Bs3LtlXMz9f/MB78dUfHEHI1l+DzxrXLXtQm/B8bXxKFZzhmKBAXqKlaf6Z9UMDzjXTxlW3CXkV2l6j4riI8vNRGDwX/XNfh76+M9EMi6gGe+EW98DxQhKvYUo+mba6zcC5QjvO74Po3MtgRELCQRE5KBhKpfPjIDr7dQzmgf6yb/YGcdhyT6KGEa9E3WexRiwU10C+OpfkkCX979Fqdy0M1GC03BoqGGjsRwJCS8LsdMg00+zpR3pLCnPS1NTE4hwevGuCEHa6qjpQ8toXvZTzkBclU+yMyLRvU92l4jHhH+ko4Kjv5/GcMaHbavTBr+H9f3lXen7KyJzrHVNMcIx4cP+PDC903LfmMRRdnzSoLZ5IBerkF0jEIgYtZItiEiI/iP9MUJw/dF0/1aJXMzT9LJjlbwzpT50zjWTxWdJgS5wkrM/V/Qj2PICRvTegXv0Zisko3MCH1SrC1noLbU3o10EeJ22XEMZdKNs1nietu7Q0fAqFFveRszXIbawSfrltcpWzQZMn80N5SRFT7GIzyL8dj+6egcs2nI6+5nbYUS/qpQj5ltyaaC+QEu/t4fspIu4YHHkHjgfQHZyHcngOnLgXttaO6LrEQHnmy3LMUznvkMxdeHaV75f1xPcaIeJ9CvxSFZgcavGhsbaYTqzpwloPYjJthIGaCzdHSyYJ0FXwUKs1mZ88iqUyokYNVlDDKxb5eOWJZfSUzD6C+gXx8XS8Q91kGq9Ju8cOby/8gvfzyJAhw4sJOba0RTGkK+pGxNa3PLyShNXa13n+8EO2bKkpxichr0WaU0UyqjsBak6Epk2yoqVsx3JfqCVpac+67kUYUAxoUpPAEpdPei00JAZ+GeiZB2/ur6A47zXwZr0KfnkBvEI3nAJlxw+Q2MoHxSQqwKU1QK1AHDKnfJ12qI1CdWelxKwSpM4CRc7mdQQvmGmzEhUt8pMwRtBuhmGaQSzItbA0X6N1bCG0i6TdmLopx4p81iSsxNL0rNijxVGCn/TAj3tI5vpMIeOzDm+V4LisC3VX5VhhOVo2UcRyUJCVL58ik/NcHknwrFjVVxK2SO7Mm+rHvK2dfxNPv8TSZtyH1ozGOgzMeEz6eyvlbAz1uOgtaNaVyqrfAEOq3UZHzOejTPeZeGTI8BJGKbEpDDEckrFt5rl6JFcXIeMhW8Etsk+NPwMSqgaErbgFr9VAoVZFqVpBV72CwtgIgtE9CEeGEY3uRTy+H3FlP6LKPhMCWhjJ+D5YvGbxiMpefh4FtO1No0yb4gQM5s9li3853NZMWia+UavYUbdRF6ywl2TNlrw1TiJMCTWiyAUBrYOWHBpqNbfIWzObSJIp8/Jb7XrDnAcgkta0Vq2JgNyq5HycWR5m+UoUSpaN1yM7j8jKM00NuKurqs6UJYp5BlobFA91XflxjpYIrQsKmss6dKloXtJk2g2KQ5XPjFMgXCM6lvYsoXZZzLdNQVFwGRwKiBheWZZ11BEOk3sRP38lOkp8NKYjwUwXVvL3xHJrL5GBnjy6y2bTnmOKTDwyZHgpQ7OgSHxiqYQt44iELdKO1fcv5iKxhbQYEquFaIwisGkr8MgTwJ0PAj+6B7j+J8B//hT+jffAu+EuONf/FPZ/3M5wB5wf3AWP53M/uhfODT+Dff098L9/N7zv38n77uBzdwE/eAj48U54P4lgrepHtGkA0Z4y4lqBLX8SOAk+oUWhMYc4GmN2TFucRgEtoDAyIQ7Y2iapysjQSHpC4VMQGZNyDfuasQKVlz9kIXhmXMCH7Tv4la7dbNnn+GwDjgbmrRzv0DgOn42bfCXFg6zuJd20OqaZ6blWUmDKDkVEWSLR01JTbWnMxozb8LwsOYvWDKwC8+uCWkexk+gxz8orn9CMLuXTCIdOGbRlT6KhwITTtCnoofbvoGBJWIMGLccWZvTn0Ksdn44xjv0bM2TI8MJBQkYjf0WOxfa1dilP10+7JC0t08iP1dG9djv8h59EdPuDqNx0J0b/83aGn2DsBwq3o/XDn8K64V6KAcWEwoBrKQzfo6j82+3Av/+U5xh07QcrkfzwfkQ//BlaN/wXGjfciOCHNyO5+WfArasRP9BEvKoL8ZoZSLbOAMbkxoTC5Y2j6dRQZetfBJvKh8BMMo8Sjkj7oDcpJk3eYwZBRG3p4LVI16zybndrmdlhxskhrQIPWFEaxaAv8m9qc0REiVbL8wLTkDViU0A8Wg8+RSOXzGKqvUaIIitAS4sceYz0Opdi5JXguFpx3k3BKNN682jFuRRjF4nD4HkUaR+xm2OdF/gcRUq/AFGxRKRdQr3AiAd/Lybv5rSFKGA+Nc6iG6Imyn6MGb0OujuzGI8hMvHIkOGljCKJjASliX51MrFmxpllC3Wy6M5hRA89DvzfWxH8y41oXvtfJPn7kX9kA7p3jKC7FqKbBKv++PFcC7UcyTRHAqfqhAyBF5L0eZ4E2zIEmyDUmATvj50GAncvmu5O1LxhNLwxeCMx8lu74G2YDWfDXFg7emCNaRZUjTyuMYkeM0VXTGo86EoURGEaYGbGw3qAoBGaVr0Gpo14iGYpIGYKsISj3YyXDDkm7y3MyoVYlquQpAO+S0rKR83zQkjxSOBGRfjhTPgR82YcLgIttvqbtMhaVmjKpj1hHYqCS1GQLyxoum/UQhLXKWgNJtkex3Fs3k9RoVUVWOpuYmLt96nbSpBwyPAz2VWc59U1p7I5VDxZNS7z1t/lYqCsdR7pc8cSzFqGDBleqtA2QRIOWRvylEsegldtARu2ovXT+zBy6x1orF2LZMcOdI3X0MUmdo53WhpxrvKp/TU0RquoNRtoqV+GRKuxB9f24ZHkSKUoUi38VkBBYgue5k2u7qLUsNHVClFu1VFqVZBv1vh2EiJb6oVKF3K7euFu6Ya1pQh7dxFupZvkPWRIVB1Q6oYyXUT80roNFUDDE7EskFBdWiJaTe0VKbdb7+2gLjmRN40N5rRKtczhzOI++FTNKKb1wOcdWjy8le/TVrMsUdQLL5rFMJPXKAxWg1YG05MvIrG7RIY16VGC/aQCPx6FH+zDYLGK/twYCtZeWK2dFLidaDb2Mo+1dBaUlJcili4MTPOahrZwmMD7VG5e1/RhM/bBus57Nqb3FdGTV36pLMcYL7ypuhkyZDhmeOyJ+0mmHhvNeeO+xhmlcDzxJFr3PojGI6sR7tlNyyBE0XLRLSnodAmRNdR619rypkuLQiufSbr5VmKCupMMCYpYFVyma/pezFsY5w3yH2VrJbqSEynyWkQyDpm+vNu6VQRdY4inUVhmkcz7+a7+rSRcjQdICPSONC8m8Id0JGASTns6r+vqKIuD72vPF26xLAkFoNBsoeHT4mlNx0Pba/i9TQuxqzIDBXvUrGhXWnEyJvlDCcvRY1+Aor2cLX/NcRph2lpRr6m1Tfi0YLoLMQZKQF8pRpcXUDwD9HV1IaS5UKW4jvF9Yw2g1vLQCIu08soUKxeRug5N9h0jKMqjBMNlOZR/l2XxeNqiGErICqUCqrUqpvW0cOFpfTh+WmD2KYlZtx2BVOhAkwSEiecOhalO1c3EI0OGlzDWrXsk7apy84bfgzWbMXzLTxHefT9m7iVB5tnKLpIieE8cRqjRsqj6JLyBbnjzZiI/dzryvgd3fwXRWA3B8CiivWOIKnWzr4bWQFgMHsnWCbWKW4RbJKORyEw3jlyg81TiouKNmmmuXWLtJt9bKxlLIOwl487dB3f2XtSO30GOPbiOROsjTP+/+cQWPAWqYjWhTarkysMICI/p9q8SEAqQ4/O+Ekr1cQrNXtTDZcCeJ/G6Dadh6/7Z6LJ2Qlu2hxKZeJyC2Y1S8nKKx0UUj+PMSvjI2k6xnE5Cp71m1VAuNDGD4jZ/ho150yxM74lR8iMkdV53mVjON6I11rCwY1+ELTtb2LGriZHxCHFe4x4d60N0LPGITb6NOxKJB6/bmmllUfSKDkZHxvkuC685o4wFXbSCaHYldvGAcGTikSFDhucVj65bg1FaBl31Krq27gKuvR2t+x/C/mgcva0YuaZLa8BFPWdjz9wBxKcfB/ekpbCmDyImIWpxnCwOL6YdQhEJ2MpuDO9D8MRG5FdvxOCGXSjvq1AMIqDHQZILMFqroFouoEeL/vaGqM/0YdfGKTYiONKo6b4hTHcOj2Y8QQoXY/zknfC1fc1gA7X8XjQtWg6WnKJ3oRCUzfj/7uIwrZNUKDTVVrOhfFpXJb8Azy8yz02MRsPo9fNo2oOwG7QS2LT/5EM9+PvtcymkLeRi+f4V6ZPQoxKmub+GvvrrKID70T1Yxfj4TApHSAujjtk9CY6f6eG4GR6mlUn6SZ3K0zRkHeQomDS0zHgLhcyRcDHdWjXG8J4xbN1Tx90j07BjawOzZsw1uxvWmvtQ7qYdIfGzc8y3jygYQ2CX4FBokiYtjfo2/OqZC3D8bKDL1/RdiSOtsOeAbJFghgwZJo0iG/WaqNNq0nL48b3AI4/DqlRQ1swlkm7QamD3gI/4ZUsw57XnYuZZZyA3dxaCQg4tEqKm0dqeh9jxMB5EGNOU1cEBzDjjNMw8/2zYL1uG4dl9GPdjxPtGYe2toJta0F1toagxEpJeYW+NBF6HEwS0fiLYPG8CLRUn0vazAZxGBKcSI3wsQvNBEvI6G/1j/RiMh+CFLsYbo9if7EEjX6WIFFBslZl+GaWQohIV4UaO2aM8iKqItF7dY6kpVkGziahFcaPYzOnLkYiZfkPTgu22R1wXOWeAYRB+3qEl5jIduS6J0VusY85QgsVzcpg/M4feLrkqodUVjlPsQvgFbdOrDa/k54sKwrpJQi2m5PtzCaYNFDF/VjfmDdp8voQWlUNa6efzcDxaXrKoIooyxVmr1zWjWusW5UalryuP3hJQUBcdfw/PZlU8H8jEI0OGlzKCBGWSUWvNOtRvvx/R5m3wSNa5gGRPJqvM7MXoq5cjOH854lMWIxjqReyRFEmsOcdlK5sUZ1iNx5CtXw1ckzDDnm40F8xC7YwTUHnVCuw4fhaGG1SqnaOwxxro2jUCe98+qhaJe9MwMFpBPDbOMHaEMI7iRrLlgyFadzOtB2gYbC2hp9FNy8JFw6tgzNkHr6UBeg+FZh6lZgnFsGQG4rXau8oWfJNWgReTeUOPRC63HUwrqmFOv49ZRQ3aq1ssB7N6vGWhmMzkuQEzbuP4Lpo1H55dx7z+Ji2OBItm2hjqpVi4VYTxOKWpjpBWUuixDuXahWnZFsVAU4ApWGHISqJVVCz6mDZUwkkzHZy2uEzjapjiVoNXKPI9JQoJyyqLjtacZfntiQEawG9i1rQudLMI/DUwLVZ+OuhzTJGJR4YML2WQEON1G4Cb70Vr3242mOVqJKJwsKVbKsFecQK8C85A9bi52MWW93CriWZEWqOl4buuGWNokoA15Ou6PnzHR0jrYXisiu0kvv0zpyF5xamIX3EKmnOnm2vYuRcYGUVj7x6EoyPA/v2wa3Uk4xSPUYrEEUJxzEZpD0n/8RjVuysIflaHvdGlgPSgZJFNE5K220BkaztY5op5tUKLVgypjh81bhOpC62mVr2PIoUwl7MRBnXM7IqxqNxCb46iqL3I+YzTohUTz+PzfTRUaLWwhZ+0cugrRVg0ZGFhf4KBXB1+zPyFsmASs2o9pEU2Wm9Cu9wGFCBtNiVni3FkUTwivk/5kxuTEEv6W1g6g5ZIbwthc48RA+O7iyIsglZQ95WZmpwEyNsB5kwrQYvKHRYjYcEoU/ptHlNk4pEhw0sZxQDWXY/Av/NRhHmSaolN2VaIZp7Ww5I5sE8/ERjsRyOf1xI6PuCSgW20GiEqtQaqZMcqRaLCJnWLLeSEVoglq6UVmx0Cm04O9XwX3KVL4bxiOSrTe9CiBaExjDCowa3VAF9uOhK4bJHb8pF1hKBnfJJoqZWHvc1C7eE66iubwBMurZk+9NT7EJRqaBaqaPg8unUEFgVS1kREUQj5XNNDq0qBDFkWjRO4/EyRme63cEK5gQGfgkPyV2s/j2koW/PN6vJQe2RQLMu5HOZPczCnx0GfH8MLGwjrNQqjrBgfjtdF8c2D1UOhsCgeMRoN1k9D3YAUE9aPca0S8gOtiH6vhr7cOI6bX6SFsw9xY0y9aHAtNx0roUJoQaOEQm5V+orAjL50bYc2fUoomO0x8WOKTDwyZHgJYx9b097PnkBx937juLDhshVL6yMY6EXrjGWI586mmJB4GbRHR94tsGHsoFJpYN9oFeP1EHVqTpWiUW3xOQYNfBdtHyW1lgOS5zjPdQ0gOe1EjJwwF/vY0o/zNlx1uRAjJGGyMonXIVEeOTT9OiKP6fke0+9CbqSIYE2C6n0B4gc85Df2UMDUGk8QeyRsClPLayJQpphvPyox5GgFkNDF3TWxOY8k+76khhOKVfRaFIJI6+0LyFM48sl0ltxHpDEL2h8DPQkWDjroociYLi6dN36wPL6YaSc+S0MRsQq0GBxEId9Vb6HG0KSIhMFBZ44iYFvjOuEYjp9bxmChiaQ6jIj1q+5A22G6vCnS6sA4oHC2MHOggF4KiIbeedLU23MdLP95kIlHhgwvYTS2bwc27kaOzVq/2sB4o4bxvIN44RwEy49DWOhCESRddWMFFJdmgDpDo8nWc0vnKAQhCTISeTKQEEVomvak2UhemEAGjQi1PjQdYycvwP55/ai0GsirD9+3aNWob5+PaVCZAnGkYJe0eVNIKyBkM5zknutHodGNaJOD2oPM3/1ssa/vgrezBLeeI8PZCFzmlSG2KFCxPOGyye7wXjJ4bbxBASENJmX49TEsLdQx4NGSiMeZpSItjvlmerEGyOPQI+m3MNRbw4wSCZ+t/pBpyAeY4+fg+gVTBjlqlC+sco5y66lOknZXlRYwUjhCnqPYGLG0PVogLFsUYHq3g6Uzisg19qE5vAuRxoiYZ9pzFA8KphWgQEGcN6MHRT6SroqUBLH+fgFUnolHhgwvYeTvWU8yE0kBXdUIxRpJcqgXwQnzgf5BNspds8jOIgm22KTfX69gpE5ypVD4TgE5ttjd0CXJevBobWhdhzx8sK2PJok2Nrv0WSROdWEVEJ2wAJUTZ2H/rr00V2ip5ClakTru+RCJUnuMHym4VpEkmidhiz0JR04CyyhEXTSjXDRphTh3dMN7pAfeji64jTxZjjTvUEBskjcfiSyW0aalwmc1qyoKcwxsyo/sx/x8gLm9TDNHC4z5dS1aXgHLJTft2lKX5RmgeHS7dSbLNJlWi/QuFy9O3oWb05oSTQ9uwDM7D6ori3mi8LkO06FYSGQDDS21u/a0V4nj5ChSVZw4bxDluI7a8E60qhVqQzqiYfFd2n62yOLMmsY6E3NTcHj5F4ZMPDJkeAmj+/6N2Ftgq7hRN9NZS6EPd/ogonlDcDRmwRb0WL0ORqk0HknYoYiw9Uy10U4gHlvxPp/Lkfy1FEMqZPm8UvThFF1EbPFXKU5NsqXFe93ZM5AcNw/14XHQ/MCoHaFXg9meZzz6RrQU4qcHpx0YD2oWcl4ZXrGHwqHxBOaNrXLPy6Hol2g95GE/QIF5jES/geQ/nIdTJ2lr9baTIHBCI2pyYeLaLnKuZlWx5c4ChrWmWdE9v89HL/MuB4e+30eW1GJDWl9OHiVaSj1FGzkKhFahS4hacdOMh9huxPtZFJZZ4hFHVVoqGieJmT/WEy96fB8zTjGl5VOnFVcPkdjMJ/Pfqo5hzrReFJTH2iia9RpaTUqT/FixbmSgaefDHuocc0urg0Hi8QsSkEw8MmR4CcN98gmz212rbKPRCjGeWKhPH0K+2IXc3nHU/Zik2Ysmub423IC2Gy8jhzytAO1OF6mVrUFjkqZxp0FGcZmGBnw1SdXlOzy1vAsxalEFYyRhe8FiOFEJe0b3Y3zzNthsoI8WE9RpoUg8IpK1WvIJg0XRMJ5lTaB+yVO71USU1BB5MeyiBytHC0LixhZ9nkRcRB/c7T6i+xJYP/XQ81gvBvewRd+i5WNVUaf14ASD6G1FyJGYg7HdyDV3IehdgO2VAk5MduE48rIV98PpaqHqjdG64HuCUcx0K+huzEI99Iw3e4tWly8fXiw3ZZV1QhHR/uU5dWN1UTQopCyXxXdqG9tYXU2UXluD4RatDYv5VJcaxSeMarReeFWTxvj7qAVVjO5ivkZq0H4gXSzzmYu7WP8UnWA/Qlo6kaxC+d/KBswzZMhwLBFuHUZrf4XEJgeDCVvvPvKlPGK2vEP1jZBg41iB7MRvdcFQNyDvtAryIaXPE5u/8j3VuS6KMQ7/tN6BRKlhd5ut7x4KVETyU7cM9u1DWCFx0qLRXtweBUYtbfO8REFparyC50iTJq+HDVKtwn4KD1vsNQe17TmMrfFQXUfl2U0CDgtmi9habgR7SMD7NRBdHoCX70fCsuabVczPh5hVCM0mWaFxlKUMSBRzZqBbW39Q3xhYZ+1ymtlZfD9zaW42OwMmqd8us+e4Aj+ZuO4xC/vMsD5FiBZGQKuH1pcWCBbyJYoOLSfbo6gA9RqvN8bR01VCPidJZh4c5su8T78MnTn2ML/2545FeO0HPoWPfPxT+I1z26emhPPxGxOenXH5H+IjH3gTZqQfn2fw3R87VL7TPB27fGTIcOxh7anBHdfmq0SQTpl1PBvNAkOe4hBp1z5NBRXpiQhFeiQOdeWQ6LUeIRUQXWcqlmb/0OJwtZBQU01J6LwUtTTDSP39mnLqozxtOiKKlPYgHx8fgVWpsnWtxXCyNDSzSs+TKPW8pY2pFGegJXKkkLjMb27czBxztBf6brbT1xbRfIxEvI7kvD2PfJXES2sp8i00fRc1vquq9SGtplkwOUThWVRsos9huTUlmNaDbWlDqCKtM4pNjuaXFhcaMUjFIhUOqUx7LOZAfaX36LYD95p4+jkVodQicXPMI9NJNP5h+6zDnFmhHjTrrMBxzJrWA1YZkVBcJSwmBzphzh1rHB3xWHQ6lpTHMVIBFpz53Ml257VfwGev+i52tj8/v7gN3/nUx/CdO9of25hx+SuwoPIw/v6Y5SNDhmMPx86jO/IQttdYoFZHLJcdJL2mZyEn4iYview0bdQQe7vVLP9RcuDXcTqYBt7L6+R8c5+gdQjarEkzsqyElkeLXEjrIil4vN9C6ETwgpD3aCyCF3m/WdRAAZJTRWZSTW1aFYxTXDS76XBBg+oNW8/lzBhFV5xHedyHv8NHsi6PYFUJ4boy8qNd6LP7UcrlUY/2Y6y1G7FNIXVYWFbDzFyAuXlNxdUkAJYbtIwiC7VAjhUbhrSVTbPfOx85uHthKiBpHSiwzKZOFGgbmXpRfar+0nheixLVnUehqNZCtELbbCCl3Q19j4GC2EtLaO4My4x76MVydyLJMmgL1bEGs/7cMePUheitbMC/3bOFJuBCLF/UvvAixrEVsAwZfkGY1g+X4hE0WvDEZmx9W6MV2PWWeuhN95FpOZO4tWZBVoYITxZGx9LQwg4JiUXiTYUkJbO060ZBH3gb0zd7aFQaqIyP0TpguiRCq5yDTRIOmzU0W/V08ZwWa/A9Fq0CSyvZmY+ozbami+gwQe5wE0yj0JTNNGDkQuS8CMWAed9TQrCuF8FjA/Ae70duewmlKgnZasD1aa3kmmhRqIIojyE/wsJcFTnIGmKZk5aZENCIXVQoIgkFSqvrY+Zf+4ak+4dYtK5E6OrK0oC7RERCwefbIf2sYkiAdZTbeIqHLAm42DdaRyvS4kWf9zrwKFxdtAJnDeUw2CtZAi2kFsuohNKuK2N0/AIExOnt6/9EO/5z4ny8/tdPAB6/AbfeRHU8/wTMsjbh3sf3t6+n3VDvfd0sFE787/j111+A817FcMYA1t61CjRWiAU45VVUnA234pHNB+8/eF3dYn+AX39t+9lXnYHCljuxvvOKc9+Oj/z2G9rX0nBK/yHy8Ou/eojr6ra6EqdE6bsNnpbeU9Pq3B/jlN++Ev/tkPdkyPDiwLvPOAv2+l0Yj2ro0kyggC3pmYOIjpuParkEn/RpXIVrIRzvV7eSyFDCYawOYxikpChDQ59FjBINrW3Qamqtb9A+FBpVdrRR0mOPAzf9FK7ca5B13UIBFrWChglfwG8Sqs2EZOWkCarbSpaF3mMY97DBIqHa6IWre60mX9CgBSNxY0s+LiBpUFSqFJhKhLjSZJ4bKHVZ8DUzjJZDK/QRosT7A4w1ZmJz7RTTrVWImc/ARzPXwuBAN6bnNYlZwigRlWBarIdO3YjaKRYUWomLKi6lduZRBWTd6Da33eVn2+oCs/l+H5t3tbBpT4RKkDNjIJ6rPUEiLF/ah/nTC5DEaIaZ7an/StYHU01/MWl4Dvjyl7/Sjk0OKs1zw7nHkfrHse6hJ/nhNtzyyDh6F53+zK6r8nKcgR/js5/8GMO3cB+W43euPL998UiQcLyNzz6MvzfPfgx//zBwxm++HaeZy2/Cu17di/v+Kb2WXmcelr8Rr21bQBKO31mOg/f8ExNY/rZDjs+Y8ZaJ6bXvfdflTzWnFrz6OKxqv++zP97ylPdlyPBiQWPFYv6QN1uSnEaD5dtq+164m4aNh1v5rZJwCAda0O3uFyMY5PZ0cyaeM0SofngKBtNptQLTHSYh0ZoIx2khrtLi2LkbuXoDOb6vSIKsswEdeRQMtdTJf3Jg2ArUhdUecOZLZIHwhjQukj5MUEveV374TnkFlrWSaCqYr+4nj2Jowasz49tzaKy10XyCgrltGvz9M2CPl9mqZzU4AQa8Mcx2d6PojhgjSE/aThUtO4cte3IYazJnpj7UXUWRoPURhBLKyIwRSTQkLCrPU8c9VJ403hlED1u8zvRr9Rg7d48iotB6Pq0xWmauF6Ovx6flUTQz19SnlnYHKvDXpYUr7d/PscZzFo/Tjp8LbP0ZbpJ2EDsf2oARCsWFzyDmLfjBN29rx5/ETdc+jJE5r3h2wm2Pp9x37cEuJNOl9Mmv40F9ePK7+Oonv3Dg/YLJQzsu8Vm+qAsjD3/v4D3mmWeOcxzu3n+TGD1NEEce/nH6fuGONdiILgxqn4EMGV5EcFYcR2Mjhq/ulkbDrPdobdsNbNoFnxZDiwQo1xhmtpUg8lMgc6jV3Gk9G/EwYiJSk9URmqA1CumTItU6mqN7Ee3ag24mpLZzd76Amqax5mnj5Nna1lgI3xkEFBA9rzEFka0REI17tF9+mJBu+MT/fks+rVym3YWa3YOWQ6tDFog7znfUkbNycOrdaG3tR+XRHtSe6AH2diMXsEz2KHqs/ZjmjaDkV9iylyDROrKraCYutuyysHdcO75LFClorBDprtyQaP2ILC7tMZ5oK1tTYfw2AqLjU4OQ0OTSLorVakDx2Id6k4rAypRe5gsO+nrztD4ogFrXwXr0XMkIRYs/Vcfy2/WLAGv8ueB8nDgH2PhERxSIJ+/HOg2cH/80q6Ky/6njB0/uwUgyCcKd1UcjdAS7J4jDodGeHaXwm8v5TAdzMUhLdWTPsyZAHPreVBD7nioek0ovQ4YXNvJLF8Lp60OOretqVEVoN5Hs3o3mqrVwdu413Up1DSITsk6sZkCS1HiEZlvZqUt2cldCoqZtwdZ3ggbJr9maQGq0AByrBWd0D5LH17EduQO5gjzwyppwYFO4co5PsqRdQOtAM6v0pLZvDUiYQUIhosDEtF60UDDiew8fyMh2gER5FrFr4QSFwuRPZE2rAn4Ii6Tseb2wqgOobCij8ngB8ZYS/JECClXeGNTRl9uJvtIOioeLZljgc+pEjzFCC2H9fht7G1qqR8Fi3tWdF7HssiKi0EMQFVBvFVgPqfUlAeYVIxjqktMsKkoS60aTBhxUmjY27aZ4jNIaSvKsFuZP29iWHMwaKNNCk3XDeteoh+qJXyLvCUbIMcdzEg8zI4nHBa9uk7YJb8MZJGDMOS7tVnq+oW4r895Xo/fhbx3oajpoeRwFGAHLkOGXD1H3AOxzTjU9KBVLKwBD5Or7gJ/dD/eWu9G9fwQNj/zkkerIvnadokBxiHi/2tVBK0KrFrG1DNRaFsZ43FeNMNqUq3aNV6SeYQsUpq61a9DzXytRfHIbAraknVwBYyTVvqSAUpIjkVJM2AJ3/ILxFaVZVnL2HmgFt3ZL137nrsXAVvdhQsRWeex0MZ6Hz+SKdgMFOX9MWswtr8kKsXRGg84UraSEUr2HQllGuJbWyZpeuBvZoh3tRyG/CYu6VmJaFGN0HKjnWij7HvxcgsdHevH4zhi7KxQQq0gh5bNyNcLyh2EOjbCLIlNCg3UTsM4i1pM2dVKnnsZGHM0ko2hID6oU2se3VHDf+hZGrbmwSjOR81yU+PuY2wUsmdaFPJna03a22hfEdL4ZGUEhx/rlvUaVjjGeg3ikXTzY2hnHmBAMec/FORPHCZ7WcseiIfRa4xje3v58OGzfz7R6Me0w3VvpTK90POSr17atgaeQ/RYMs8HQOzSZAYlD3ztjiKk93XLKkOGXALvZkg7+xwUYmTeI0miCSqVmFgjO3D2O/L/9F9x7H8bs0RbvijA2QPIa6kM+34uomcNettB3ND0MNyOM799vPO22Ih+x34um3Y2Rlotq6JDv2JrctBPug4+jZ88I+vjeos/zPlvteR92kc8UXGOJFNgqL7IVXySxFklPhYTCo0BTJMfgB9GzBjbRjxhcWjPFKEA+aphQCBivk5z35hBtLqLxeBnju05B3OrGafEDON95HL3249gb5pErdWGQtN1dq2LH9gqe3N7CnjGH0laAnaOV41HmomE0gy20vLahyxtiWQZ5ukhrhtKhMSVKV2KNILL2oBbtxtrtTTzwxHbsrwQoaA+VJKA1Vkd/l4eZAxQ3KccLED9/rjpjEbdO6LLqoN119dRxgrn4tQMD5Ivw2suXo3fCWMlhYdLqwhkXTOgGM9bGHx4cL5koTGYAfW77g/AkHn5SA+ivnmAJpYsanz4IfvDeCYPfTO//Wc5WBPORiUeGXzYU1Eo+92R0v/5C5EsD6Ko7xsWI9sy2V69C/d/+E87jT8Be9QSGh7fhkWIFa8sJxcPB4L4CBsJ+TO+di0UDs9FbJflvbmH6Lh+Lm32YFZVojjQwvG87Rn92L6zbfobSxi0oVUmerTqazSpqzRpDA5V6DVGFpDFWQTLG6+bIoB0G94+ZkOwbZcaoIBp/OUKgDXLkoAF8danFJPK4AZdWSSmw0T1eRGlHL7x1/YjuAEp39GHh3r2YO/PLmLPQg0dxqz9RN1yj9SejUQ+27M/h8W0NrN/ZwP6WxDBPAdD4TQDfG0ezvh+16n6MV0ZQYbnrjQAN3tdUvUe0vOp5PLwpwIbdMir6USqVWTdjKFhVLJhewvyZ3SjJ2HgBwlqwcAlrfOo47cpP4dd6j7CITtNdzaylL+DhU/8Qv7NoA+4bWY4z5rSvy2I5MICu8YpXAz9OB7HN7CjefzDt9owrdYcZULSYbkd4TF466ZprP8Pgb6bdWB1rJJ1x1WXiwsiBa5p6y3ffMmEA3eT9oAAdvFc4xP1Py3+GDC8WPPnQGgS5EP76NYg/9tewb74TtXAU49NyKOQKCJ4YRmPmYvT977cgfvOrsTmysZWWSFjoRrfThd7dAXK7h4F8C9GsGdiR97CtVsFskugKWhDunfdg7f/9Hqx77sbA6AjKpO+8updyNqq+hbplQZs0+bELtrlNV4xx2mFpHIU/zCCBZnGR9hnVhku8fFiYexiOBLWYNapiUUC01azFoJXvYeIjiH2EsYO+/H44+RjjpybY/98D3FR+J27f+F4k/hY0d01Dz8wYnpun9tThxSMYKLQwd8DGrH4HveQpeb/Ns3xBbQc8P48ihdnNDzB9D/tGgC3bRrFp6x7s2lvBHvRALluGps8yHo5r+zZh4TQbrzp9Lk6cnzdjH+r+E9KpwM8PFi5a2o5NDj+3eEwFzxSDDBkyvBDw5KNrYIURxqI98G/+KfwvXoPGz1aiNstHYajMlnidbJwzpD22/DjU3noJmq86A41iN5qVEEFEYi/k0bQT7GhUeauHaaUietZvBK77AXp/9BNM37AJSU1O2m3kzEpqG2ZXWB41Q8phq98mP7q+BrhF5KmAmHUdhiv5gwIi4nQs3mNyfniYdQ9HguUwdZKxGQdpMGm5TVdePMQUj5hi5gR7YQU+6rQiKidvxvAF5+IHPV/Cf3QX0TWtB+4GuaBn3plxP2mgZDVRRB1+WEPRCTG9vxszhgYpMmOsowiVGkVoNKJwRBgZT1ClhReEHoXOQ90poruch+8EsFp7MVhq4bSlfThtcT+mdTO/SYDETs2PTDwyZMjwgsCDtDhczZCya+jVqu/v/BDRt65D+OgqtsSr8MsuRprjyNPSyDs9qBd7sHfxTIyfvhje0vkY6OpnKjmMktS7WjHcHXtQe3gVWqseQW7XJpSre+G3xoBIGyVp8Z1ImnwYJ2z9O/AZXAqQuqPivJtOxSVESiY2kSwZtWVaHAEa+JdvxCPCpkBo4Jmkn6DGExQQrZCXTUILRG5GLBJ51OxBEBSR72OZerux8qST8ZNz/wAPTO9BMxlCMcwz77ReGPw4gt1qIBwfR1hlvTHVkrbutUeNKMrLLhwHLZa7STEJtXiQdWHTeskXFzANCm91O2b2hHj5STNwyuJBM/MzZ1PgHHW2aTW5quPI5X8uyMQjQ4YMk8bK9U+QSGPSv4UCIjhbtiK6/laE//pDBA88TItkDCNDwKy4jO5xC+NjLYzTOoj7u2ANdiGUf6qGha6qh6JmQjXGUBveQSIcoZUB+B5b+SRWedNNRNqyIPjlxhY88qfct6vRH5tAYiQ5HuRH3amfB/Fs1GnE41kYLZ1W7POoRYiadZWun5BkqQsrfWdEQ6QLsdMPuz4OOxzBaO8AHjp1Hh44+Z14ctEM1HoWGlcmcRDCUXmU8VaExtg4KiMjqFUqKBXK8GmNefnUNTsLTjGIqV+0fXxNF/bhWtN5egxlZx9OnFfEihNnYuYAZVWWEUXG1fRl+c1Svl5q4pEhQ4YXJp587DHU82xzWw7ytBy0V0Z9/zY4d96H/Hd+hMZ/3o4xq4pe5BF5HrkxpkAESIImAitA1dU6DMCLbPhOBJ+ELGrWNNTEKiBOisbthqNtVDXVlq1ox9EmUuTRUM4S2cJnM11jII7WxsmykIAwbyJKicFEukwp9AjgzTJkjgi2/tXw18JD4/aED5muMrOoj+/ge1t2AIdlK0Q5hI08En8PM1zCHtfHhqVzMXzc/8Kdp56D3d0aR1V3mvxQyWMwZafZQI0WSLVKiy1kfWhdhyfnh/J3JYeH8hGmlfJywaL1Mglm9Ds4aX4Bx8/xMZPxHC0fs0KdtWn2KG+z9AtJPI6Cb6sMGTK8WPG+d78HLgldLW6bwhCJ/LrLsGewNTxzDtyuARQ270PQjFCrVeEGDRQpGp7dZKu8ichly10mhHpVSLbkOTMTSWs0In6Q1yZ56HUhX1Ch6R5yLJI0iVqbI0U8F2mFuc5pBpTOa39yWQLaD4Mhjhl01HlbFoLWdqeL7p4eNKVY4VDXDgYNujNtWlyyMJSeAu2pNM7zMUUQUd10RemZUOVUuWs2yuOrMXNPQJvFRi5soaB8+wU0ckU0tBbDdlGkOPRRKOrGt0m6h4mCRatHAuOwHjy7ha5cgFcsBkUjhxPmdmFGb+peRfVgRIP3S5yMU8XnUTiEqfq2yiyPDBlewnhy/Zp2jLRJEjzoCTcN1p5h2P9xA2pr16P+4CMobt+O/PgYwFBv1FCNtE85W9Vm8drh4VOcnn2o+9mhwfZjApkmRkwOj91zlmB41lLsnHsSNs07FVumH4e95UEEbh6qjSKfrzZHjK+rJNT04ITWWYzuooX+PpfBw/R+D6+cD+RyORNkkQiqe0Hlfb5Fo4Os2ypDhgyThsRD5NQhq45odOIxW8h1uwpn1zDiR59AYc1muOu3Itq4Ha3d+5DUtfKbbXb3yAQn4TgqtH+M2Ep8nXaeHR6xsxXNUh7jA0uwZ9pJ2D5wPHb2zsX+7mlodvUgzuVRbO5GFNDCCmK4Ca2WvI+h/iJmzezG9Ok+eruAcqS902mRtIVD6Ai5fjfHSjAz8ciQIcOk0RGPp6MjIBpSHo8DeCTAUhili+vqdRh/HTUe2ZrWXeriOSJedCwjwj6yeLTiERZL3XBF1mERAW2Nmp1DjRZEo5BH6HsYbbLOaJnlvDxKuSLFwzK7AebUu6XkWS+2lYrERHT8gun8oX4/zwcy8ciQIcOkcTjx6EAUJocaQjofSccIQahVG4DvetCqCc1aOjY4NkQ6GfFotn1M5Vgpcp1iJdrEqgaN/EdUBo2uJNBCDYf3pYPeStWkrLGdqIUoCmF5xad0T/0ihEPIxCNDhgyTxvp1TxwgqEMRlbzBVps1aAvYxNHueaQ+WhsaXM+REPNa+cxTGuI+EjSJyrDmc0TbIDo2eJZ3+VX+IM/HrILQCRBQNET78pbrJA401B3nmjwXpW7aw5jXHOPmxKVYGO/1RMR7J9Z9p7uqE44VMvHIkCHDpLFu7eNHJCmtPsc4W9Nezswa0iwqIwISDAqLNm3SQg1XXnCPBCZ/NIhG4nEsCGsynJ1PmryR1gPlQatF5DlLyx5zAeuizgRYNfXeptnWXCvjbX6xpk31KXlTDv4w3VcvAGTikSFDhkljouVxaMjPlHatYDtae1U02XqmnmiXO+NB0Wy+xLjm6B4LHCu2UpU8C6nHYROhphC7rCMtXOEDWjMi60NSIqHIa0tbc4X3R9oQS9OENVVXA+TaBKp98TDojD0dCwskE48MGTJMGs86YG4lqCJEji1q8aMRjrRvxszECjUiwuddK3WfcTiYNxyFPqdjQaJCul5EBT08Gu05ZHnepgWOB4SNOqr92AM7gRdIKHiuk20zBVjgiU5ZdP0Q0O+g83s4FjOupioez3+OMmTI8KKDSFpBQ73aPVu+mswmferINwsCGUhotu2ZLplJQWT5HIOo9FgEKYCsrSOFPH+qs86Ig6qgE5hV2WFa22Ir0hEPHU23n4LK0z5/GHR+B8dKMKcKFSdDhgwZDgn10vv8KQ48QGHtiMhDNCqa1X1HCi+2rzTfR/7qaIWBEYYJoaMPOq/6msj/nc9PP38IZOKRIUOGDBl+qZCJR4YMGTJkmDIy8ciQIUOGDFNGJh4ZMmTIkGHKyMQjQ4YMGTJMGZl4ZMiQIUOGKSNbJJghQ4YMGaaMzPLIkCFDhgxTRiYeGTJkyJBhysjEI0OGDBkyTBmZeGTIkCFDhikjE48MGTJkyDBlZOKRIUOGDBmmjEw8MmTIkCHDlJGJR4YMGTJkmDIy8ciQIUOGDFME8P8DBJMZg+V3IIcAAAAASUVORK5CYII=;" parent="1" vertex="1">
                    <mxGeometry x="-135" y="993" width="412" height="163.15" as="geometry"/>
                </mxCell>
                <mxCell id="mV81zlIoAhPw-ZKS14NC-4" value="" style="shape=image;verticalLabelPosition=bottom;labelBackgroundColor=default;verticalAlign=top;aspect=fixed;imageAspect=0;image=data:image/png,iVBORw0KGgoAAAANSUhEUgAAAZYAAACoCAYAAADD/8j/AAAAAXNSR0IArs4c6QAAAARnQU1BAACxjwv8YQUAAAAJcEhZcwAADsMAAA7DAcdvqGQAACt6SURBVHhe7d0PXBR1/j/wF3+WPwvIQqwK/gEFVPACEi01fZB/Oc00r37cUfclO7JTO73yz2WWaVpmKV5pp5Vipqmdd57pmR7+PYL8c4oCKoiCgn9AAQUEV2ABf5/PzCwssMsf24UB3s+7zdnZ2d3ZGZ3XfP7MZyy8evk8RB129vZwdXNDfu5tlJeVS3MJIYSQxllKf9aiclGh4M4dChVCCCHNVi9YlI6OqKisxAONRppDCCGENF29YLG3t4em5L70jBBCCGmeesFiY2OLstIy6RkhhBDSPPWCxcraCpWVFdIzQgghpHkMNt4TQgghj4qChRBCiElRsBBCCDEpChZCCCEmRcFCCCHEpChYCCGEmBQFCyGEEJOiYCGEEGJSFCyEEEJMioKFEEKISdW7H0t3T0/cyMqSnhFCSMu5euWyNFUj9+Z9XEzIxcUzd5CdXoLiO+37dh4PqwCFHRASoULopIGwsm798/9evX2lqaahEgshRJYK8h7gh69S8be3TmHP2nRcPlWA4rvt/x5RFuyo/OB+OTZ/FIf//OsUm257gwJTsBBCZCcnqxg7P7uIE//Oxr3CMlRWVrHHQ4CdzXcEPFwqWdHl+1XHcXhPItsGbev+WBQshBBZKWQllX1fZyAt4Q5KSytgaWUBS2sLWFiwF/mjA+C/1drGCiWaUvyw/jRi951DwZ0S6VX5o2AhhMhK7K4sXErMh7aiElaKDpIkhrCfbmNvhTu597Dvu7OI+88FYbotoGAhhMhGXvZ9nDl0C+XaDh4qemwcrJGTVYCDf0/C8UMXcTevWHpFvihYCCGycfFMHu4XaYFafVWJraM1rmfcwcF/JOP4YRYu+fIOFwoWQohsXDyTDwtrwMKKSit18XDJupSHA6zkcuJwGgrv3pdekR8KFkKIbNy8XIKqhw87Sht9s+nCZd93Z3DiyEWU3HsgvSIvFCyEENkozi8Xq8EoWYzi4XLj6h3s+vp/OHY4FaUP5HdtDwULIYS0MbYO1sjNKcK2VfGIP3QBVZXyusCHgoUQQtog3hW5uPgBNn0Yi4N7zuDhQ/n0eKBgIYSQtsgCsLKxRKm2HN99Eo8DPySgrFQrvdi6KFgIIaSN4lfo81EJHpSVYdvKn3H0xySUsFJMa6NgIYSQNoyHi5XCEvfuPcC/1v1PuEK/qKB1uyJTsBBCSFvHwsVGaSU06O/9NgE/H0xFQSteREnBQggh7YTQFfnKXcRsP4vjh9Na7Qp9ChZCCGlH7JyskZmWjwM7EnHySFqrlFwoWAghpJ3h4XI1JRcx37NwOXqpxdtcKFgIIaQdsuukwNWLefhxS4IwcGVL9hajYCGEkHaKl1z4qMi7N5zCsUOpLXadCwULIYS0Y7xB/9aNAnz/+THEHTjXIlfoU7AQQkg7p1Bao6jwPrau/BmxMcnSXPOhYCGEkHZOuIjSxhLFJQ+w+eM4IVy02grpVdOjYCGEkA5AGP7FCrh3T8PC5SfEH7yAB5oy6VXTomAhgNID7r4eUEhPCSHtk4WlBSwVFrh7pwQ71hzHcTPdLMzCq5dPrZac7p6euJGVJT37ZSYs2YzJPaUnDdLgxNfTsP6Y9LSD8nvzS8wNUgLX9iPy/e3SXDPrFo4Fi8bB24bthcs7Mfuj3ZDH+KjNNQRTv5iOwY5ARkwElrXQ5iOm9Zu+f5OmOrbKqnLcLrqEqoeV0hzTKyupgGcfNSa+OggDh/vA2cVBeqW+Xr19pammoRJLR/e0H3qzUOGU7j7wEScJIe0c7y2WeTFXuM3x6Z/STXoRZcsES04sPlixvIHHSuxIlJYlLWvvYcTf5RNa5CQfQ6owkxDSEfCLKC+fy8F/tp/F6TjThUvLBItWg2sXUhp4sB+kkZYlLUsTi02zIxA5JRLvfX1cmkkI6SjsWbikJWXjP9vOIoGFS3HRL29zoaowQgjp4Hi4XGLhsndLAhLiL0Nz/5f1FutAwaKEQilNErYtaGMQQmrwarGMC7fxr69P4lTcJZSXPfp1Li3TK+xRejm5DEHoK+Mx3McD7o5SR9gqLfJuX8aZw3uw61BK/d5L4UsQHeoFlCRh5cJj6DfjRQz3UsNZent1byG23Aa2nAVf7i/74fZqBJ4N8IDaVlxOW5SNEwc3Y+te6TvYukxmnzXSWw2lFMWa/HQc+cdq7DpZKM6Q+L25DnODHMR1+FOU4TaL8KXs+z1hgSzsenUh9kp7oKFeYQq/0Zj8m3EYrPd7eBVjzs0UxPx9A+JS69YlhmPBN+PgbcF73M1HvM8svPykZ822rP6OIZi6ZjoGOxnrTaWE++hwTB4ViIAuKiik368tyUN6+mn8+O12pBaI82pj75vwGl5+xh8+rizUde9j2zbh593YuuM4mlv7qXwqAlOeH1izHuzvQ9HdLMQJ+8GvkV5hKviFRWLy0/7oyTagsBWE92cj+b/ba/Z1G9K3nx/+8NpUuLm5Ie1iKjZuWI/8/Hzp1baJeoWJWqJXmDG8t1iXbir8ft5wDB/zK2Feu+gV5jZ+PpZHTUdYkN6BkLNUQO3uj9Dfz8eqjyLhbfSkW4XJi6djgq/eQdggNSZ/PB9TBtWECqdw9sDwF+dgQUQgFMOmY+mn4mfpQoVTuvlgwvQlmDrM3Gf+7AD98lJEvR2B0Lq/hxXB3L0GYsrba7Ag3Hh/LvXYJZg70qf2tmwK5UCEfbQGH/4+BMHuNaHCKRzV8Asah7lRqzFjfN3vZttmMXvfiwPh51YTKhzftoPHT8eqjxvaf3X5YPi81VgzfXTt9WB/H5yF/RCFD6c38BffZTSmrlqNueMD4a0LFU54vyfb1+zv0+IIuLexQpwuVDhdyBDyS9k4WCM/9x62fBKHuIPnpbnNI7tgUQxjB/Qwf6j5mpVkIWbbasyewRuXIzBzcTR2XMgTznSV3UIwb344xH9WdTh6sgMI+1N6P+95tnbXcSTfEl+u5ughLKfJPITP35kmfseqnTiRz89dFeg5cjo+eWkIPBQaZByJltZjFt7+JhbXhNNbFQa/8BqadKnOo/INxxtjPMF7mGtyU7Djm4WYydYzcso0zF6zHTGZfGso4B06HS8HCe+oQwlvLxU7O9cgNX47VvJeeN/sxJHUPOl1Y9gBe/50hHbjh2Etci7sx9rFs4RtFDljPpZti0VqCXvJUoXgsFm1A3bEiwj1kt6XuBPLpG0b+VYU1p/MFvafwj0Eb0QOERZvjN/MWZjSn/0GRpObhK1r5mOa3npkaBRwf4qFn97JQY0hmLIoAoNd2STfBmw/vv0W334RmPbOaqyPzxL/PnmNxqI5kyD1vJY9HiS6UNF5zE1dbx4hzSXeQ98CBXeL8d2ncTh+JEV6pemsVC6ui6VpQSeVCveKiqRnv0yfEZPhxw/wzr6Y9Pxko49f2e9CnBCMQxD5lwnwYf+6tdcOYdGiz3DyYjbKpDoKbWEWMo4dwKnyvniyPytBOHuht/1p9l7pDmmPj8AkH/EAhNxYvPdulPD+orw85KSdxqVM8SW+3ES2HNt+7Hv2s+/Ziqsl4pdob6fhTLwCfcb2g9pKATuFFhkxn2LZ1rPSepRCk3UWx6wfR2g/V1jZK1B1+QDOScdp9eAJGNqV/YDy2zi27zgMVkw8PlL6/iJc3H0Ul6TZ4nvZAbkoHXuOSmcKd88i7roTejqmYc0HX+JcVpFUZaNFWU46Lvz3CEoeD0WAqxNc7W4h5sQN4VX2JRj+vC9c+Y9EHmI+nY/1B1KRz7ZFUVYazp2/IiwF9EDw+EHozg7KBRm6/cB2WfhbeCOY/T4U4sS372Dl1tPIKSwVX9QWs2XZNvjvddgNGgAfBwd079MDl3W/d0goXuT7oSwNOxdGI7FY2oGlt3Hj9CGcsu+LLrf2Y/3mnyBtduO8I/Hm7/rBiU0WJUZj3tLtyMgpRhV/TVqPuKN30WXYQHhK2Vbrd0S8gal+ndi2Zr8jeh6++Hc6NNLPqCrJxo0zRxFr8TjGsH2pcPWAc+Z/kFj3BERmeHiMGROKnp6e0hzR2YQE/PxzvPSsbfJze1aa6tgs2P9srR2gtHVplYeDnSv70xWWlQ7Iy6zE2Wt7pTVrGnmVWCaNQbAjn8jDkW+3IMdIJXz+vtXYIbQpsDP14EkGSgyFiNsWbfT9NdjB5l/b6x/8NftxMVeaLkjCd9+nS09qaHddxjVhiu18Hp5mpE3YjM9XGFhPgQZxV8RUc3b1Ev6sK+/UZml7NZU/JgR7ClVGmtT92HS0djtSNc1p7PjqGHL4tKM/np0kzAV+kraNrT/CVr2PsLED4a5Xz5S/fTk+33CoCfsH6DnWH+58QsNKa1/HGm4H0cRi/Q8pBtps2O943EM4gdBc2MNKJ4a/ULNrN04I7UQqBAwPFubJ1UR2IvbJylV4evhwoV1Fh7ettPVQITUsLCxhq3BkJ7ZOrfawt2UPeyfczWns7K++lgkW3lAsVN8YfugaWv16SeNV5abgQEZD9wzQ4MTZTPFA4uaBAOGsXE9JFs405YJLo8uxT5bazIquJ+Ga+W9f0AgVek6ahbkrv8SXGzcjelPtx5djPKTlDNEgIylJmm6qQHgKNSpapJ7db/hgrpOxH8lCCCvg0Uuq2rq5GSu+PY3sMkDp4oPQl2bhw4+/RPTGaCz/eD4LmkA0tTkjwF0t/KnJSsKJhoLo6HEk86q5WvjvEP9yKPuEY81X0UYeszBYOjlwVvsKQSQ3vJTCA4WX8HmIfLr8Y+Hx9tzZ1X/qBw0hpmJp1fx/EbJrYxGUatBoZVyJtsEDXlMzttHlqsqliVYiNKBHYdHkmoZwbZkWGt2jKT9UqDd6FGwb1ztY15VdXbWkT3N0NRb+kbdH7cSRC9nI4XVeus4XL83Bmr/OQbCLtHATaMuMlJqqNbKfFApWtDf+0O9g0Np4iPwhcqpQKuHTulIKt/uHXbVChIcMBQqRG3kGi50SjdYuOer17mnHer4SLjWga5C6L0pouJ/2x0jM1D2mRuCDk401xD8qto2FqsmGeEBpJ03WU4j82N3YumI+3vtTpNh4H5+FIh50LoGY+ufwxvezRGErtZ0Z1VCzOyvhbnjFYGm53uP97WjNAioPFF1Vl26al1J0gbKH/UmI3MkqWFKvZosliM7+GOvdUPFLicFPeInVKfnZSG71qio9lY2XcIK7q5tY3eKBwb2kqqDU3YjakSRW/9XigeCe4jKmk4QsoUFHAb8nxjUc4N7jENCZT2iRfbVmSBjlU+MQ7C090SlIYgf4hXj7oHidlMLLH4OFKeOSc8TQVHoGYnBD9WcjhiCgXgjy38H/cijhHRggzjLCLWAgnJtaP2dGff38pKkaG6PXU6CQNkVeJZbdB5EgVL2oMfKV/zN6XYHb+FkI8+MvapGRsFtqRJeH1NtF4hmvoyeeMtD9V+EXicn9TXcEcwufjlChdduUUrA3IUsIeaXfOEwZYaS0wKvp/jhUbFwvScGPu/mEWrgwds30cEz9Q4Th7uClDVdj6rt2IEXsHKD0R9i00YbbZpQhmPq8v4HXUhCTkifsD/WgSKPXHCn8IvDGzFlY9cVqTAlpvRYWXu1FSHsgs6qw49j0fZLQvqLoORoffrpU6FGkO5NUeoUgdF4UFoX5C1UovEvy19uzxRflYm8SLgqFFhWGT1+OsBBP8YCn9ID3pDlYNDtEPBA3STZOZIltC0q/F/H+9HHoKbVL8G0xefGX+CRU7L1lakXbv8Ve4WIdFQa/EoUP54UjmF8Pw/HfMjYScz+dhdDO/NsLceL7ddIoA3mIiRd7aCm6sX24cj5Ch0mdMnTbYLyP+DznMk7wPxuSsR07EsVt4BwQgU8+nYORwfqfNwuLVkZWN77Xlf/NTsQLb2e/47VVWPTGJPjpfoeLJ4IjluKTeaPRk39gcRbOnG694q/Qsys+TnpWY+KkyUI7CwUPaStkOaQLv/J+7ovSRZJGaG7G4rOPopGhXzekP6SLseFUOP0hXYwsp1v3osR1mP2ZoVF/w7Fg0zh48/r7Ojcpc2Of/yH7fOHgZ0BeZhZsvDxZODZhSBd2Nj7lo0gMN9rQzQ7qFzQY3N+jznbWH9KloZuoNTCkCy+RvKu7SNKIqkIk/HM11u7T75LNRwt4B+9IF3YaVMZ++6fst2dIzxvEr7yvuUjSoIIsXFN4oqehIV34lfcLpYskjSlIwtolUUgwODxNy+LtK08/PQwXL17EMRY0Q4cNr+4NxoOnPVeL0ZAu8vSvtDekqaaRZeN9/r7lmD9nHTtTzRJ7E+nwscJyUhDz3XLMfrdOqMhI/vb38d63sUjO19RU+fBxqfLThXVfeKCw6Q3EfFj7d5djbXx6/W1xMwk71szH+htNrVhqJn6dyrsz8d53sUjIKYRWr3cZHyssNXE/Vs6ZVSdUOA1yti7E/HX7ceKmgfed2on33mpqqHDpiFsxCzPXHTK4Hsnxm/Heu/tY+c6IgkNYP3sWVu5LQkaRtvb7+bhw+9Zh5lvyCBXu57g4oQsxDxAeJvxP3nDP8YDhDfr8ynsdKskQuTFriYUQYjo8QHSlF44HEC/dcDyA+CCUbb3rMZVY5KldlFgIIfXpl15492NdqHA8dCY9/7z0jJDWRcFCSBvDA4a3vdTFB6EkRA4oWAhpg3i41K32Sktt29VgpP2gYCGkjeJtKrydheNVY3t200WURB6o8Z4QIhvUeC9P1HhPCCENYafSD6vYo8l9/klzUbAQQjqMqkqWJhaAlbUFrBUWsLC0EAKmSSGjC6Sqh/J8yCgoKVgIIR0CDxV+FwzXrvbwHeSCvk+6Qt3NHpY8XJpwYOYv8+WqtML1yfJ6VOhWkK9p66M2FkKIbJirjUUoqTC/neMP/0FqKJ1shEApK61Ayqk8HNlxFVnn78HWwUpYrq5K7UP08HNCvycfg7OrrTRXPqpY4N2+XoKTe28Jv9XCxEWG5raxULAQQmTDHMHCq6/KSirw+icD4Bv0GOyV1kIVmPAaO/ppyytxKfEO/r0+Dbeu3oe1Tf2jctn9Sgwc644xL/eCm7vREfBaTWXFQ6Sfu4MtS86horLqke762BBqvCeEEAkPDn72Hji6M3r/yhX2DorqUOEs2KSNrRV6+jpj0BgPVJbXOs+uwWZbsffxZW3trGX4sILCQCC2FgoWQki79ZAli8VDC/gPdoMdL6kYOZF36KRAzz4qOLoqhHYU8stQsBBC2i8pI5xUNg22O/CqI1slO+u3s5RV76q2ioKFENJu8RIKD5TCO2UNlkR4G4XmnlZoS9GvKiOPhoKFENJ+sWTh1WHn4/JQUa53I546SorKkZlWiDINCxbKlV+shXuFqdBz7AuYMCIQfm4qKHU3JqzSQlOch9Rzsdi7cz+uyeSGS6amf4fI197fLpcu54TIhll6hbF/aBWlVYhY+Dj8nuwMpSNva6lJD02JFin/yxW6HGen34eVon6yCL3Cxrhj1Eu8Vxj7N2w8o1oeW13exfhy8h189+F5VFa1fq+wFgsWt/Fz8OakQLg31gW8SoOMY9/isw3HhfumtycULIQ0zFzXsfBqMHsna/z6/3zh6ecMZSeFUDLhJZTMi4X4X8wNpCcUwtbR8HUsFWVV8OrvjP5D1XBythWuG5ELC54s7P85WfdwbPdNdlzh17G0+2BRImD6Usx4Sl19D/iinBQknE3CmQtZuM+eO3QLxIDAQAT7ecBZqpzTZO7HB4u3I1982i5QsBDSMHMOQsnD4EFhJXoFdUL3Pk6wtLZATkYJbqSVCMGhsG+4ZYAvU/6gSrhYUm54jFjbWQrBaI6qPNkFi1v4UnwY6imEijY/CVuj1yEu1UhZROmP0DmzEOatQMbBKKzYmlJzz/h2gIKFkIaZM1h0KsrFsbU4XmVkyQop1GDfMHldIBk0HXN1ocIOpu/NjTIeKpwmBTFLZ2PZunXtLlQIIfJgbWMhdCvmD96eQqFiemYMFiVGPjcQws1SS5KwdnlTq7U0yDh5mkKFEELaKPNVhXWLwKKPRqMni4iMmIVYtj1besFEXIYg9JXxGO7jAXdHqfWmSou825dx5vAe7DrUcIlH4TcakyeMxgD2frWuQ4FWg5yblxG3PxoxJwulmQYoPRDw4msIe9Kz1ncX3c3CiR+3YUfZJKx6PRDOLFBX/ikKuhvGNlYVpnwqHC9PHIJgdxUUUuRrS/KQnvoTtn6zGzntrTcDIXW0RFUYaT75VIU97ctChctG8m7Thorb+PlYHjUdYUF6B3bOUgG1uz9Cfz8fqz6KhDc7htenhPerH2PV2xEI7a8XKpxCCXevQIRNX43l88bBTZpdi/cL+POny/HnkT71vtvZzYeF3TtY8KTe/CZRIfjN1VgzfRwGd6sJFU7hqIbfoBfw4V+XYoKfwR9ECCGyYrZg8eviLE6UFCLDhGfaimFzsCDMH2q+5iVZiNm2GrNnRCBySgRmLo7Gjgt5QjdlZbcQzJsfXi8c3MLfwdyQbixeAE1uCnZ8sxAz2Xsjp0zD7DXbEZMprqy6fzgWvBlS3ZNNoAzB1FmTEODIpqs0SI3fjmXvTBO+e9o7q7E1kX+3At5B/pB+fZP4zVyCGUEqYboo8xDWLp4lfGbkjPlYti1W3H62npg8ey5Gym9gVUIIqcV8JRYrG/HPu9nVVUH1DcHULzYjelNDjy8xdZi0OFt+yu8ChYO29tohvPeXhdhx4DSKpODSZMYiZsUcfLAjBUXsuaLnaLwe7iG+yHULx+sjPcHXrCh5M97+y3LExGZJ18toUJSwHzsWz8ay+DyhGs05KBxThtY07PV8ZSIGC4lRiBMbZ2Plhv3IkOqntDmnceSzOZi9IYm92gzdIhAWLIVKYjTeXrwZCZnSJ2iykXEgGsve3Y3UcvZc4YOxUwLF1wghRKbMFyyV/EjIuHrAT5x6REqoe0iTk8YgmJcWkIcj32422uaQv281dgi9z1jpIXiSVCXHgmHiQHjzIoiGlVS+OiQFSl0aZGxYhyO5fFqJ4FEThT7igD+GewtdEaC5sAfr4w2/Wxu/Dj9mSL+9CXpODBDXj63T1s9iDbcLFezEjqQCoU1G3SfkF25PQjou4Sr8cvF6lHJNFbSlVaiqqNvaaQRbjL9fzg+5MFuwpN7mZQbGUWWkrYM7jvV/Equx6j9YaUDYUBrkSX0J/Hp5iFVTuSmIyRBmGaHBibOZYnC4eSBAmAcEuEvBkJWEk/zKTKPSEZOaJ0wpuvign5AsgfAU6tU0SD5+iE8YocGRtKa3KQV0FdcJdr6Y8lU01hh5zAtyEQPOWQ1v4Q2EkObgA03aKa3g7uWI3v1dhId7L0concSh8hs8MLPX+GCW/D75CltLWT74ffzlcnGc+UosP1/GNWGCHdgn6VVHNdUIT3QVjqSFyEkU5tQo1QhVXQ0q0RrtFaYtK2x0+xex7zCqsXGCbhQ1vn51WSqgtG3g0dz+AISQanwsLTt7K/R7yg3PTfPFqx8E4NWlgfjNrL54YlQXOD9mx4LF+FGhkr3fycUGvQNc0O9JN/Qb9JjsHj37dRLWVQ4lFzNeea/EyIVr8DKveypJwud/iUJyA8fq2vh7V7P32rDSSSxm/yVaOFBXd9fVm2fU2PlY85I/+6Qs7JqyEHvZrAlLNmNyT1amSN2OWZ/sbzBcnF+NwqoQVprgXYZnRiH1YTgWbBrHSgusNLRhGtbHSwsaErYE0eO9xPc20t14wgffYrKnBYqSozF7Vay4ICEdlFkGoWQngnw4llERnhj1gjccnaX2XwkfhDLxp1vYu+ESSu9XGLxgsqykEoPGuiN0ije6dHeU3VhhPBQvJeVj43tJ7f3WxBoc+fdpCBVKjoGYYaCHljG859b/46HCyhypx7+vDpDUq9liKaSzP0IbrA9SYvATXuy/TH42koV5QHKOWL2l9AzEUw32rvJBqJ9YRaW9nY6Lwt+hJGQJV3gqETBkNJ8wgoVi36aX0JJvievk3COwui3IIO9AePNRVQkhTcf/7bJjbGcve4wN86kXKpzSUQG/gW4YMqEbSosrpbn18YO1FXvwkZGtrCxl8zB1iJiCGYOFSVyHlTFZQhgoeo7DhyvnYHiD12Ko4PfaciwKFXtu8Z5fm3bpNYbsPoiEEj6hxshXImDsOOs2fhbChO/RIiNht1QlxwoKe04jg6+M0h9hfxwtBk89Sni/Nh0jO/NpDRIO75FKNimIy5CCqf9ETB1m5N0jZuFZIRSb5tqBVOTwCZeBeLNu92Ydtr6TX52JBR9/ieUzQ6SZhJDG8JKFBSuxDJ3YA9YN3BPeUWWD3v1dYdfJWppDfgkrlYvrYmla0Emlwr2iZrcQGKU5fxLX3J9CcHcHKJRdETRsAsYMexyuahVsqqyg6KyGs/9QjBz/W/z+Dy+zkoiTeHAtOI0vlkbjaq2Gkhs4d683hg/oCqVzb4wMGQC7imLcyMlGGVtO6RWCkVNn4fURXnBiS2uvHcCKNXrD7xefR6rjAIT4qODQJRDPDO2LqvLryMkqYhGkhHPwaEz645/xaoAKfPDsosTNWPmPzOomlaKUMnQZNgDd7ezQPWgk+qgrcZt9dwErSivcB+KZ1+Zg5q/Zd/M38JOI8ts4tu949VA26sETMLQr+3VF6dhz9Lw4s+AscnqMwFAPO9h1HYCRg3qgrPgWbmfzdVLBLSQMM96MwNNufI0KcW7fFpy5VmujENJu+Lk9K02ZBm9vsLK0xNMsWDp3c4ClkXHBLFkp5MH9CqScyhOrw+oMEVxZ/hDdfZ3gE+QKB6emnzi2FN754M5tDc4euY0q9qNNPf5Z6p190lTTyO9+LEzehZ34/G/GhzDhV97PfVG6SNIIzc1YfPZRtIGLM/mV9wvxpnSRpDF5F7Zj5Yr99cc341fevyVdJGlIWRZ27S7EyLDmDOnCr7yvuUjSoKpCnNjyPtYfbdZVMoS0KaZuY+GN9lYWlvjt2354YrgHrPWHtdBTWVGFK+cL8M2SRDwoqahXvcTbWJ4a54FfT/GG2sPYP/7Ww9dfTm0sZi+x6GguH8eRvUeRqFHCyU0FFTvrV+juqcPvIHn/LtJTfsK2z6OwNeY879RllOZyPA79dAtlXTvD1dEBTjbSB/Gxwm6lIX53ND7fcAD5Bj9Di4LEwziUVgyFCystOTvBQVf65WOFXU/B/u3L8NWO8zUlHX0FqTj535PItPeCp9qp5ru1hcg4dxQbo1bjmNNQhAZ3hV1TSiyCUuSc2I9DOXZw9VDD1b5m2/AebJnn2ed+ugIxqaXiTELaKVOXWFjRQ6zwt3yIXz3V2WiwPGAHnMvJd5HIzvit2DJ172lCJRaZllg6lPAliA6t3yuMENIwswxCyY5wNnZWCJvjD/9Batja1W5HEUorFwqwd+MlXE0uEobTr4tKLDK70Vd7o3APwYSRSuzdul/olFCfXlfpm4cw7d3NRpYjhNRllu7G7AhXWV4FT39nFg7d4BvoCpfOSuGCx3t3S5GZUsTO9G/h/Ilc4Uy/bmmFE25N/CsV+g91g6NzE+rzWxjvpJB34z5+/uEGm64yeYmFgsWMlGFLsWo8v3FZIU5smG9wWBc+SOby1wLBW0uuHZmPDzab+HYBhLRj5hw2v+x+Jbp6O8C7vyvUXR3Y0Q8ovPMAV1MKcONSMaxs6leB6fBw4le32yqtjHYAaE38IF7FSi2aexXiDBOjYDGrIZjy+XQMFwai1CAjfjf+/mOsMBAl7xUW/OwkhA31FO/bX5SEz99pzkWhhBBzBgvH71dfrqlEZRm/PTFgZWsBGwfLBrsi6/BwEf8jX6YuqehQsJib9zjM+FM4gl2k54Zo0rE1agmONDieGSGkLnMHC3k0zQ2WxmOa1JaxH2vfXY618enIqTMembYoGwlHojF7LoUKIaTjohILIUQ2qMQiT1RiIYQQ0qooWAghhJgUBQshhBCTomAhhHQofPgTfjdJ3vWY35ZY5j2I2yRqvCeEyIY5G++FQGFh4tzZFo4u4g0qSgq1KLmrFYZEaexaFiGMyqtkG0R8GBdrW+MXef4SdB0LIaTNMlew8DCwZLnRb6Abej2ugkptJ8y/d6cM1y4W4cr5QhTllgpX3xvCQ8X5MVuouyvrjTUmC+z3lRSX4eblYrD8NHm4ULAQQtoscwQLD5VKbRWCR7tjxItecPdyqh7luILNv329BKcPZ+Pk/psGh8zn+NX6/Z9W4+lJ3fFYl4ZuuNE6+D35s9IKsPuLy2yaxgojhJBqZimxsCMcv0Pknz9/Ei5qe4MH3VtZxTjwfQYSYm4J1Ul10ejGdB0LIYQI+Hhg/G6Qg8Z3ZeFia/RM3pWVQgKf7gpLa/Z6rVNt8igoWAgh7dZDXg/G/t/Dt1ODZ/F85GLe7sIb9fkQ9OSXoWAhhLR7TerJRXliMhQshJB2i1eD8aNcZmqhcP97Y8pLK5Gfo0FhTpnJ2yc6IgoWQki7xe8SyQPl2M6buHen1Gg1Fw+VM7E5sKBQMQkz9woLwUuLRsFLeia4cRjLomOlJ02l9zm69w8LQVB8LBKF1wkh7YE5uxt7B7rgual90N3bGQq961VuZNxD7K5MJB65LXTb5WFUF+9u7D/EDYOf7SY09MuNcN/+lLuI2Xi1nXc37v0iZvxfAAoPv49t8dI89MbYOVMwEMnYGPVP3JLmNqbr5Hn4Q++rNe8ZNhULRgH7PlhPwUJIO2LOCyT5f9x7dELP/p2EWxRbsdJJ/vUHuJZ2D7evleB+kRZWCsMHZF7qcXC2gcrNFtbW8qvo4b/vwQMt7mQ/ENuKTFzwkk2w1AsDHSFweiF9ywocuCLNa0RQ5BKMh15Jh4KFkHbJXMHC8YNveUkllCprdFLbClenF98tx4Ni8aLIxtpWeNdlfl/5KvanHFlZs9/Au0ubgbyCJaCwaQd/qXSjkp7WVJdJJZzq65GKcfpsIQY+0UN6DmQePgyMYimjXzKqFzzi5/hc2YS1u1iaCa/XfAZXmCy9xvAgG3o3GYUBAUL1W6bus42uJyHEFMwZLDo8YPi4YfxPPsyLue4T3540N1isVC6ui6VpQSeVCveKiqRnj67kogI9ngnCoGdGYDh7PO6ahVMXC6RX9fCD/PN9cIsdvNduOYq42Cr0mDgKz/lUIe5sIjKOH0Wxzwj43mMH8b9uQ0baGcRV+mB473ssOKJw8FoWrHyewSC3h2x5MRCDxjwP306WKLp+DBn8K3uPQuggJdIP/IgMFxYOz7vj/JaPsOkH/n1Hcdl1IIYE+MNeWr7rALa+vmx5aZlz13Trqf++LNiP/A1+68/X01RtUoR0bH5uz0pT5sNLKjxMLNlD6DVGGpV6Z5801TRmrCyMxbYP3sfG5GLhmSpgChYsWiI8XhomzBIE9WUlB3bmX9MOw953+DorOvVBkDSnMYlpN/SWD4F/9+s4nQz4BPYW5nQN7AVVyVUk8wLJlX9i7Qe1q+FuJV1FoTRdTbe8JKhvd1aq2an3vis4sIuVaro/ibHi1xBCCGHM3gp1a9cKLGMBIz4OI5MVP71GzZMOxr3RWQUU3mVBoi/+EltOhc5NPWDrL99bzUKkAMl5hVD1HoCubFZXVycUXjlTp7NACF56Xwy6BfrVWzqFeXrL8/W0qBWORt9HCCEdXAt3b2ClkSU8XJyqSxMG8XBoVgn1OvLvi5/JSyfgIcLDxtGFBQsvwRQjPUkqavB2EiEYRkF1bpMYeFtYyUN81YgecHMQ22FqQlL3aHonBEII6QjMFCz8upMlmDHZUHjwEJAmcQW57Iiucq3dkA4PF1YSKERukw/YV5B8pZiVUEZhJPtKMURikXKjB/wj+8BL77PEarFkbGShoGusF7+vIeI611tPQggh9ZgpWGJxJJkd6AOm1GpPEQwbhYGO13FMOqgnpvH2lFF6y7FQ4j22blwy3pssu4BFRe2qMqGdxLEHvBxrQuTW3WJ4dTfwWUJJRsJLMHV6iNV3BQdO1l1PsefbgkVTm9wWRAghHYEZe4UdQ9z1xzD8+d9hjNQzTHh0zsLGj79DurQcrp2ps1xvqOp04+W9tHxxtab3VUEpXAY+hYGD9HqbCfOC4JF7Gv+Qlisp98DjgV1w69QmsWcXn8fWq9hnEsZPHCmuT6AS57fEozywHzwsxM+q930cX89KHzw36vnq3/JEl1y6loYQE2qJXmGk+ZrbK4xu9EUIkY2WuI6FNB/d6IsQQkiromAhhBBiUhQshBBCTIqChRBCiElRsBBCCDEpChZCCCEmRcFCCCHEpChYCCGEmBQFCyGEEJOiYCGEEGJSFCyEEEJMioKFEEKISVGwEEIIMSkKFkIIISZFwUIIIcSkKFgIIYSYFAULIYQQk6JgIYQQYlIULIQQQkyKgoUQQohJUbAQQmTDyc0GsGATD8XnpBXxfcD2hbBPmomChRAiG918HWFpYUG5IgN8H/B9wfdJc1GwEEJko98ANzysYAe1SoqW1sb3Ad8XfJ80FwULIUQ2+g1Qw8FZIVaHkdbF9gHfF3yfNBcFCyFENtQeDhgwuitsFFao1FKppbXwbc/3Ad8XfJ80FwULIURWQiZ7ok+QGxTWFC6tgW9zvu35PuD74lFQsBBCZEWltsf4173RN/gx2NlZo6ryIaoqHuIhzxjKGdNj25RvW76N+bbm25xve74P+L54FBQshBDZcfd0wgtv9sPg5zzQSWULKytL9rCgI5Y5sG3Kty3fxnxb823Otz3fB4/KwquXT61zgO6enriRlSU9I4SQlnP1ymVpqkbuzfu4mJCLi2fuIDu9BMV3yqVXiCk4PWYDDx9H9BvwGPoFd0bnbvXbVHr19pWmmoaChRBCiElRwZIQQohJUbAQQggxKQoWQgghJkXBQgghxKQoWAghhJgUBQshhBCTomAhhBBiUhQshBBCTIqChRBCiElRsBBCCDEh4P8DxytBPTYzCXUAAAAASUVORK5CYII=;" parent="1" vertex="1">
                    <mxGeometry x="205.49666666666698" y="1450.5033333333336" width="406" height="168" as="geometry"/>
                </mxCell>
                <mxCell id="mV81zlIoAhPw-ZKS14NC-10" style="edgeStyle=orthogonalEdgeStyle;rounded=0;orthogonalLoop=1;jettySize=auto;html=1;exitX=0;exitY=0.75;exitDx=0;exitDy=0;strokeWidth=5;strokeColor=#050505;entryX=1;entryY=0.75;entryDx=0;entryDy=0;" parent="1" source="mV81zlIoAhPw-ZKS14NC-5" target="mV81zlIoAhPw-ZKS14NC-3" edge="1">
                    <mxGeometry relative="1" as="geometry">
                        <mxPoint x="285" y="1145" as="targetPoint"/>
                        <Array as="points">
                            <mxPoint x="530" y="1112"/>
                        </Array>
                    </mxGeometry>
                </mxCell>
                <mxCell id="mV81zlIoAhPw-ZKS14NC-5" value="" style="shape=image;verticalLabelPosition=bottom;labelBackgroundColor=default;verticalAlign=top;aspect=fixed;imageAspect=0;image=data:image/png,iVBORw0KGgoAAAANSUhEUgAAAJwAAAAsCAYAAACQctE4AAAAAXNSR0IArs4c6QAAAARnQU1BAACxjwv8YQUAAAAJcEhZcwAADsMAAA7DAcdvqGQAAAaBSURBVHhe7Zy7bx1FFMbHvvc6EgLxyEMk5uFQhCIkFBRUJLb4B0hAQQjxlChAoaFLY/tGAtFQYYRoIHGBFCNiBBVN7BgkHkqKYIJECmJDjBXbEEN4yFEMzLd3xvfsuTO7s7uXqc5PWu3De3bnzPnOmZm9UXr+1ShBiESv2QtCFERwQlREcEJURHBCVERwQlREcEJURHBCVERwQlREcEJUKglu4TelHh5T6pLeC0IIlQR35JOW2D76xlwQhBxK/5ZqqxuM+29Wavwppe7Q+6rMLV0zR20GtvWZozau+3xYe2rjeqYP/q6itnPLa+ZM227dFGTP7QZ332SOOvlxJd2+u7b4n1/EF34vcN1P78vzrbTgxj5T6s0Zc6J5eZ9Shx8yJxV4bmxOHZv6xZy1mDq6K9XhcHDni7PmLBvYwR7AxnbOyOM71Oih7clxHve8NKsuXk536sW395gzN82JRe3Hijdozw5tUSOO98Nu9MTP5iwN7EYO7dC2m82VFntf+U7Nzv+dHL/2ZL86cvD25Jgzff6qGhq+YM5a4FnvHh5QPeacgjggHhT056nmLtVDDHoePWuOdAH68AFz5Kb0kLqwag4MJ8+1ql5V0Cmc40yAMUGnzxGxAYjI1U6LFY1LbADX8Xee6hCDT2wAdqcz3puHqx8TPwqUHNyf5XsepQXHFwoQ22TFuVwSXEeQqjhYlRn9blc8spKgOZEWDSoTKkPWcAPfqZ+4N8SuCPz5IC95XDz/VrrqFaFrFQ5UrXI0e1HqfZ2C6yjddhvVw6MFAaJ/s8NpWY5Nt4X1nh56LL4gJdeJQvF+DL92jw3PQTuzmGre22EHPwe2bTJ3FIMnM4Z0y7j2Ma/IUdGXEamlsODQcNB/S7JLUbXKUSf2IbP1BNvSPLFojuKR+EoiQUXi6/SkzWR+c/r8H+aoBQKHZIKQ6DxofrktBtxDFwwA1zDnc837QuDJvH/3jeasM0lcwHfqP5/bhVJIcOMzq+qFdxbU8elfvSvSslWuIwMHN+uJ/faN2PEAxABBsnGwFZd2um9YHdjargaYk2Gx4loMUagA0A+Yz1m7stWEQp+xnyVzaMVKxUPbZPnjo5DgXv/4iqo3GurVyRW187br5mqaslWOZyA8o9UitFO6Ce1QVFzwDNpmcLUHohzWK0mKDQ7EAxFhUYFrFAiZTg2AtbPig10Z8Az6PlfyHA14NuJBbfhcNYRgwb3/xZ9q4fceVe/rS0S1vLSafH9zUabK0eAiA6Ez3ikxh1XaHoCKC2h7fEmAgGLORe+1wAZVb2jk+45VKoZLiC7LrsxQ1pHMBiRPkRHkbiQTq3JFi0Cw4N749C9VrzeSClfT+88vrKmD95s/MopWOR5c2uEQnyXmsEqHSy4Aeu5LAiSLnfBjkUADDRCs5gedthBdlh36qmiQaf/SRQfaaEF7eBxcwPfB+/L99xEkuIkz19Ti1VpS3eqNPtXQ+y9/WFeP7PH/ulCkytEMBBg+sOGDIv0uFdop3YAGFce9j51N2oN20b/xJEAbKQgqRAPx8Ko3v7S2MUfkIuJ2dIFRBN5fdk4JXzBU0yIb+r1zmCxcioo/SHAnz/2jarqyobolFc5sGFIPdKHKuUTEA2cJ7ZQqFBE12snFiYDayT73wxcg+AU7zNP4Pck5UYavb1zwZAY++9ARJKlyrOqHkis4VKozl+pJVUsqnN4afY3k/Kcr6+rA3mpVjgcXWW2dQZZjo86h831BK0JTZzqy3G4ItoWLGu+3ww9vD+DDyrwOKPyyk31bUeg7ABYitHBBCMn8TtvZ+7GHeGklKhJs2r+87TinQzbeH7owQeUtQ67gJnUf1er1VoXT+3pDH+s5XE3v77y1VrnK8eDCEcxh8NEWQwk2LMcp/NtWN8BvlBYqaATklJlT2TahfTRweZXBVVFgbxciPlx2+A3Yij8Pnszw0fat9QX9PUTmZNPfhiUzF2somYL7er61gd7e3tQc7okHb9j4ZJFV5b4y9j54cF3Qb0YAP4p3GysgHqSntShc0yeaBBCGtcNz8GM4FSQFgcJKFIGn8zKIwbdCBdYu9B8cAPyCQPH3b1vARUYQmqShyH/18D9iK5StgD4xcagdki2vol1fT4ewXiu5woiACE6IStAqVRC6hQhOiIoIToiKCE6IighOiIoIToiKCE6IighOiIoIToiKCE6IighOiIoIToiKCE6IighOiIoIToiIUv8BEBJyIkdg9H0AAAAASUVORK5CYII=;" parent="1" vertex="1">
                    <mxGeometry x="530" y="999" width="517.65" height="146" as="geometry"/>
                </mxCell>
                <mxCell id="mV81zlIoAhPw-ZKS14NC-7" value="Submit" style="text;html=1;align=center;verticalAlign=middle;resizable=0;points=[];autosize=1;strokeColor=none;fillColor=none;fontColor=#000000;fontSize=21;strokeWidth=1;fontStyle=1" parent="1" vertex="1">
                    <mxGeometry x="413" y="1316" width="89" height="37" as="geometry"/>
                </mxCell>
                <mxCell id="mV81zlIoAhPw-ZKS14NC-11" value="createTicket" style="text;html=1;align=center;verticalAlign=middle;resizable=0;points=[];autosize=1;strokeColor=none;fillColor=none;fontColor=#000000;fontSize=21;strokeWidth=1;fontStyle=1" parent="1" vertex="1">
                    <mxGeometry x="334" y="1112" width="140" height="37" as="geometry"/>
                </mxCell>
                <mxCell id="mV81zlIoAhPw-ZKS14NC-12" value="onSubmit" style="text;html=1;align=center;verticalAlign=middle;resizable=0;points=[];autosize=1;strokeColor=none;fillColor=none;fontColor=#000000;fontSize=21;strokeWidth=1;fontStyle=1" parent="1" vertex="1">
                    <mxGeometry x="348" y="1038.5" width="115" height="37" as="geometry"/>
                </mxCell>
                <mxCell id="mV81zlIoAhPw-ZKS14NC-14" value="New Ticket" style="text;html=1;align=center;verticalAlign=middle;resizable=0;points=[];autosize=1;strokeColor=none;fillColor=none;fontColor=#000000;fontSize=21;strokeWidth=1;fontStyle=1" parent="1" vertex="1">
                    <mxGeometry x="416" y="864" width="127" height="37" as="geometry"/>
                </mxCell>
            </root>
        </mxGraphModel>
    </diagram>
    <diagram id="NejFCLqE7VFsQALhIT93" name="casos de uso">
        <mxGraphModel grid="1" page="1" gridSize="10" guides="1" tooltips="1" connect="1" arrows="1" fold="1" pageScale="1" pageWidth="827" pageHeight="1169" math="0" shadow="0">
            <root>
                <mxCell id="0"/>
                <mxCell id="1" parent="0"/>
                <mxCell id="RSmQOjQT8rtEHRsPoJc1-184" style="edgeStyle=orthogonalEdgeStyle;rounded=0;orthogonalLoop=1;jettySize=auto;html=1;entryX=0;entryY=0.5;entryDx=0;entryDy=0;" edge="1" parent="1">
                    <mxGeometry relative="1" as="geometry">
                        <mxPoint x="143" y="201" as="sourcePoint"/>
                        <mxPoint x="213" y="201" as="targetPoint"/>
                    </mxGeometry>
                </mxCell>
                <mxCell id="RSmQOjQT8rtEHRsPoJc1-4" value="Cliente o comprador" style="shape=umlActor;verticalLabelPosition=bottom;verticalAlign=top;html=1;outlineConnect=0;" vertex="1" parent="1">
                    <mxGeometry x="20" y="135" width="130" height="130" as="geometry"/>
                </mxCell>
                <mxCell id="RSmQOjQT8rtEHRsPoJc1-183" style="edgeStyle=orthogonalEdgeStyle;rounded=0;orthogonalLoop=1;jettySize=auto;html=1;entryX=0;entryY=0.5;entryDx=0;entryDy=0;" edge="1" parent="1" target="RSmQOjQT8rtEHRsPoJc1-10">
                    <mxGeometry relative="1" as="geometry">
                        <mxPoint x="323" y="201" as="sourcePoint"/>
                    </mxGeometry>
                </mxCell>
                <mxCell id="RSmQOjQT8rtEHRsPoJc1-154" style="edgeStyle=orthogonalEdgeStyle;rounded=0;orthogonalLoop=1;jettySize=auto;html=1;entryX=0;entryY=0.5;entryDx=0;entryDy=0;" edge="1" parent="1" source="RSmQOjQT8rtEHRsPoJc1-10" target="RSmQOjQT8rtEHRsPoJc1-146">
                    <mxGeometry relative="1" as="geometry"/>
                </mxCell>
                <mxCell id="RSmQOjQT8rtEHRsPoJc1-158" style="edgeStyle=orthogonalEdgeStyle;rounded=0;orthogonalLoop=1;jettySize=auto;html=1;entryX=0;entryY=0.5;entryDx=0;entryDy=0;" edge="1" parent="1" source="RSmQOjQT8rtEHRsPoJc1-10" target="RSmQOjQT8rtEHRsPoJc1-147">
                    <mxGeometry relative="1" as="geometry"/>
                </mxCell>
                <mxCell id="RSmQOjQT8rtEHRsPoJc1-159" style="edgeStyle=orthogonalEdgeStyle;rounded=0;orthogonalLoop=1;jettySize=auto;html=1;entryX=0;entryY=0.5;entryDx=0;entryDy=0;" edge="1" parent="1" source="RSmQOjQT8rtEHRsPoJc1-10" target="RSmQOjQT8rtEHRsPoJc1-149">
                    <mxGeometry relative="1" as="geometry"/>
                </mxCell>
                <mxCell id="RSmQOjQT8rtEHRsPoJc1-160" style="edgeStyle=orthogonalEdgeStyle;rounded=0;orthogonalLoop=1;jettySize=auto;html=1;entryX=0;entryY=0.5;entryDx=0;entryDy=0;" edge="1" parent="1" target="RSmQOjQT8rtEHRsPoJc1-150">
                    <mxGeometry relative="1" as="geometry">
                        <mxPoint x="697.5" y="641" as="targetPoint"/>
                        <mxPoint x="567.5" y="201" as="sourcePoint"/>
                    </mxGeometry>
                </mxCell>
                <mxCell id="RSmQOjQT8rtEHRsPoJc1-10" value="Dashboard" style="ellipse;whiteSpace=wrap;html=1;" vertex="1" parent="1">
                    <mxGeometry x="453" y="161" width="110" height="80" as="geometry"/>
                </mxCell>
                <mxCell id="RSmQOjQT8rtEHRsPoJc1-156" style="edgeStyle=orthogonalEdgeStyle;rounded=0;orthogonalLoop=1;jettySize=auto;html=1;entryX=0;entryY=0.5;entryDx=0;entryDy=0;" edge="1" parent="1" source="RSmQOjQT8rtEHRsPoJc1-146" target="RSmQOjQT8rtEHRsPoJc1-151">
                    <mxGeometry relative="1" as="geometry"/>
                </mxCell>
                <mxCell id="RSmQOjQT8rtEHRsPoJc1-157" style="edgeStyle=orthogonalEdgeStyle;rounded=0;orthogonalLoop=1;jettySize=auto;html=1;entryX=0;entryY=0.5;entryDx=0;entryDy=0;" edge="1" parent="1" source="RSmQOjQT8rtEHRsPoJc1-146" target="RSmQOjQT8rtEHRsPoJc1-152">
                    <mxGeometry relative="1" as="geometry"/>
                </mxCell>
                <mxCell id="RSmQOjQT8rtEHRsPoJc1-146" value="perfil de usuario" style="ellipse;whiteSpace=wrap;html=1;" vertex="1" parent="1">
                    <mxGeometry x="703" y="41" width="110" height="80" as="geometry"/>
                </mxCell>
                <mxCell id="RSmQOjQT8rtEHRsPoJc1-147" value="desloguearse" style="ellipse;whiteSpace=wrap;html=1;" vertex="1" parent="1">
                    <mxGeometry x="703" y="271" width="120" height="80" as="geometry"/>
                </mxCell>
                <mxCell id="RSmQOjQT8rtEHRsPoJc1-164" style="edgeStyle=orthogonalEdgeStyle;rounded=0;orthogonalLoop=1;jettySize=auto;html=1;entryX=0;entryY=0.5;entryDx=0;entryDy=0;" edge="1" parent="1" source="RSmQOjQT8rtEHRsPoJc1-149" target="RSmQOjQT8rtEHRsPoJc1-162">
                    <mxGeometry relative="1" as="geometry"/>
                </mxCell>
                <mxCell id="RSmQOjQT8rtEHRsPoJc1-165" style="edgeStyle=orthogonalEdgeStyle;rounded=0;orthogonalLoop=1;jettySize=auto;html=1;entryX=0;entryY=0.5;entryDx=0;entryDy=0;" edge="1" parent="1" source="RSmQOjQT8rtEHRsPoJc1-149" target="RSmQOjQT8rtEHRsPoJc1-163">
                    <mxGeometry relative="1" as="geometry"/>
                </mxCell>
                <mxCell id="RSmQOjQT8rtEHRsPoJc1-149" value="consultar pedidos&lt;br&gt;" style="ellipse;whiteSpace=wrap;html=1;" vertex="1" parent="1">
                    <mxGeometry x="703" y="431" width="120" height="80" as="geometry"/>
                </mxCell>
                <mxCell id="RSmQOjQT8rtEHRsPoJc1-176" style="edgeStyle=orthogonalEdgeStyle;rounded=0;orthogonalLoop=1;jettySize=auto;html=1;entryX=0;entryY=0.5;entryDx=0;entryDy=0;" edge="1" parent="1" source="RSmQOjQT8rtEHRsPoJc1-150" target="RSmQOjQT8rtEHRsPoJc1-172">
                    <mxGeometry relative="1" as="geometry"/>
                </mxCell>
                <mxCell id="RSmQOjQT8rtEHRsPoJc1-177" style="edgeStyle=orthogonalEdgeStyle;rounded=0;orthogonalLoop=1;jettySize=auto;html=1;entryX=0;entryY=0.5;entryDx=0;entryDy=0;" edge="1" parent="1" source="RSmQOjQT8rtEHRsPoJc1-150" target="RSmQOjQT8rtEHRsPoJc1-173">
                    <mxGeometry relative="1" as="geometry"/>
                </mxCell>
                <mxCell id="RSmQOjQT8rtEHRsPoJc1-150" value="reserva" style="ellipse;whiteSpace=wrap;html=1;" vertex="1" parent="1">
                    <mxGeometry x="698" y="741" width="120" height="80" as="geometry"/>
                </mxCell>
                <mxCell id="RSmQOjQT8rtEHRsPoJc1-151" value="actualizar pass" style="ellipse;whiteSpace=wrap;html=1;" vertex="1" parent="1">
                    <mxGeometry x="913" y="-39" width="120" height="80" as="geometry"/>
                </mxCell>
                <mxCell id="RSmQOjQT8rtEHRsPoJc1-152" value="actualizar perfil" style="ellipse;whiteSpace=wrap;html=1;" vertex="1" parent="1">
                    <mxGeometry x="913" y="131" width="120" height="80" as="geometry"/>
                </mxCell>
                <mxCell id="RSmQOjQT8rtEHRsPoJc1-162" value="filtros" style="ellipse;whiteSpace=wrap;html=1;" vertex="1" parent="1">
                    <mxGeometry x="923" y="361" width="120" height="80" as="geometry"/>
                </mxCell>
                <mxCell id="RSmQOjQT8rtEHRsPoJc1-163" value="creación de despacho" style="ellipse;whiteSpace=wrap;html=1;" vertex="1" parent="1">
                    <mxGeometry x="923" y="471" width="120" height="80" as="geometry"/>
                </mxCell>
                <mxCell id="RSmQOjQT8rtEHRsPoJc1-178" style="edgeStyle=orthogonalEdgeStyle;rounded=0;orthogonalLoop=1;jettySize=auto;html=1;entryX=0;entryY=0.5;entryDx=0;entryDy=0;" edge="1" parent="1" source="RSmQOjQT8rtEHRsPoJc1-172" target="RSmQOjQT8rtEHRsPoJc1-175">
                    <mxGeometry relative="1" as="geometry"/>
                </mxCell>
                <mxCell id="RSmQOjQT8rtEHRsPoJc1-172" value="listar despachos" style="ellipse;whiteSpace=wrap;html=1;" vertex="1" parent="1">
                    <mxGeometry x="903" y="741" width="120" height="80" as="geometry"/>
                </mxCell>
                <mxCell id="RSmQOjQT8rtEHRsPoJc1-182" style="edgeStyle=orthogonalEdgeStyle;rounded=0;orthogonalLoop=1;jettySize=auto;html=1;entryX=0.5;entryY=1;entryDx=0;entryDy=0;" edge="1" parent="1" source="RSmQOjQT8rtEHRsPoJc1-173" target="RSmQOjQT8rtEHRsPoJc1-175">
                    <mxGeometry relative="1" as="geometry"/>
                </mxCell>
                <mxCell id="RSmQOjQT8rtEHRsPoJc1-173" value="filtrar despachos" style="ellipse;whiteSpace=wrap;html=1;" vertex="1" parent="1">
                    <mxGeometry x="903" y="871" width="120" height="80" as="geometry"/>
                </mxCell>
                <mxCell id="RSmQOjQT8rtEHRsPoJc1-174" value="anular" style="ellipse;whiteSpace=wrap;html=1;" vertex="1" parent="1">
                    <mxGeometry x="1343" y="741" width="120" height="80" as="geometry"/>
                </mxCell>
                <mxCell id="RSmQOjQT8rtEHRsPoJc1-180" style="edgeStyle=orthogonalEdgeStyle;rounded=0;orthogonalLoop=1;jettySize=auto;html=1;entryX=0;entryY=0.5;entryDx=0;entryDy=0;" edge="1" parent="1" source="RSmQOjQT8rtEHRsPoJc1-175" target="RSmQOjQT8rtEHRsPoJc1-174">
                    <mxGeometry relative="1" as="geometry"/>
                </mxCell>
                <mxCell id="RSmQOjQT8rtEHRsPoJc1-175" value="detalle" style="ellipse;whiteSpace=wrap;html=1;" vertex="1" parent="1">
                    <mxGeometry x="1123" y="741" width="120" height="80" as="geometry"/>
                </mxCell>
                <mxCell id="RSmQOjQT8rtEHRsPoJc1-185" value="login" style="ellipse;whiteSpace=wrap;html=1;" vertex="1" parent="1">
                    <mxGeometry x="213" y="161" width="110" height="80" as="geometry"/>
                </mxCell>
                <mxCell id="RSmQOjQT8rtEHRsPoJc1-190" value="registro?" style="ellipse;whiteSpace=wrap;html=1;" vertex="1" parent="1">
                    <mxGeometry x="213" y="41" width="110" height="80" as="geometry"/>
                </mxCell>
                <mxCell id="RSmQOjQT8rtEHRsPoJc1-191" style="edgeStyle=orthogonalEdgeStyle;rounded=0;orthogonalLoop=1;jettySize=auto;html=1;entryX=0;entryY=0.5;entryDx=0;entryDy=0;" edge="1" parent="1">
                    <mxGeometry relative="1" as="geometry">
                        <mxPoint x="80" y="1370" as="sourcePoint"/>
                        <mxPoint x="150" y="1370" as="targetPoint"/>
                    </mxGeometry>
                </mxCell>
                <mxCell id="RSmQOjQT8rtEHRsPoJc1-192" style="edgeStyle=orthogonalEdgeStyle;rounded=0;orthogonalLoop=1;jettySize=auto;html=1;entryX=0;entryY=0.5;entryDx=0;entryDy=0;" edge="1" parent="1" target="RSmQOjQT8rtEHRsPoJc1-197">
                    <mxGeometry relative="1" as="geometry">
                        <mxPoint x="260" y="1370" as="sourcePoint"/>
                    </mxGeometry>
                </mxCell>
                <mxCell id="RSmQOjQT8rtEHRsPoJc1-193" style="edgeStyle=orthogonalEdgeStyle;rounded=0;orthogonalLoop=1;jettySize=auto;html=1;entryX=0;entryY=0.5;entryDx=0;entryDy=0;" edge="1" parent="1" source="RSmQOjQT8rtEHRsPoJc1-197" target="RSmQOjQT8rtEHRsPoJc1-200">
                    <mxGeometry relative="1" as="geometry"/>
                </mxCell>
                <mxCell id="RSmQOjQT8rtEHRsPoJc1-197" value="Dashboard Vtex Admin" style="ellipse;whiteSpace=wrap;html=1;" vertex="1" parent="1">
                    <mxGeometry x="390" y="1330" width="110" height="80" as="geometry"/>
                </mxCell>
                <mxCell id="RSmQOjQT8rtEHRsPoJc1-198" style="edgeStyle=orthogonalEdgeStyle;rounded=0;orthogonalLoop=1;jettySize=auto;html=1;entryX=0;entryY=0.5;entryDx=0;entryDy=0;" edge="1" parent="1" source="RSmQOjQT8rtEHRsPoJc1-200" target="RSmQOjQT8rtEHRsPoJc1-208">
                    <mxGeometry relative="1" as="geometry"/>
                </mxCell>
                <mxCell id="RSmQOjQT8rtEHRsPoJc1-199" style="edgeStyle=orthogonalEdgeStyle;rounded=0;orthogonalLoop=1;jettySize=auto;html=1;entryX=0;entryY=0.5;entryDx=0;entryDy=0;" edge="1" parent="1" source="RSmQOjQT8rtEHRsPoJc1-200" target="RSmQOjQT8rtEHRsPoJc1-209">
                    <mxGeometry relative="1" as="geometry"/>
                </mxCell>
                <mxCell id="RSmQOjQT8rtEHRsPoJc1-228" style="edgeStyle=orthogonalEdgeStyle;rounded=0;orthogonalLoop=1;jettySize=auto;html=1;entryX=0;entryY=0.5;entryDx=0;entryDy=0;" edge="1" parent="1" source="RSmQOjQT8rtEHRsPoJc1-200" target="RSmQOjQT8rtEHRsPoJc1-226">
                    <mxGeometry relative="1" as="geometry"/>
                </mxCell>
                <mxCell id="RSmQOjQT8rtEHRsPoJc1-229" style="edgeStyle=orthogonalEdgeStyle;rounded=0;orthogonalLoop=1;jettySize=auto;html=1;entryX=0;entryY=0.5;entryDx=0;entryDy=0;" edge="1" parent="1" source="RSmQOjQT8rtEHRsPoJc1-200" target="RSmQOjQT8rtEHRsPoJc1-227">
                    <mxGeometry relative="1" as="geometry"/>
                </mxCell>
                <mxCell id="RSmQOjQT8rtEHRsPoJc1-235" style="edgeStyle=orthogonalEdgeStyle;rounded=0;orthogonalLoop=1;jettySize=auto;html=1;entryX=0;entryY=0.5;entryDx=0;entryDy=0;" edge="1" parent="1" source="RSmQOjQT8rtEHRsPoJc1-200" target="RSmQOjQT8rtEHRsPoJc1-234">
                    <mxGeometry relative="1" as="geometry"/>
                </mxCell>
                <mxCell id="RSmQOjQT8rtEHRsPoJc1-200" value="despachos" style="ellipse;whiteSpace=wrap;html=1;" vertex="1" parent="1">
                    <mxGeometry x="630" y="1330" width="110" height="80" as="geometry"/>
                </mxCell>
                <mxCell id="RSmQOjQT8rtEHRsPoJc1-231" style="edgeStyle=orthogonalEdgeStyle;rounded=0;orthogonalLoop=1;jettySize=auto;html=1;entryX=0;entryY=0.5;entryDx=0;entryDy=0;" edge="1" parent="1" source="RSmQOjQT8rtEHRsPoJc1-208" target="RSmQOjQT8rtEHRsPoJc1-230">
                    <mxGeometry relative="1" as="geometry"/>
                </mxCell>
                <mxCell id="RSmQOjQT8rtEHRsPoJc1-208" value="lista despachos" style="ellipse;whiteSpace=wrap;html=1;" vertex="1" parent="1">
                    <mxGeometry x="870" y="1160" width="120" height="80" as="geometry"/>
                </mxCell>
                <mxCell id="RSmQOjQT8rtEHRsPoJc1-209" value="lista clientes" style="ellipse;whiteSpace=wrap;html=1;" vertex="1" parent="1">
                    <mxGeometry x="870" y="1330" width="120" height="80" as="geometry"/>
                </mxCell>
                <mxCell id="RSmQOjQT8rtEHRsPoJc1-219" value="login" style="ellipse;whiteSpace=wrap;html=1;" vertex="1" parent="1">
                    <mxGeometry x="150" y="1330" width="110" height="80" as="geometry"/>
                </mxCell>
                <mxCell id="RSmQOjQT8rtEHRsPoJc1-220" value="registro?" style="ellipse;whiteSpace=wrap;html=1;" vertex="1" parent="1">
                    <mxGeometry x="150" y="1210" width="110" height="80" as="geometry"/>
                </mxCell>
                <mxCell id="RSmQOjQT8rtEHRsPoJc1-221" value="lógistica" style="shape=umlActor;verticalLabelPosition=bottom;verticalAlign=top;html=1;outlineConnect=0;" vertex="1" parent="1">
                    <mxGeometry x="-50" y="1300" width="130" height="130" as="geometry"/>
                </mxCell>
                <mxCell id="RSmQOjQT8rtEHRsPoJc1-226" value="lista camiones" style="ellipse;whiteSpace=wrap;html=1;" vertex="1" parent="1">
                    <mxGeometry x="870" y="1460" width="120" height="80" as="geometry"/>
                </mxCell>
                <mxCell id="RSmQOjQT8rtEHRsPoJc1-227" value="lista conductores" style="ellipse;whiteSpace=wrap;html=1;" vertex="1" parent="1">
                    <mxGeometry x="870" y="1584" width="120" height="80" as="geometry"/>
                </mxCell>
                <mxCell id="RSmQOjQT8rtEHRsPoJc1-233" style="edgeStyle=orthogonalEdgeStyle;rounded=0;orthogonalLoop=1;jettySize=auto;html=1;entryX=0;entryY=0.5;entryDx=0;entryDy=0;" edge="1" parent="1" source="RSmQOjQT8rtEHRsPoJc1-230" target="RSmQOjQT8rtEHRsPoJc1-232">
                    <mxGeometry relative="1" as="geometry"/>
                </mxCell>
                <mxCell id="RSmQOjQT8rtEHRsPoJc1-230" value="detalle" style="ellipse;whiteSpace=wrap;html=1;" vertex="1" parent="1">
                    <mxGeometry x="1050" y="1160" width="120" height="80" as="geometry"/>
                </mxCell>
                <mxCell id="RSmQOjQT8rtEHRsPoJc1-232" value="actualizar" style="ellipse;whiteSpace=wrap;html=1;" vertex="1" parent="1">
                    <mxGeometry x="1243" y="1160" width="120" height="80" as="geometry"/>
                </mxCell>
                <mxCell id="RSmQOjQT8rtEHRsPoJc1-234" value="desloguearse" style="ellipse;whiteSpace=wrap;html=1;" vertex="1" parent="1">
                    <mxGeometry x="870" y="1690" width="120" height="80" as="geometry"/>
                </mxCell>
            </root>
        </mxGraphModel>
    </diagram>
</mxfile>